STARTFONT 2.1
COMMENT $XFree86$
COMMENT ISO10646-1 extension by Markus Kuhn <mkuhn@acm.org>, 2001-03-20
COMMENT  (c) Copyright Bigelow & Holmes 1986, 1985. Lucida is a registered
COMMENT  trademark of Bigelow & Holmes. See LEGAL NOTICE file for terms 
COMMENT  of the license. 
COMMENT GRID 0018 0018 0200 0200
FONT -B&H-Lucida-Bold-I-Normal-Sans-18-180-75-75-P-119-ISO10646-1
SIZE 18 72 72
FONTBOUNDINGBOX 28 27 -3 -7
STARTPROPERTIES 22
COMMENT Begin LogicalFontDescription
FONTNAME_REGISTRY ""
FOUNDRY "B&H"
FAMILY_NAME "Lucida"
WEIGHT_NAME "Bold"
SLANT "I"
SETWIDTH_NAME "Normal"
ADD_STYLE_NAME "Sans"
PIXEL_SIZE 18
POINT_SIZE 180
RESOLUTION_X 75
RESOLUTION_Y 75
SPACING "P"
AVERAGE_WIDTH 119
CHARSET_REGISTRY "ISO10646"
CHARSET_ENCODING "1"
COMMENT END LogicalFontDescription
FONT_ASCENT 16
FONT_DESCENT 3
DEFAULT_CHAR 0
COPYRIGHT "Copyright Bigelow & Holmes 1986, 1985."
FACE_NAME "Lucida Sans Bold Italic"
X_HEIGHT 10
CAP_HEIGHT 13
ENDPROPERTIES
CHARS 723
STARTCHAR char0
ENCODING 0
SWIDTH 813 0
DWIDTH 15 0
BBX 13 13 2 0
BITMAP
AAA8
0000
8008
0000
8008
0000
8008
0000
8008
0000
8008
0000
AAA8
ENDCHAR
STARTCHAR space
ENCODING 32
SWIDTH 343 0
DWIDTH 5 0
BBX 1 1 0 0
BITMAP
00
ENDCHAR
STARTCHAR exclam
ENCODING 33
SWIDTH 343 0
DWIDTH 5 0
BBX 5 13 1 0
BITMAP
38
38
38
38
70
70
70
60
60
00
00
E0
E0
ENDCHAR
STARTCHAR quotedbl
ENCODING 34
SWIDTH 530 0
DWIDTH 10 0
BBX 6 4 3 10
BITMAP
CC
CC
CC
88
ENDCHAR
STARTCHAR numbersign
ENCODING 35
SWIDTH 687 0
DWIDTH 13 0
BBX 12 13 1 0
BITMAP
0660
0660
0660
7FF0
7FF0
1980
1980
1980
FFE0
FFE0
6600
6600
6600
ENDCHAR
STARTCHAR dollar
ENCODING 36
SWIDTH 687 0
DWIDTH 13 0
BBX 11 15 2 -1
BITMAP
0100
0FC0
1FE0
3960
3B00
3A00
3E00
1F00
0F80
0B80
1B80
D380
FF00
7E00
1000
ENDCHAR
STARTCHAR percent
ENCODING 37
SWIDTH 908 0
DWIDTH 17 0
BBX 16 13 1 0
BITMAP
3C06
7E0C
EE18
C630
EE60
FCC0
799E
033F
0677
0C63
1877
307E
603C
ENDCHAR
STARTCHAR ampersand
ENCODING 38
SWIDTH 816 0
DWIDTH 15 0
BBX 13 13 2 0
BITMAP
0F80
1FC0
39C0
39C0
3F80
1F00
3E38
7F38
E7B0
E3E0
F3C0
FFF0
7C70
ENDCHAR
STARTCHAR quotesingle
ENCODING 39
SWIDTH 265 0
DWIDTH 5 0
BBX 2 4 3 10
BITMAP
C0
C0
C0
80
ENDCHAR
STARTCHAR parenleft
ENCODING 40
SWIDTH 386 0
DWIDTH 7 0
BBX 7 16 2 -2
BITMAP
0E
1C
38
30
70
70
E0
E0
E0
E0
E0
E0
E0
E0
70
38
ENDCHAR
STARTCHAR parenright
ENCODING 41
SWIDTH 386 0
DWIDTH 7 0
BBX 7 16 0 -2
BITMAP
38
1C
0E
0E
0E
0E
0E
0E
0E
0E
1C
1C
18
38
70
E0
ENDCHAR
STARTCHAR asterisk
ENCODING 42
SWIDTH 464 0
DWIDTH 9 0
BBX 8 7 1 6
BITMAP
18
18
DB
E7
18
EC
EC
ENDCHAR
STARTCHAR plus
ENCODING 43
SWIDTH 687 0
DWIDTH 13 0
BBX 12 12 1 0
BITMAP
0300
0300
0300
0600
0600
FFF0
FFF0
0600
0600
0C00
0C00
0C00
ENDCHAR
STARTCHAR comma
ENCODING 44
SWIDTH 343 0
DWIDTH 5 0
BBX 4 4 0 -2
BITMAP
70
70
60
C0
ENDCHAR
STARTCHAR hyphen
ENCODING 45
SWIDTH 289 0
DWIDTH 6 0
BBX 5 2 1 4
BITMAP
F8
F8
ENDCHAR
STARTCHAR period
ENCODING 46
SWIDTH 343 0
DWIDTH 5 0
BBX 3 2 1 0
BITMAP
E0
E0
ENDCHAR
STARTCHAR slash
ENCODING 47
SWIDTH 596 0
DWIDTH 11 0
BBX 11 16 0 -2
BITMAP
0060
00E0
01C0
0180
0380
0700
0600
0E00
0C00
1C00
3800
3000
7000
6000
E000
C000
ENDCHAR
STARTCHAR zero
ENCODING 48
SWIDTH 687 0
DWIDTH 13 0
BBX 11 13 2 0
BITMAP
0780
1FC0
39E0
70E0
70E0
E0E0
E0E0
E0E0
E1C0
E1C0
F380
7F00
3C00
ENDCHAR
STARTCHAR one
ENCODING 49
SWIDTH 687 0
DWIDTH 13 0
BBX 6 13 4 0
BITMAP
1C
FC
FC
1C
1C
38
38
38
38
70
70
70
70
ENDCHAR
STARTCHAR two
ENCODING 50
SWIDTH 687 0
DWIDTH 13 0
BBX 10 13 2 0
BITMAP
1F80
3FC0
31C0
01C0
03C0
0780
0F00
1E00
3800
7000
FF80
FF80
FF80
ENDCHAR
STARTCHAR three
ENCODING 51
SWIDTH 687 0
DWIDTH 13 0
BBX 10 13 2 0
BITMAP
1F80
3FC0
31C0
01C0
0380
1F00
1E00
0700
0380
0380
C780
FF00
7C00
ENDCHAR
STARTCHAR four
ENCODING 52
SWIDTH 687 0
DWIDTH 13 0
BBX 10 13 2 0
BITMAP
01C0
03C0
07C0
0DC0
19C0
3380
6380
FFC0
FFC0
0700
0700
0700
0700
ENDCHAR
STARTCHAR five
ENCODING 53
SWIDTH 687 0
DWIDTH 13 0
BBX 11 13 2 0
BITMAP
1FE0
1FE0
1FE0
3000
3000
3E00
3F00
0780
0380
0380
C780
FF00
7C00
ENDCHAR
STARTCHAR six
ENCODING 54
SWIDTH 687 0
DWIDTH 13 0
BBX 11 13 2 0
BITMAP
07C0
1FE0
3C60
7000
7000
EF00
FF80
F1C0
E1C0
E1C0
E380
7F80
3E00
ENDCHAR
STARTCHAR seven
ENCODING 55
SWIDTH 687 0
DWIDTH 13 0
BBX 10 13 3 0
BITMAP
7FC0
7FC0
7FC0
0180
0300
0600
0C00
1C00
3800
7000
7000
E000
E000
ENDCHAR
STARTCHAR eight
ENCODING 56
SWIDTH 687 0
DWIDTH 13 0
BBX 11 13 2 0
BITMAP
07C0
1FE0
38E0
38E0
3DC0
1F00
0F80
3F80
73C0
E1C0
F1C0
FF80
7E00
ENDCHAR
STARTCHAR nine
ENCODING 57
SWIDTH 687 0
DWIDTH 13 0
BBX 10 13 2 0
BITMAP
1F00
7F80
71C0
E1C0
E1C0
E3C0
7FC0
3DC0
0380
0380
C700
FE00
7800
ENDCHAR
STARTCHAR colon
ENCODING 58
SWIDTH 343 0
DWIDTH 5 0
BBX 5 10 1 0
BITMAP
38
38
00
00
00
00
00
00
E0
E0
ENDCHAR
STARTCHAR semicolon
ENCODING 59
SWIDTH 343 0
DWIDTH 5 0
BBX 6 12 0 -2
BITMAP
1C
1C
00
00
00
00
00
00
70
70
60
C0
ENDCHAR
STARTCHAR less
ENCODING 60
SWIDTH 687 0
DWIDTH 13 0
BBX 11 9 2 2
BITMAP
00E0
03C0
0F00
3C00
F000
F000
3C00
0F00
0380
ENDCHAR
STARTCHAR equal
ENCODING 61
SWIDTH 687 0
DWIDTH 13 0
BBX 12 6 1 3
BITMAP
7FF0
7FF0
0000
0000
FFE0
FFE0
ENDCHAR
STARTCHAR greater
ENCODING 62
SWIDTH 687 0
DWIDTH 13 0
BBX 11 9 1 2
BITMAP
3800
1E00
0780
01E0
01E0
0780
1E00
7800
E000
ENDCHAR
STARTCHAR question
ENCODING 63
SWIDTH 539 0
DWIDTH 10 0
BBX 8 13 2 0
BITMAP
7E
FF
C7
07
0E
1C
38
70
60
00
00
E0
E0
ENDCHAR
STARTCHAR at
ENCODING 64
SWIDTH 833 0
DWIDTH 16 0
BBX 16 13 1 0
BITMAP
07F0
1FFE
3806
71F3
67F3
C673
CE63
CEE6
CFFC
C678
6000
7FC0
0FC0
ENDCHAR
STARTCHAR A
ENCODING 65
SWIDTH 771 0
DWIDTH 14 0
BBX 12 13 1 0
BITMAP
01C0
03C0
03C0
06E0
0CE0
0CE0
18E0
18E0
3FF0
7FF0
6070
E070
E070
ENDCHAR
STARTCHAR B
ENCODING 66
SWIDTH 660 0
DWIDTH 13 0
BBX 11 13 2 0
BITMAP
3FC0
3FE0
38E0
38E0
71C0
7F80
7F00
7380
E1C0
E1C0
E3C0
FF80
FE00
ENDCHAR
STARTCHAR C
ENCODING 67
SWIDTH 737 0
DWIDTH 14 0
BBX 13 13 2 0
BITMAP
07E0
1FF8
3C38
7000
7000
E000
E000
E000
E000
E000
7060
7FE0
1F80
ENDCHAR
STARTCHAR D
ENCODING 68
SWIDTH 822 0
DWIDTH 15 0
BBX 13 13 2 0
BITMAP
3FC0
3FF0
3870
3838
7038
7038
7038
7038
E070
E070
E1E0
FFC0
FF00
ENDCHAR
STARTCHAR E
ENCODING 69
SWIDTH 642 0
DWIDTH 12 0
BBX 10 13 2 0
BITMAP
3FC0
3FC0
3800
3800
7000
7F00
7F00
7000
E000
E000
E000
FF00
FF00
ENDCHAR
STARTCHAR F
ENCODING 70
SWIDTH 614 0
DWIDTH 12 0
BBX 11 13 2 0
BITMAP
3FE0
3FE0
3800
3800
7000
7F80
7F80
7000
7000
E000
E000
E000
E000
ENDCHAR
STARTCHAR G
ENCODING 71
SWIDTH 755 0
DWIDTH 14 0
BBX 13 13 2 0
BITMAP
07E0
1FF8
3C38
7000
7000
E000
E000
E070
E070
E070
70E0
7FE0
1FE0
ENDCHAR
STARTCHAR H
ENCODING 72
SWIDTH 813 0
DWIDTH 15 0
BBX 13 13 2 0
BITMAP
3838
3838
3838
3838
7070
7FF0
7FF0
7070
E0E0
E0E0
E0E0
E0E0
E0E0
ENDCHAR
STARTCHAR I
ENCODING 73
SWIDTH 361 0
DWIDTH 7 0
BBX 5 13 2 0
BITMAP
38
38
38
38
70
70
70
70
E0
E0
E0
E0
E0
ENDCHAR
STARTCHAR J
ENCODING 74
SWIDTH 502 0
DWIDTH 9 0
BBX 10 15 -1 -2
BITMAP
01C0
01C0
01C0
01C0
0380
0380
0380
0380
0380
0700
0700
0700
CE00
FE00
7800
ENDCHAR
STARTCHAR K
ENCODING 75
SWIDTH 753 0
DWIDTH 14 0
BBX 12 13 2 0
BITMAP
3870
38E0
39C0
3980
7300
7600
7C00
7E00
EF00
E780
E3C0
E1E0
E0E0
ENDCHAR
STARTCHAR L
ENCODING 76
SWIDTH 623 0
DWIDTH 11 0
BBX 9 13 2 0
BITMAP
3800
3800
3800
3800
7000
7000
7000
7000
E000
E000
E000
FF80
FF80
ENDCHAR
STARTCHAR M
ENCODING 77
SWIDTH 940 0
DWIDTH 18 0
BBX 16 13 2 0
BITMAP
3E0F
3E1F
3E1F
3737
3766
676E
67CE
678E
678E
C71C
C71C
C01C
C01C
ENDCHAR
STARTCHAR N
ENCODING 78
SWIDTH 789 0
DWIDTH 15 0
BBX 13 13 2 0
BITMAP
3818
3C18
3C18
3E18
3E18
6730
6730
63B0
63F0
C1E0
C1E0
C0E0
C0E0
ENDCHAR
STARTCHAR O
ENCODING 79
SWIDTH 855 0
DWIDTH 16 0
BBX 14 13 2 0
BITMAP
07E0
1FF8
3C38
701C
701C
E01C
E01C
E01C
E038
E038
70F0
7FE0
1F80
ENDCHAR
STARTCHAR P
ENCODING 80
SWIDTH 645 0
DWIDTH 13 0
BBX 11 13 2 0
BITMAP
3FC0
3FE0
38E0
38E0
70E0
71C0
7F80
7E00
E000
E000
E000
E000
E000
ENDCHAR
STARTCHAR Q
ENCODING 81
SWIDTH 855 0
DWIDTH 15 0
BBX 14 16 1 -3
BITMAP
07E0
1FF8
3C38
701C
701C
E01C
E01C
E01C
E038
E038
70F0
7FE0
1F80
01E0
00FC
0038
ENDCHAR
STARTCHAR R
ENCODING 82
SWIDTH 708 0
DWIDTH 13 0
BBX 11 13 2 0
BITMAP
3FC0
3FE0
38E0
38E0
71C0
7F80
7E00
7700
E700
E380
E380
E1C0
E1C0
ENDCHAR
STARTCHAR S
ENCODING 83
SWIDTH 639 0
DWIDTH 12 0
BBX 11 13 1 0
BITMAP
07C0
1FE0
3C60
3800
3C00
1E00
0F00
0780
0380
0380
C780
FF00
7C00
ENDCHAR
STARTCHAR T
ENCODING 84
SWIDTH 747 0
DWIDTH 14 0
BBX 13 13 2 0
BITMAP
FFF8
FFF8
0700
0700
0E00
0E00
0E00
0E00
1C00
1C00
1C00
1C00
1C00
ENDCHAR
STARTCHAR U
ENCODING 85
SWIDTH 759 0
DWIDTH 14 0
BBX 13 13 2 0
BITMAP
3818
3818
3818
3818
7030
7030
7030
7060
E060
E0E0
F1C0
7F80
3E00
ENDCHAR
STARTCHAR V
ENCODING 86
SWIDTH 765 0
DWIDTH 14 0
BBX 11 13 4 0
BITMAP
E0E0
E0E0
E0C0
E1C0
E180
E380
7300
7700
7600
7600
7C00
3800
3800
ENDCHAR
STARTCHAR W
ENCODING 87
SWIDTH 991 0
DWIDTH 18 0
BBX 16 13 3 0
BITMAP
E1C7
E1C7
E3C7
E3C6
E7CE
E7CC
EDD8
E9D8
F9F0
F1E0
F1E0
E1C0
E1C0
ENDCHAR
STARTCHAR X
ENCODING 88
SWIDTH 696 0
DWIDTH 13 0
BBX 13 13 1 0
BITMAP
1C38
1C38
1C70
0E60
0EC0
0F80
0700
0F00
1B80
3380
71C0
E1C0
E1C0
ENDCHAR
STARTCHAR Y
ENCODING 89
SWIDTH 681 0
DWIDTH 12 0
BBX 11 13 3 0
BITMAP
E0E0
E0E0
E1C0
F380
7300
7600
3C00
3800
3800
7000
7000
7000
7000
ENDCHAR
STARTCHAR Z
ENCODING 90
SWIDTH 687 0
DWIDTH 13 0
BBX 12 13 1 0
BITMAP
3FF0
3FF0
00F0
01E0
03C0
0780
0F00
1E00
3C00
7800
F000
FFC0
FFC0
ENDCHAR
STARTCHAR bracketleft
ENCODING 91
SWIDTH 386 0
DWIDTH 7 0
BBX 8 16 1 -2
BITMAP
1F
1F
1C
1C
38
38
38
38
70
70
70
70
E0
E0
F8
F8
ENDCHAR
STARTCHAR backslash
ENCODING 92
SWIDTH 566 0
DWIDTH 10 0
BBX 9 16 1 -2
BITMAP
E000
E000
7000
7000
3800
3800
1800
1C00
1C00
0E00
0E00
0600
0700
0700
0380
0380
ENDCHAR
STARTCHAR bracketright
ENCODING 93
SWIDTH 386 0
DWIDTH 7 0
BBX 8 16 0 -2
BITMAP
1F
1F
07
07
0E
0E
0E
0E
1C
1C
1C
1C
38
38
F8
F8
ENDCHAR
STARTCHAR asciicircum
ENCODING 94
SWIDTH 687 0
DWIDTH 13 0
BBX 9 10 2 2
BITMAP
0180
0380
0780
0D80
1980
3180
6180
6180
C180
C180
ENDCHAR
STARTCHAR underscore
ENCODING 95
SWIDTH 500 0
DWIDTH 14 0
BBX 12 2 1 -2
BITMAP
FFF0
FFF0
ENDCHAR
STARTCHAR grave
ENCODING 96
SWIDTH 663 0
DWIDTH 12 0
BBX 5 2 5 11
BITMAP
F0
38
ENDCHAR
STARTCHAR a
ENCODING 97
SWIDTH 681 0
DWIDTH 13 0
BBX 12 10 1 0
BITMAP
07F0
1FF0
3870
70E0
70E0
E1E0
E3C0
E7C0
FDC0
79C0
ENDCHAR
STARTCHAR b
ENCODING 98
SWIDTH 681 0
DWIDTH 13 0
BBX 12 14 1 0
BITMAP
1C00
1C00
1C00
1C00
39E0
3BF0
3E70
7C70
7870
70E0
70E0
E1C0
FF80
FE00
ENDCHAR
STARTCHAR c
ENCODING 99
SWIDTH 548 0
DWIDTH 11 0
BBX 10 10 1 0
BITMAP
0780
1FC0
38C0
7000
7000
E000
E000
E180
FF80
7E00
ENDCHAR
STARTCHAR d
ENCODING 100
SWIDTH 681 0
DWIDTH 13 0
BBX 13 14 1 0
BITMAP
0038
0038
0038
0038
07F0
1FF0
3870
70E0
70E0
E1E0
E3C0
E7C0
FDC0
79C0
ENDCHAR
STARTCHAR e
ENCODING 101
SWIDTH 612 0
DWIDTH 11 0
BBX 10 10 1 0
BITMAP
0780
1FC0
39C0
71C0
7F80
FE00
E000
E180
FF80
7E00
ENDCHAR
STARTCHAR f
ENCODING 102
SWIDTH 464 0
DWIDTH 10 0
BBX 12 17 1 -3
BITMAP
03E0
07F0
0E30
0E00
3FC0
3FC0
1C00
1C00
3800
3800
3800
7000
7000
7000
E000
E000
E000
ENDCHAR
STARTCHAR g
ENCODING 103
SWIDTH 674 0
DWIDTH 13 0
BBX 13 13 0 -3
BITMAP
03F8
0FF8
1C38
3870
3870
70F0
71F0
7F60
3CE0
00E0
E1C0
FFC0
3F00
ENDCHAR
STARTCHAR h
ENCODING 104
SWIDTH 675 0
DWIDTH 13 0
BBX 12 14 1 0
BITMAP
1C00
1C00
1C00
1C00
39E0
3BF0
3E70
7C70
78E0
70E0
70E0
E1C0
E1C0
E1C0
ENDCHAR
STARTCHAR i
ENCODING 105
SWIDTH 343 0
DWIDTH 6 0
BBX 7 14 1 0
BITMAP
0E
1C
00
00
38
38
38
70
70
70
70
E0
E0
E0
ENDCHAR
STARTCHAR j
ENCODING 106
SWIDTH 407 0
DWIDTH 7 0
BBX 11 17 -2 -3
BITMAP
00E0
01C0
0000
0000
0380
0380
0380
0700
0700
0700
0700
0E00
0E00
0E00
DC00
FC00
7000
ENDCHAR
STARTCHAR k
ENCODING 107
SWIDTH 666 0
DWIDTH 12 0
BBX 11 14 1 0
BITMAP
1C00
1C00
1C00
1C00
38E0
38E0
39C0
7300
7E00
7E00
7700
E780
E3C0
E1C0
ENDCHAR
STARTCHAR l
ENCODING 108
SWIDTH 343 0
DWIDTH 6 0
BBX 6 14 1 0
BITMAP
1C
1C
1C
1C
38
38
38
70
70
70
70
E0
E0
E0
ENDCHAR
STARTCHAR m
ENCODING 109
SWIDTH 991 0
DWIDTH 18 0
BBX 17 10 1 0
BITMAP
39C700
3BEF80
3EFB80
7CF380
79E700
71C700
71C700
E38E00
E38E00
E38E00
ENDCHAR
STARTCHAR n
ENCODING 110
SWIDTH 675 0
DWIDTH 13 0
BBX 12 10 1 0
BITMAP
39E0
3BF0
3E70
3C70
78E0
70E0
70E0
E1C0
E1C0
E1C0
ENDCHAR
STARTCHAR o
ENCODING 111
SWIDTH 663 0
DWIDTH 12 0
BBX 11 10 1 0
BITMAP
07C0
1FE0
38E0
70E0
70E0
E1C0
E1C0
E380
FF00
7C00
ENDCHAR
STARTCHAR p
ENCODING 112
SWIDTH 681 0
DWIDTH 13 0
BBX 13 13 0 -3
BITMAP
1CF0
1DF8
1F38
1E38
3C38
3870
3870
70E0
7FC0
7F00
E000
E000
E000
ENDCHAR
STARTCHAR q
ENCODING 113
SWIDTH 681 0
DWIDTH 13 0
BBX 12 13 1 -3
BITMAP
07F0
1FF0
3870
70E0
70E0
E1E0
E3E0
E6C0
FDC0
79C0
0380
0380
0380
ENDCHAR
STARTCHAR r
ENCODING 114
SWIDTH 542 0
DWIDTH 10 0
BBX 9 10 1 0
BITMAP
3980
3B80
3F80
7C00
7800
7000
7000
E000
E000
E000
ENDCHAR
STARTCHAR s
ENCODING 115
SWIDTH 527 0
DWIDTH 11 0
BBX 10 10 1 0
BITMAP
1F80
3FC0
70C0
7800
3E00
1F00
0780
C380
FF00
7E00
ENDCHAR
STARTCHAR t
ENCODING 116
SWIDTH 437 0
DWIDTH 8 0
BBX 7 12 2 0
BITMAP
18
38
FE
FE
70
70
70
E0
E0
E0
F8
78
ENDCHAR
STARTCHAR u
ENCODING 117
SWIDTH 675 0
DWIDTH 13 0
BBX 12 10 1 0
BITMAP
3870
3870
3870
70E0
70E0
71E0
E3C0
E7C0
FDC0
79C0
ENDCHAR
STARTCHAR v
ENCODING 118
SWIDTH 630 0
DWIDTH 12 0
BBX 10 10 3 0
BITMAP
E1C0
E1C0
E380
E300
E700
E600
EC00
F800
F000
E000
ENDCHAR
STARTCHAR w
ENCODING 119
SWIDTH 878 0
DWIDTH 16 0
BBX 15 10 2 0
BITMAP
E00E
E38E
E38E
E79C
E798
EFB0
FBE0
F3C0
E380
C300
ENDCHAR
STARTCHAR x
ENCODING 120
SWIDTH 563 0
DWIDTH 11 0
BBX 11 10 0 0
BITMAP
1CE0
1CE0
1CC0
0F80
0F00
1F00
3700
6380
E380
E380
ENDCHAR
STARTCHAR y
ENCODING 121
SWIDTH 633 0
DWIDTH 12 0
BBX 13 13 0 -3
BITMAP
1C38
1C38
1C70
1C60
1CE0
1CC0
1D80
1F00
1E00
1C00
3800
F000
E000
ENDCHAR
STARTCHAR z
ENCODING 122
SWIDTH 630 0
DWIDTH 12 0
BBX 11 10 1 0
BITMAP
7FE0
7FE0
03C0
0780
0F00
1E00
3C00
7800
FFC0
FFC0
ENDCHAR
STARTCHAR braceleft
ENCODING 123
SWIDTH 386 0
DWIDTH 7 0
BBX 8 16 1 -2
BITMAP
07
0F
1C
1C
1C
1C
18
F0
E0
30
70
70
E0
E0
F0
70
ENDCHAR
STARTCHAR bar
ENCODING 124
SWIDTH 259 0
DWIDTH 7 0
BBX 5 16 2 -2
BITMAP
38
38
38
38
30
70
70
70
70
70
70
60
E0
E0
E0
E0
ENDCHAR
STARTCHAR braceright
ENCODING 125
SWIDTH 386 0
DWIDTH 7 0
BBX 8 16 0 -2
BITMAP
0E
0F
07
07
0E
0E
0C
07
0F
18
38
38
38
38
F0
E0
ENDCHAR
STARTCHAR asciitilde
ENCODING 126
SWIDTH 687 0
DWIDTH 13 0
BBX 10 3 2 5
BITMAP
78C0
FFC0
C780
ENDCHAR
STARTCHAR space
ENCODING 160
SWIDTH 343 0
DWIDTH 5 0
BBX 1 1 0 0
BITMAP
00
ENDCHAR
STARTCHAR exclamdown
ENCODING 161
SWIDTH 343 0
DWIDTH 6 0
BBX 5 13 1 -3
BITMAP
38
38
00
30
30
70
70
70
70
E0
E0
E0
E0
ENDCHAR
STARTCHAR cent
ENCODING 162
SWIDTH 687 0
DWIDTH 13 0
BBX 9 13 3 -1
BITMAP
0200
0200
0F00
3F80
7180
6000
E000
E000
E300
FF00
7C00
1000
1000
ENDCHAR
STARTCHAR sterling
ENCODING 163
SWIDTH 687 0
DWIDTH 13 0
BBX 11 13 2 0
BITMAP
03C0
0FE0
1C60
1C00
3800
FF00
FF00
3800
3800
7000
7000
FFC0
FFC0
ENDCHAR
STARTCHAR currency
ENCODING 164
SWIDTH 687 0
DWIDTH 13 0
BBX 14 12 1 0
BITMAP
300C
1818
0FE0
1FF0
1C70
3870
3870
38E0
3FE0
1FC0
6060
C030
ENDCHAR
STARTCHAR yen
ENCODING 165
SWIDTH 687 0
DWIDTH 13 0
BBX 11 13 2 0
BITMAP
70E0
70E0
70C0
38C0
3980
3B00
1E00
FF80
1C00
FF80
1C00
3800
3800
ENDCHAR
STARTCHAR brokenbar
ENCODING 166
SWIDTH 259 0
DWIDTH 5 0
BBX 5 16 1 -2
BITMAP
38
38
38
38
30
30
00
00
00
00
60
60
E0
E0
E0
E0
ENDCHAR
STARTCHAR section
ENCODING 167
SWIDTH 687 0
DWIDTH 13 0
BBX 10 15 2 -2
BITMAP
0780
1FC0
38C0
3800
3C00
6E00
6700
7380
3980
1D80
0F00
0700
C700
FE00
7800
ENDCHAR
STARTCHAR dieresis
ENCODING 168
SWIDTH 663 0
DWIDTH 12 0
BBX 6 2 4 11
BITMAP
CC
CC
ENDCHAR
STARTCHAR copyright
ENCODING 169
SWIDTH 834 0
DWIDTH 16 0
BBX 14 13 2 0
BITMAP
0FC0
3FF0
7038
6398
C6CC
CC0C
CC0C
CC0C
CE8C
6718
7038
3FF0
0FC0
ENDCHAR
STARTCHAR ordfeminine
ENCODING 170
SWIDTH 539 0
DWIDTH 10 0
BBX 9 7 1 6
BITMAP
1F80
7F80
7380
E700
EF00
F700
E700
ENDCHAR
STARTCHAR guillemotleft
ENCODING 171
SWIDTH 633 0
DWIDTH 12 0
BBX 11 8 1 2
BITMAP
0840
1CE0
39C0
7380
E700
7380
39C0
1080
ENDCHAR
STARTCHAR logicalnot
ENCODING 172
SWIDTH 687 0
DWIDTH 13 0
BBX 11 6 1 2
BITMAP
FFE0
FFE0
0060
0060
0060
0060
ENDCHAR
STARTCHAR hyphen
ENCODING 173
SWIDTH 289 0
DWIDTH 6 0
BBX 5 2 1 4
BITMAP
F8
F8
ENDCHAR
STARTCHAR registered
ENCODING 174
SWIDTH 691 0
DWIDTH 13 0
BBX 10 10 2 3
BITMAP
1E00
7F80
6180
DEC0
DAC0
DCC0
DAC0
6180
7F80
1E00
ENDCHAR
STARTCHAR macron
ENCODING 175
SWIDTH 663 0
DWIDTH 12 0
BBX 4 2 6 11
BITMAP
F0
F0
ENDCHAR
STARTCHAR degree
ENCODING 176
SWIDTH 241 0
DWIDTH 5 0
BBX 5 3 1 10
BITMAP
70
D8
70
ENDCHAR
STARTCHAR plusminus
ENCODING 177
SWIDTH 687 0
DWIDTH 13 0
BBX 11 12 1 0
BITMAP
0300
0300
0300
0600
7FE0
7FE0
0600
0C00
0C00
0000
FFE0
FFE0
ENDCHAR
STARTCHAR twosuperior
ENCODING 178
SWIDTH 539 0
DWIDTH 10 0
BBX 8 8 2 5
BITMAP
7E
7F
07
1F
7E
F0
FE
FE
ENDCHAR
STARTCHAR threesuperior
ENCODING 179
SWIDTH 539 0
DWIDTH 10 0
BBX 8 8 2 5
BITMAP
7E
7F
07
3C
3E
0E
FE
F8
ENDCHAR
STARTCHAR acute
ENCODING 180
SWIDTH 663 0
DWIDTH 12 0
BBX 5 2 6 11
BITMAP
78
E0
ENDCHAR
STARTCHAR mu
ENCODING 181
SWIDTH 681 0
DWIDTH 13 0
BBX 13 13 0 -3
BITMAP
1C38
1C38
1C38
3870
3870
38F0
71E0
73E0
7EE0
7CE0
E000
E000
E000
ENDCHAR
STARTCHAR paragraph
ENCODING 182
SWIDTH 687 0
DWIDTH 13 0
BBX 9 15 3 -2
BITMAP
3F80
7C80
FD80
FD80
F900
F900
7B00
1B00
1200
1200
3600
3600
2400
2400
2400
ENDCHAR
STARTCHAR periodcentered
ENCODING 183
SWIDTH 343 0
DWIDTH 13 0
BBX 3 3 6 4
BITMAP
E0
E0
E0
ENDCHAR
STARTCHAR cedilla
ENCODING 184
SWIDTH 663 0
DWIDTH 12 0
BBX 5 3 2 -3
BITMAP
70
38
F0
ENDCHAR
STARTCHAR onesuperior
ENCODING 185
SWIDTH 539 0
DWIDTH 10 0
BBX 5 8 3 5
BITMAP
38
F8
F8
38
38
70
70
70
ENDCHAR
STARTCHAR ordmasculine
ENCODING 186
SWIDTH 539 0
DWIDTH 10 0
BBX 9 7 1 6
BITMAP
1F00
7F80
7380
E380
E700
FF00
7C00
ENDCHAR
STARTCHAR guillemotright
ENCODING 187
SWIDTH 633 0
DWIDTH 12 0
BBX 11 8 1 2
BITMAP
2100
7380
39C0
1CE0
39C0
7380
E700
4200
ENDCHAR
STARTCHAR onequarter
ENCODING 188
SWIDTH 1089 0
DWIDTH 20 0
BBX 18 13 1 0
BITMAP
380700
F80E00
381C00
383800
707000
70E000
71C780
038B80
071380
0E3FC0
1C3FC0
380700
700700
ENDCHAR
STARTCHAR onehalf
ENCODING 189
SWIDTH 1089 0
DWIDTH 20 0
BBX 18 13 2 0
BITMAP
701C00
F03800
707000
70E000
E1C000
E38000
E30F80
063FC0
0E33C0
1C0780
381C00
707F80
E07F80
ENDCHAR
STARTCHAR threequarters
ENCODING 190
SWIDTH 1149 0
DWIDTH 21 0
BBX 19 13 1 0
BITMAP
3E0380
7F0700
0E0E00
3C1C00
0E3800
FE7000
7CE3C0
01C5C0
0389C0
071FE0
0E1FE0
1C0380
380380
ENDCHAR
STARTCHAR questiondown
ENCODING 191
SWIDTH 539 0
DWIDTH 10 0
BBX 8 13 1 -3
BITMAP
07
07
00
00
06
0E
1C
38
70
E0
E3
FF
7E
ENDCHAR
STARTCHAR Agrave
ENCODING 192
SWIDTH 771 0
DWIDTH 14 0
BBX 12 16 1 0
BITMAP
0780
01C0
0000
01C0
03C0
03C0
06E0
0CE0
0CE0
18E0
18E0
3FF0
7FF0
6070
E070
E070
ENDCHAR
STARTCHAR Aacute
ENCODING 193
SWIDTH 771 0
DWIDTH 14 0
BBX 12 16 1 0
BITMAP
01E0
0380
0000
01C0
03C0
03C0
06E0
0CE0
0CE0
18E0
18E0
3FF0
7FF0
6070
E070
E070
ENDCHAR
STARTCHAR Acircumflex
ENCODING 194
SWIDTH 771 0
DWIDTH 14 0
BBX 12 16 1 0
BITMAP
01C0
0360
0000
01C0
03C0
03C0
06E0
0CE0
0CE0
18E0
18E0
3FF0
7FF0
6070
E070
E070
ENDCHAR
STARTCHAR Atilde
ENCODING 195
SWIDTH 771 0
DWIDTH 14 0
BBX 12 16 1 0
BITMAP
03A0
05C0
0000
01C0
03C0
03C0
06E0
0CE0
0CE0
18E0
18E0
3FF0
7FF0
6070
E070
E070
ENDCHAR
STARTCHAR Adieresis
ENCODING 196
SWIDTH 771 0
DWIDTH 14 0
BBX 12 16 1 0
BITMAP
0660
0660
0000
01C0
03C0
03C0
06E0
0CE0
0CE0
18E0
18E0
3FF0
7FF0
6070
E070
E070
ENDCHAR
STARTCHAR Aring
ENCODING 197
SWIDTH 771 0
DWIDTH 14 0
BBX 12 16 1 0
BITMAP
01C0
0360
01C0
01C0
03C0
03C0
06E0
0CE0
0CE0
18E0
18E0
3FF0
7FF0
6070
E070
E070
ENDCHAR
STARTCHAR AE
ENCODING 198
SWIDTH 1004 0
DWIDTH 18 0
BBX 17 13 1 0
BITMAP
00FF80
01FF80
037000
067000
0CE000
1CFE00
18FE00
30E000
7FC000
7FC000
E1C000
E1FE00
E1FE00
ENDCHAR
STARTCHAR Ccedilla
ENCODING 199
SWIDTH 737 0
DWIDTH 14 0
BBX 13 16 2 -3
BITMAP
07E0
1FF8
3C38
7000
7000
E000
E000
E000
E000
E000
7060
7FE0
1F80
1C00
0E00
3C00
ENDCHAR
STARTCHAR Egrave
ENCODING 200
SWIDTH 642 0
DWIDTH 12 0
BBX 10 16 2 0
BITMAP
0F00
0380
0000
3FC0
3FC0
3800
3800
7000
7F00
7F00
7000
E000
E000
E000
FF00
FF00
ENDCHAR
STARTCHAR Eacute
ENCODING 201
SWIDTH 642 0
DWIDTH 12 0
BBX 10 16 2 0
BITMAP
0780
0E00
0000
3FC0
3FC0
3800
3800
7000
7F00
7F00
7000
E000
E000
E000
FF00
FF00
ENDCHAR
STARTCHAR Ecircumflex
ENCODING 202
SWIDTH 642 0
DWIDTH 12 0
BBX 10 16 2 0
BITMAP
0700
0D80
0000
3FC0
3FC0
3800
3800
7000
7F00
7F00
7000
E000
E000
E000
FF00
FF00
ENDCHAR
STARTCHAR Edieresis
ENCODING 203
SWIDTH 642 0
DWIDTH 12 0
BBX 10 16 2 0
BITMAP
1980
1980
0000
3FC0
3FC0
3800
3800
7000
7F00
7F00
7000
E000
E000
E000
FF00
FF00
ENDCHAR
STARTCHAR Igrave
ENCODING 204
SWIDTH 361 0
DWIDTH 7 0
BBX 5 16 2 0
BITMAP
F0
38
00
38
38
38
38
70
70
70
70
E0
E0
E0
E0
E0
ENDCHAR
STARTCHAR Iacute
ENCODING 205
SWIDTH 361 0
DWIDTH 7 0
BBX 7 16 2 0
BITMAP
1E
38
00
38
38
38
38
70
70
70
70
E0
E0
E0
E0
E0
ENDCHAR
STARTCHAR Icircumflex
ENCODING 206
SWIDTH 361 0
DWIDTH 7 0
BBX 6 16 2 0
BITMAP
38
6C
00
38
38
38
38
70
70
70
70
E0
E0
E0
E0
E0
ENDCHAR
STARTCHAR Idieresis
ENCODING 207
SWIDTH 361 0
DWIDTH 7 0
BBX 6 16 2 0
BITMAP
CC
CC
00
38
38
38
38
70
70
70
70
E0
E0
E0
E0
E0
ENDCHAR
STARTCHAR Eth
ENCODING 208
SWIDTH 822 0
DWIDTH 15 0
BBX 14 13 1 0
BITMAP
1FE0
1FF8
1C38
1C1C
381C
FF9C
FF9C
381C
7038
7038
70F0
7FE0
7F80
ENDCHAR
STARTCHAR Ntilde
ENCODING 209
SWIDTH 789 0
DWIDTH 15 0
BBX 13 16 2 0
BITMAP
03A0
05C0
0000
3818
3C18
3C18
3E18
3E18
6730
6730
63B0
63F0
C1E0
C1E0
C0E0
C0E0
ENDCHAR
STARTCHAR Ograve
ENCODING 210
SWIDTH 855 0
DWIDTH 16 0
BBX 14 16 2 0
BITMAP
0780
01C0
0000
07E0
1FF8
3C38
701C
701C
E01C
E01C
E01C
E038
E038
70F0
7FE0
1F80
ENDCHAR
STARTCHAR Oacute
ENCODING 211
SWIDTH 855 0
DWIDTH 16 0
BBX 14 16 2 0
BITMAP
01E0
0380
0000
07E0
1FF8
3C38
701C
701C
E01C
E01C
E01C
E038
E038
70F0
7FE0
1F80
ENDCHAR
STARTCHAR Ocircumflex
ENCODING 212
SWIDTH 855 0
DWIDTH 16 0
BBX 14 16 2 0
BITMAP
01C0
0360
0000
07E0
1FF8
3C38
701C
701C
E01C
E01C
E01C
E038
E038
70F0
7FE0
1F80
ENDCHAR
STARTCHAR Otilde
ENCODING 213
SWIDTH 855 0
DWIDTH 16 0
BBX 14 16 2 0
BITMAP
03A0
05C0
0000
07E0
1FF8
3C38
701C
701C
E01C
E01C
E01C
E038
E038
70F0
7FE0
1F80
ENDCHAR
STARTCHAR Odieresis
ENCODING 214
SWIDTH 855 0
DWIDTH 16 0
BBX 14 16 2 0
BITMAP
0660
0660
0000
07E0
1FF8
3C38
701C
701C
E01C
E01C
E01C
E038
E038
70F0
7FE0
1F80
ENDCHAR
STARTCHAR multiply
ENCODING 215
SWIDTH 687 0
DWIDTH 13 0
BBX 10 10 2 1
BITMAP
30C0
30C0
1980
1F00
0E00
1E00
3700
6300
C180
C180
ENDCHAR
STARTCHAR Oslash
ENCODING 216
SWIDTH 855 0
DWIDTH 16 0
BBX 14 13 2 0
BITMAP
07EC
1FFC
3C38
707C
70DC
E19C
E31C
E61C
EC38
F838
70F0
FFE0
DF80
ENDCHAR
STARTCHAR Ugrave
ENCODING 217
SWIDTH 759 0
DWIDTH 14 0
BBX 13 16 2 0
BITMAP
0780
01C0
0000
3818
3818
3818
3818
7030
7030
7030
7060
E060
E0E0
F1C0
7F80
3E00
ENDCHAR
STARTCHAR Uacute
ENCODING 218
SWIDTH 759 0
DWIDTH 14 0
BBX 13 16 2 0
BITMAP
01E0
0380
0000
3818
3818
3818
3818
7030
7030
7030
7060
E060
E0E0
F1C0
7F80
3E00
ENDCHAR
STARTCHAR Ucircumflex
ENCODING 219
SWIDTH 759 0
DWIDTH 14 0
BBX 13 16 2 0
BITMAP
01C0
0360
0000
3818
3818
3818
3818
7030
7030
7030
7060
E060
E0E0
F1C0
7F80
3E00
ENDCHAR
STARTCHAR Udieresis
ENCODING 220
SWIDTH 759 0
DWIDTH 14 0
BBX 13 16 2 0
BITMAP
0660
0660
0000
3818
3818
3818
3818
7030
7030
7030
7060
E060
E0E0
F1C0
7F80
3E00
ENDCHAR
STARTCHAR Yacute
ENCODING 221
SWIDTH 681 0
DWIDTH 12 0
BBX 11 16 3 0
BITMAP
0780
0E00
0000
E0E0
E0E0
E1C0
F380
7300
7600
3C00
3800
3800
7000
7000
7000
7000
ENDCHAR
STARTCHAR Thorn
ENCODING 222
SWIDTH 645 0
DWIDTH 13 0
BBX 11 13 2 0
BITMAP
3800
3800
3800
3FC0
7FE0
70E0
70E0
71E0
FFC0
FF00
E000
E000
E000
ENDCHAR
STARTCHAR germandbls
ENCODING 223
SWIDTH 708 0
DWIDTH 13 0
BBX 13 17 0 -3
BITMAP
01F0
07F8
0738
0E38
0E30
1C60
1DC0
1DE0
38F0
3870
3870
7070
73E0
73C0
E000
E000
E000
ENDCHAR
STARTCHAR agrave
ENCODING 224
SWIDTH 681 0
DWIDTH 13 0
BBX 12 13 1 0
BITMAP
03C0
00E0
0000
07F0
1FF0
3870
70E0
70E0
E1E0
E3C0
E7C0
FDC0
79C0
ENDCHAR
STARTCHAR aacute
ENCODING 225
SWIDTH 681 0
DWIDTH 13 0
BBX 12 13 1 0
BITMAP
01E0
0380
0000
07F0
1FF0
3870
70E0
70E0
E1E0
E3C0
E7C0
FDC0
79C0
ENDCHAR
STARTCHAR acircumflex
ENCODING 226
SWIDTH 681 0
DWIDTH 13 0
BBX 12 13 1 0
BITMAP
0380
06C0
0000
07F0
1FF0
3870
70E0
70E0
E1E0
E3C0
E7C0
FDC0
79C0
ENDCHAR
STARTCHAR atilde
ENCODING 227
SWIDTH 681 0
DWIDTH 13 0
BBX 12 13 1 0
BITMAP
03A0
05C0
0000
07F0
1FF0
3870
70E0
70E0
E1E0
E3C0
E7C0
FDC0
79C0
ENDCHAR
STARTCHAR adieresis
ENCODING 228
SWIDTH 681 0
DWIDTH 13 0
BBX 12 13 1 0
BITMAP
0660
0660
0000
07F0
1FF0
3870
70E0
70E0
E1E0
E3C0
E7C0
FDC0
79C0
ENDCHAR
STARTCHAR aring
ENCODING 229
SWIDTH 681 0
DWIDTH 13 0
BBX 12 14 1 0
BITMAP
01C0
0360
01C0
0000
07F0
1FF0
3870
70E0
70E0
E1E0
E3C0
E7C0
FDC0
79C0
ENDCHAR
STARTCHAR ae
ENCODING 230
SWIDTH 987 0
DWIDTH 18 0
BBX 17 10 1 0
BITMAP
07DF00
1FFF80
386380
70E380
71FF00
E3FC00
E7C000
EDC300
F9FF00
70FE00
ENDCHAR
STARTCHAR ccedilla
ENCODING 231
SWIDTH 548 0
DWIDTH 11 0
BBX 10 13 1 -3
BITMAP
0780
1FC0
38C0
7000
7000
E000
E000
E180
FF80
7E00
3800
1C00
7800
ENDCHAR
STARTCHAR egrave
ENCODING 232
SWIDTH 612 0
DWIDTH 11 0
BBX 10 13 1 0
BITMAP
0F00
0380
0000
0780
1FC0
39C0
71C0
7F80
FE00
E000
E180
FF80
7E00
ENDCHAR
STARTCHAR eacute
ENCODING 233
SWIDTH 612 0
DWIDTH 11 0
BBX 10 13 1 0
BITMAP
03C0
0700
0000
0780
1FC0
39C0
71C0
7F80
FE00
E000
E180
FF80
7E00
ENDCHAR
STARTCHAR ecircumflex
ENCODING 234
SWIDTH 612 0
DWIDTH 11 0
BBX 10 13 1 0
BITMAP
0700
0D80
0000
0780
1FC0
39C0
71C0
7F80
FE00
E000
E180
FF80
7E00
ENDCHAR
STARTCHAR edieresis
ENCODING 235
SWIDTH 612 0
DWIDTH 11 0
BBX 10 13 1 0
BITMAP
1980
1980
0000
0780
1FC0
39C0
71C0
7F80
FE00
E000
E180
FF80
7E00
ENDCHAR
STARTCHAR igrave
ENCODING 236
SWIDTH 343 0
DWIDTH 6 0
BBX 5 13 1 0
BITMAP
F0
38
00
38
38
38
70
70
70
70
E0
E0
E0
ENDCHAR
STARTCHAR iacute
ENCODING 237
SWIDTH 343 0
DWIDTH 6 0
BBX 7 13 1 0
BITMAP
1E
38
00
38
38
38
70
70
70
70
E0
E0
E0
ENDCHAR
STARTCHAR icircumflex
ENCODING 238
SWIDTH 343 0
DWIDTH 6 0
BBX 6 13 1 0
BITMAP
38
6C
00
38
38
38
70
70
70
70
E0
E0
E0
ENDCHAR
STARTCHAR idieresis
ENCODING 239
SWIDTH 343 0
DWIDTH 6 0
BBX 6 13 1 0
BITMAP
CC
CC
00
38
38
38
70
70
70
70
E0
E0
E0
ENDCHAR
STARTCHAR eth
ENCODING 240
SWIDTH 663 0
DWIDTH 12 0
BBX 12 14 1 0
BITMAP
0700
07F0
01C0
07E0
00E0
0FE0
3FE0
70E0
70E0
E1C0
E1C0
E380
FF00
7C00
ENDCHAR
STARTCHAR ntilde
ENCODING 241
SWIDTH 675 0
DWIDTH 13 0
BBX 12 13 1 0
BITMAP
03A0
05C0
0000
39E0
3BF0
3E70
3C70
78E0
70E0
70E0
E1C0
E1C0
E1C0
ENDCHAR
STARTCHAR ograve
ENCODING 242
SWIDTH 663 0
DWIDTH 12 0
BBX 11 13 1 0
BITMAP
0F00
0380
0000
07C0
1FE0
38E0
70E0
70E0
E1C0
E1C0
E380
FF00
7C00
ENDCHAR
STARTCHAR oacute
ENCODING 243
SWIDTH 663 0
DWIDTH 12 0
BBX 11 13 1 0
BITMAP
03C0
0700
0000
07C0
1FE0
38E0
70E0
70E0
E1C0
E1C0
E380
FF00
7C00
ENDCHAR
STARTCHAR ocircumflex
ENCODING 244
SWIDTH 663 0
DWIDTH 12 0
BBX 11 13 1 0
BITMAP
0380
06C0
0000
07C0
1FE0
38E0
70E0
70E0
E1C0
E1C0
E380
FF00
7C00
ENDCHAR
STARTCHAR otilde
ENCODING 245
SWIDTH 663 0
DWIDTH 12 0
BBX 11 13 1 0
BITMAP
0740
0B80
0000
07C0
1FE0
38E0
70E0
70E0
E1C0
E1C0
E380
FF00
7C00
ENDCHAR
STARTCHAR odieresis
ENCODING 246
SWIDTH 663 0
DWIDTH 12 0
BBX 11 13 1 0
BITMAP
0CC0
0CC0
0000
07C0
1FE0
38E0
70E0
70E0
E1C0
E1C0
E380
FF00
7C00
ENDCHAR
STARTCHAR divide
ENCODING 247
SWIDTH 687 0
DWIDTH 13 0
BBX 10 12 2 0
BITMAP
0600
0600
0600
0000
0000
FFC0
FFC0
0000
0000
1800
1800
1800
ENDCHAR
STARTCHAR oslash
ENCODING 248
SWIDTH 663 0
DWIDTH 12 0
BBX 13 12 0 -1
BITMAP
0018
03F8
0FF0
1C70
38F0
3B70
76E0
78E0
71C0
7F80
FE00
C000
ENDCHAR
STARTCHAR ugrave
ENCODING 249
SWIDTH 675 0
DWIDTH 13 0
BBX 12 13 1 0
BITMAP
0780
01C0
0000
3870
3870
3870
70E0
70E0
71E0
E3C0
E7C0
FDC0
79C0
ENDCHAR
STARTCHAR uacute
ENCODING 250
SWIDTH 675 0
DWIDTH 13 0
BBX 12 13 1 0
BITMAP
01E0
0380
0000
3870
3870
3870
70E0
70E0
71E0
E3C0
E7C0
FDC0
79C0
ENDCHAR
STARTCHAR ucircumflex
ENCODING 251
SWIDTH 675 0
DWIDTH 13 0
BBX 12 13 1 0
BITMAP
0380
06C0
0000
3870
3870
3870
70E0
70E0
71E0
E3C0
E7C0
FDC0
79C0
ENDCHAR
STARTCHAR udieresis
ENCODING 252
SWIDTH 675 0
DWIDTH 13 0
BBX 12 13 1 0
BITMAP
0CC0
0CC0
0000
3870
3870
3870
70E0
70E0
71E0
E3C0
E7C0
FDC0
79C0
ENDCHAR
STARTCHAR yacute
ENCODING 253
SWIDTH 633 0
DWIDTH 12 0
BBX 13 16 0 -3
BITMAP
00F0
01C0
0000
1C38
1C38
1C70
1C60
1CE0
1CC0
1D80
1F00
1E00
1C00
3800
F000
E000
ENDCHAR
STARTCHAR thorn
ENCODING 254
SWIDTH 681 0
DWIDTH 13 0
BBX 13 16 0 -3
BITMAP
1C00
1C00
1C00
1CF0
19F8
3B38
3E38
3C38
3870
7870
70E0
7FC0
7F00
E000
E000
E000
ENDCHAR
STARTCHAR ydieresis
ENCODING 255
SWIDTH 633 0
DWIDTH 12 0
BBX 13 16 0 -3
BITMAP
0660
0660
0000
1C38
1C38
1C70
1C60
1CE0
1CC0
1D80
1F00
1E00
1C00
3800
F000
E000
ENDCHAR
STARTCHAR Amacron
ENCODING 256
SWIDTH 771 0
DWIDTH 14 0
BBX 12 16 1 0
BITMAP
0780
0780
0000
01C0
03C0
03C0
06E0
0CE0
0CE0
18E0
18E0
3FF0
7FF0
6070
E070
E070
ENDCHAR
STARTCHAR amacron
ENCODING 257
SWIDTH 681 0
DWIDTH 13 0
BBX 12 13 1 0
BITMAP
0780
0780
0000
07F0
1FF0
3870
70E0
70E0
E1E0
E3C0
E7C0
FDC0
79C0
ENDCHAR
STARTCHAR Abreve
ENCODING 258
SWIDTH 771 0
DWIDTH 14 0
BBX 12 17 1 0
BITMAP
0440
07C0
0380
0000
01C0
03C0
03C0
06E0
0CE0
0CE0
18E0
18E0
3FF0
7FF0
6070
E070
E070
ENDCHAR
STARTCHAR abreve
ENCODING 259
SWIDTH 681 0
DWIDTH 13 0
BBX 12 14 1 0
BITMAP
0440
07C0
0380
0000
07F0
1FF0
3870
70E0
70E0
E1E0
E3C0
E7C0
FDC0
79C0
ENDCHAR
STARTCHAR Aogonek
ENCODING 260
SWIDTH 771 0
DWIDTH 14 0
BBX 12 16 1 -3
BITMAP
01C0
03C0
03C0
06E0
0CE0
0CE0
18E0
18E0
3FF0
7FF0
6070
E070
E070
0700
0E00
0780
ENDCHAR
STARTCHAR aogonek
ENCODING 261
SWIDTH 681 0
DWIDTH 13 0
BBX 12 13 1 -3
BITMAP
07F0
1FF0
3870
70E0
70E0
E1E0
E3C0
E7C0
FDC0
79C0
0E00
1C00
0F00
ENDCHAR
STARTCHAR Cacute
ENCODING 262
SWIDTH 737 0
DWIDTH 14 0
BBX 13 16 2 0
BITMAP
03C0
0700
0000
07E0
1FF8
3C38
7000
7000
E000
E000
E000
E000
E000
7060
7FE0
1F80
ENDCHAR
STARTCHAR cacute
ENCODING 263
SWIDTH 548 0
DWIDTH 11 0
BBX 10 13 1 0
BITMAP
0780
0E00
0000
0780
1FC0
38C0
7000
7000
E000
E000
E180
FF80
7E00
ENDCHAR
STARTCHAR Ccircumflex
ENCODING 264
SWIDTH 737 0
DWIDTH 14 0
BBX 13 16 2 0
BITMAP
0700
0D80
0000
07E0
1FF8
3C38
7000
7000
E000
E000
E000
E000
E000
7060
7FE0
1F80
ENDCHAR
STARTCHAR ccircumflex
ENCODING 265
SWIDTH 548 0
DWIDTH 11 0
BBX 10 13 1 0
BITMAP
0E00
1B00
0000
0780
1FC0
38C0
7000
7000
E000
E000
E180
FF80
7E00
ENDCHAR
STARTCHAR Cdotaccent
ENCODING 266
SWIDTH 737 0
DWIDTH 14 0
BBX 13 16 2 0
BITMAP
0700
0700
0000
07E0
1FF8
3C38
7000
7000
E000
E000
E000
E000
E000
7060
7FE0
1F80
ENDCHAR
STARTCHAR cdotaccent
ENCODING 267
SWIDTH 548 0
DWIDTH 11 0
BBX 10 13 1 0
BITMAP
0E00
0E00
0000
0780
1FC0
38C0
7000
7000
E000
E000
E180
FF80
7E00
ENDCHAR
STARTCHAR Ccaron
ENCODING 268
SWIDTH 737 0
DWIDTH 14 0
BBX 13 16 2 0
BITMAP
0D80
0700
0000
07E0
1FF8
3C38
7000
7000
E000
E000
E000
E000
E000
7060
7FE0
1F80
ENDCHAR
STARTCHAR ccaron
ENCODING 269
SWIDTH 548 0
DWIDTH 11 0
BBX 10 13 1 0
BITMAP
1B00
0E00
0000
0780
1FC0
38C0
7000
7000
E000
E000
E180
FF80
7E00
ENDCHAR
STARTCHAR Dcaron
ENCODING 270
SWIDTH 822 0
DWIDTH 15 0
BBX 13 16 2 0
BITMAP
0D80
0700
0000
3FC0
3FF0
3870
3838
7038
7038
7038
7038
E070
E070
E1E0
FFC0
FF00
ENDCHAR
STARTCHAR dcaron
ENCODING 271
SWIDTH 912 0
DWIDTH 17 0
BBX 17 14 1 0
BITMAP
003B80
003B80
003B00
003E00
07F000
1FF000
387000
70E000
70E000
E1E000
E3C000
E7C000
FDC000
79C000
ENDCHAR
STARTCHAR Dcroat
ENCODING 272
SWIDTH 822 0
DWIDTH 15 0
BBX 14 13 1 0
BITMAP
1FE0
1FF8
1C38
1C1C
381C
FF9C
FF9C
381C
7038
7038
70F0
7FE0
7F80
ENDCHAR
STARTCHAR dcroat
ENCODING 273
SWIDTH 681 0
DWIDTH 13 0
BBX 13 14 1 0
BITMAP
0038
0038
01F8
01F8
07F0
1FF0
3870
70E0
70E0
E1E0
E3C0
E7C0
FDC0
79C0
ENDCHAR
STARTCHAR Emacron
ENCODING 274
SWIDTH 642 0
DWIDTH 12 0
BBX 10 16 2 0
BITMAP
1E00
1E00
0000
3FC0
3FC0
3800
3800
7000
7F00
7F00
7000
E000
E000
E000
FF00
FF00
ENDCHAR
STARTCHAR emacron
ENCODING 275
SWIDTH 612 0
DWIDTH 11 0
BBX 10 13 1 0
BITMAP
0F00
0F00
0000
0780
1FC0
39C0
71C0
7F80
FE00
E000
E180
FF80
7E00
ENDCHAR
STARTCHAR Ebreve
ENCODING 276
SWIDTH 642 0
DWIDTH 12 0
BBX 10 17 2 0
BITMAP
1100
1F00
0E00
0000
3FC0
3FC0
3800
3800
7000
7F00
7F00
7000
E000
E000
E000
FF00
FF00
ENDCHAR
STARTCHAR ebreve
ENCODING 277
SWIDTH 612 0
DWIDTH 11 0
BBX 10 14 1 0
BITMAP
1100
1F00
0E00
0000
0780
1FC0
39C0
71C0
7F80
FE00
E000
E180
FF80
7E00
ENDCHAR
STARTCHAR Edotaccent
ENCODING 278
SWIDTH 642 0
DWIDTH 12 0
BBX 10 16 2 0
BITMAP
0E00
0E00
0000
3FC0
3FC0
3800
3800
7000
7F00
7F00
7000
E000
E000
E000
FF00
FF00
ENDCHAR
STARTCHAR edotaccent
ENCODING 279
SWIDTH 612 0
DWIDTH 11 0
BBX 10 13 1 0
BITMAP
0E00
0E00
0000
0780
1FC0
39C0
71C0
7F80
FE00
E000
E180
FF80
7E00
ENDCHAR
STARTCHAR Eogonek
ENCODING 280
SWIDTH 642 0
DWIDTH 12 0
BBX 10 16 2 -3
BITMAP
3FC0
3FC0
3800
3800
7000
7F00
7F00
7000
E000
E000
E000
FF00
FF00
3800
7000
3C00
ENDCHAR
STARTCHAR eogonek
ENCODING 281
SWIDTH 612 0
DWIDTH 11 0
BBX 10 13 1 -3
BITMAP
0780
1FC0
39C0
71C0
7F80
FE00
E000
E180
FF80
7E00
1C00
3800
1E00
ENDCHAR
STARTCHAR Ecaron
ENCODING 282
SWIDTH 642 0
DWIDTH 12 0
BBX 10 16 2 0
BITMAP
1B00
0E00
0000
3FC0
3FC0
3800
3800
7000
7F00
7F00
7000
E000
E000
E000
FF00
FF00
ENDCHAR
STARTCHAR ecaron
ENCODING 283
SWIDTH 612 0
DWIDTH 11 0
BBX 10 13 1 0
BITMAP
1B00
0E00
0000
0780
1FC0
39C0
71C0
7F80
FE00
E000
E180
FF80
7E00
ENDCHAR
STARTCHAR Gcircumflex
ENCODING 284
SWIDTH 755 0
DWIDTH 14 0
BBX 13 16 2 0
BITMAP
0700
0D80
0000
07E0
1FF8
3C38
7000
7000
E000
E000
E070
E070
E070
70E0
7FE0
1FE0
ENDCHAR
STARTCHAR gcircumflex
ENCODING 285
SWIDTH 674 0
DWIDTH 13 0
BBX 13 16 0 -3
BITMAP
0380
06C0
0000
03F8
0FF8
1C38
3870
3870
70F0
71F0
7F60
3CE0
00E0
E1C0
FFC0
3F00
ENDCHAR
STARTCHAR Gbreve
ENCODING 286
SWIDTH 755 0
DWIDTH 14 0
BBX 13 17 2 0
BITMAP
0880
0F80
0700
0000
07E0
1FF8
3C38
7000
7000
E000
E000
E070
E070
E070
70E0
7FE0
1FE0
ENDCHAR
STARTCHAR gbreve
ENCODING 287
SWIDTH 674 0
DWIDTH 13 0
BBX 13 17 0 -3
BITMAP
0440
07C0
0380
0000
03F8
0FF8
1C38
3870
3870
70F0
71F0
7F60
3CE0
00E0
E1C0
FFC0
3F00
ENDCHAR
STARTCHAR Gdotaccent
ENCODING 288
SWIDTH 755 0
DWIDTH 14 0
BBX 13 16 2 0
BITMAP
0700
0700
0000
07E0
1FF8
3C38
7000
7000
E000
E000
E070
E070
E070
70E0
7FE0
1FE0
ENDCHAR
STARTCHAR gdotaccent
ENCODING 289
SWIDTH 674 0
DWIDTH 13 0
BBX 13 16 0 -3
BITMAP
0380
0380
0000
03F8
0FF8
1C38
3870
3870
70F0
71F0
7F60
3CE0
00E0
E1C0
FFC0
3F00
ENDCHAR
STARTCHAR Gcommaaccent
ENCODING 290
SWIDTH 755 0
DWIDTH 14 0
BBX 13 18 2 -5
BITMAP
07E0
1FF8
3C38
7000
7000
E000
E000
E070
E070
E070
70E0
7FE0
1FE0
0000
0700
0700
0600
0C00
ENDCHAR
STARTCHAR gcommaaccent
ENCODING 291
SWIDTH 674 0
DWIDTH 13 0
BBX 13 18 0 -3
BITMAP
00C0
0180
0380
0380
0000
03F8
0FF8
1C38
3870
3870
70F0
71F0
7F60
3CE0
00E0
E1C0
FFC0
3F00
ENDCHAR
STARTCHAR Hcircumflex
ENCODING 292
SWIDTH 813 0
DWIDTH 15 0
BBX 13 16 2 0
BITMAP
0380
06C0
0000
3838
3838
3838
3838
7070
7FF0
7FF0
7070
E0E0
E0E0
E0E0
E0E0
E0E0
ENDCHAR
STARTCHAR hcircumflex
ENCODING 293
SWIDTH 675 0
DWIDTH 13 0
BBX 12 17 1 0
BITMAP
0E00
1B00
0000
1C00
1C00
1C00
1C00
39E0
3BF0
3E70
7C70
78E0
70E0
70E0
E1C0
E1C0
E1C0
ENDCHAR
STARTCHAR Hbar
ENCODING 294
SWIDTH 813 0
DWIDTH 15 0
BBX 13 13 2 0
BITMAP
3838
3838
FFF8
FFF8
7070
7FF0
7FF0
7070
E0E0
E0E0
E0E0
E0E0
E0E0
ENDCHAR
STARTCHAR hbar
ENCODING 295
SWIDTH 675 0
DWIDTH 13 0
BBX 12 14 1 0
BITMAP
1C00
1C00
7C00
7C00
39E0
3BF0
3E70
7C70
78E0
70E0
70E0
E1C0
E1C0
E1C0
ENDCHAR
STARTCHAR Itilde
ENCODING 296
SWIDTH 361 0
DWIDTH 7 0
BBX 6 16 2 0
BITMAP
74
B8
00
38
38
38
38
70
70
70
70
E0
E0
E0
E0
E0
ENDCHAR
STARTCHAR itilde
ENCODING 297
SWIDTH 343 0
DWIDTH 6 0
BBX 6 13 1 0
BITMAP
74
B8
00
38
38
38
70
70
70
70
E0
E0
E0
ENDCHAR
STARTCHAR Imacron
ENCODING 298
SWIDTH 361 0
DWIDTH 7 0
BBX 5 16 2 0
BITMAP
78
78
00
38
38
38
38
70
70
70
70
E0
E0
E0
E0
E0
ENDCHAR
STARTCHAR imacron
ENCODING 299
SWIDTH 343 0
DWIDTH 6 0
BBX 5 13 1 0
BITMAP
78
78
00
38
38
38
70
70
70
70
E0
E0
E0
ENDCHAR
STARTCHAR Ibreve
ENCODING 300
SWIDTH 361 0
DWIDTH 7 0
BBX 6 17 2 0
BITMAP
44
7C
38
00
38
38
38
38
70
70
70
70
E0
E0
E0
E0
E0
ENDCHAR
STARTCHAR ibreve
ENCODING 301
SWIDTH 343 0
DWIDTH 6 0
BBX 6 14 1 0
BITMAP
44
7C
38
00
38
38
38
70
70
70
70
E0
E0
E0
ENDCHAR
STARTCHAR Iogonek
ENCODING 302
SWIDTH 361 0
DWIDTH 7 0
BBX 6 16 1 -3
BITMAP
1C
1C
1C
1C
38
38
38
38
70
70
70
70
70
70
E0
78
ENDCHAR
STARTCHAR iogonek
ENCODING 303
SWIDTH 343 0
DWIDTH 6 0
BBX 7 17 1 -3
BITMAP
0E
1C
00
00
38
38
38
70
70
70
70
E0
E0
E0
70
E0
78
ENDCHAR
STARTCHAR Idotaccent
ENCODING 304
SWIDTH 361 0
DWIDTH 7 0
BBX 5 16 2 0
BITMAP
38
38
00
38
38
38
38
70
70
70
70
E0
E0
E0
E0
E0
ENDCHAR
STARTCHAR dotlessi
ENCODING 305
SWIDTH 343 0
DWIDTH 6 0
BBX 5 10 1 0
BITMAP
38
38
38
70
70
70
70
E0
E0
E0
ENDCHAR
STARTCHAR IJ
ENCODING 306
SWIDTH 845 0
DWIDTH 16 0
BBX 14 15 2 -2
BITMAP
381C
381C
381C
381C
7038
7038
7038
7038
E038
E070
E070
E070
ECE0
0FE0
0780
ENDCHAR
STARTCHAR ij
ENCODING 307
SWIDTH 733 0
DWIDTH 13 0
BBX 14 17 1 -3
BITMAP
0E1C
1C38
0000
0000
3870
3870
3870
70E0
70E0
70E0
70E0
E1C0
E1C0
E1C0
1B80
1F80
0E00
ENDCHAR
STARTCHAR Jcircumflex
ENCODING 308
SWIDTH 502 0
DWIDTH 9 0
BBX 10 18 -1 -2
BITMAP
0380
06C0
0000
01C0
01C0
01C0
01C0
0380
0380
0380
0380
0380
0700
0700
0700
CE00
FE00
7800
ENDCHAR
STARTCHAR jcircumflex
ENCODING 309
SWIDTH 407 0
DWIDTH 7 0
BBX 11 16 -2 -3
BITMAP
0700
0D80
0000
0380
0380
0380
0700
0700
0700
0700
0E00
0E00
0E00
DC00
FC00
7000
ENDCHAR
STARTCHAR Kcommaaccent
ENCODING 310
SWIDTH 753 0
DWIDTH 14 0
BBX 12 18 2 -5
BITMAP
3870
38E0
39C0
3980
7300
7600
7C00
7E00
EF00
E780
E3C0
E1E0
E0E0
0000
0E00
0E00
0C00
1800
ENDCHAR
STARTCHAR kcommaaccent
ENCODING 311
SWIDTH 666 0
DWIDTH 12 0
BBX 11 19 1 -5
BITMAP
1C00
1C00
1C00
1C00
38E0
38E0
39C0
7300
7E00
7E00
7700
E780
E3C0
E1C0
0000
0E00
0E00
0C00
1800
ENDCHAR
STARTCHAR kgreenlandic
ENCODING 312
SWIDTH 666 0
DWIDTH 12 0
BBX 11 10 1 0
BITMAP
38E0
38E0
39C0
7300
7E00
7E00
7700
E780
E3C0
E1C0
ENDCHAR
STARTCHAR Lacute
ENCODING 313
SWIDTH 623 0
DWIDTH 11 0
BBX 9 16 2 0
BITMAP
1E00
3800
0000
3800
3800
3800
3800
7000
7000
7000
7000
E000
E000
E000
FF80
FF80
ENDCHAR
STARTCHAR lacute
ENCODING 314
SWIDTH 343 0
DWIDTH 6 0
BBX 7 17 1 0
BITMAP
1E
38
00
1C
1C
1C
1C
38
38
38
70
70
70
70
E0
E0
E0
ENDCHAR
STARTCHAR Lcommaaccent
ENCODING 315
SWIDTH 623 0
DWIDTH 11 0
BBX 9 18 2 -5
BITMAP
3800
3800
3800
3800
7000
7000
7000
7000
E000
E000
E000
FF80
FF80
0000
1C00
1C00
1800
3000
ENDCHAR
STARTCHAR lcommaaccent
ENCODING 316
SWIDTH 343 0
DWIDTH 6 0
BBX 6 19 1 -5
BITMAP
1C
1C
1C
1C
38
38
38
70
70
70
70
E0
E0
E0
00
70
70
60
C0
ENDCHAR
STARTCHAR Lcaron
ENCODING 317
SWIDTH 857 0
DWIDTH 15 0
BBX 14 14 2 0
BITMAP
001C
381C
3818
3830
3800
7000
7000
7000
7000
E000
E000
E000
FF80
FF80
ENDCHAR
STARTCHAR lcaron
ENCODING 318
SWIDTH 591 0
DWIDTH 11 0
BBX 11 14 1 0
BITMAP
1CE0
1CE0
1CC0
1D80
3800
3800
3800
7000
7000
7000
7000
E000
E000
E000
ENDCHAR
STARTCHAR Ldot
ENCODING 319
SWIDTH 935 0
DWIDTH 23 0
BBX 17 13 2 0
BITMAP
380000
380000
380000
380000
700000
700000
700380
700380
E00380
E00000
E00000
FF8000
FF8000
ENDCHAR
STARTCHAR ldot
ENCODING 320
SWIDTH 669 0
DWIDTH 19 0
BBX 14 14 1 0
BITMAP
1C00
1C00
1C00
1C00
3800
3800
3800
701C
701C
701C
7000
E000
E000
E000
ENDCHAR
STARTCHAR Lslash
ENCODING 321
SWIDTH 623 0
DWIDTH 12 0
BBX 11 13 1 0
BITMAP
0E00
0E00
0E00
0E00
1D80
1F80
FC00
D800
3800
3800
3800
3FE0
3FE0
ENDCHAR
STARTCHAR lslash
ENCODING 322
SWIDTH 343 0
DWIDTH 7 0
BBX 8 14 0 0
BITMAP
0E
0E
0E
0E
1C
1F
FF
F8
38
38
38
70
70
70
ENDCHAR
STARTCHAR Nacute
ENCODING 323
SWIDTH 789 0
DWIDTH 15 0
BBX 13 16 2 0
BITMAP
03C0
0700
0000
3818
3C18
3C18
3E18
3E18
6730
6730
63B0
63F0
C1E0
C1E0
C0E0
C0E0
ENDCHAR
STARTCHAR nacute
ENCODING 324
SWIDTH 675 0
DWIDTH 13 0
BBX 12 13 1 0
BITMAP
03C0
0700
0000
39E0
3BF0
3E70
3C70
78E0
70E0
70E0
E1C0
E1C0
E1C0
ENDCHAR
STARTCHAR Ncommaaccent
ENCODING 325
SWIDTH 789 0
DWIDTH 15 0
BBX 13 18 2 -5
BITMAP
3818
3C18
3C18
3E18
3E18
6730
6730
63B0
63F0
C1E0
C1E0
C0E0
C0E0
0000
0700
0700
0600
0C00
ENDCHAR
STARTCHAR ncommaaccent
ENCODING 326
SWIDTH 675 0
DWIDTH 13 0
BBX 12 15 1 -5
BITMAP
39E0
3BF0
3E70
3C70
78E0
70E0
70E0
E1C0
E1C0
E1C0
0000
0E00
0E00
0C00
1800
ENDCHAR
STARTCHAR Ncaron
ENCODING 327
SWIDTH 789 0
DWIDTH 15 0
BBX 13 16 2 0
BITMAP
0D80
0700
0000
3818
3C18
3C18
3E18
3E18
6730
6730
63B0
63F0
C1E0
C1E0
C0E0
C0E0
ENDCHAR
STARTCHAR ncaron
ENCODING 328
SWIDTH 675 0
DWIDTH 13 0
BBX 12 13 1 0
BITMAP
0D80
0700
0000
39E0
3BF0
3E70
3C70
78E0
70E0
70E0
E1C0
E1C0
E1C0
ENDCHAR
STARTCHAR napostrophe
ENCODING 329
SWIDTH 927 0
DWIDTH 18 0
BBX 16 14 2 0
BITMAP
7000
7000
6000
C000
039E
03BF
03E7
03C7
078E
070E
070E
0E1C
0E1C
0E1C
ENDCHAR
STARTCHAR Eng
ENCODING 330
SWIDTH 789 0
DWIDTH 15 0
BBX 13 16 2 -3
BITMAP
3818
3C18
3C18
3E18
3E18
6730
6730
63B0
63F0
C1E0
C1E0
C1E0
C1E0
1B80
1F80
0E00
ENDCHAR
STARTCHAR eng
ENCODING 331
SWIDTH 675 0
DWIDTH 13 0
BBX 12 13 1 -3
BITMAP
39E0
3BF0
3E70
3C70
78E0
70E0
70E0
E1C0
E1C0
E1C0
1B80
1F80
0E00
ENDCHAR
STARTCHAR Omacron
ENCODING 332
SWIDTH 855 0
DWIDTH 16 0
BBX 14 16 2 0
BITMAP
0780
0780
0000
07E0
1FF8
3C38
701C
701C
E01C
E01C
E01C
E038
E038
70F0
7FE0
1F80
ENDCHAR
STARTCHAR omacron
ENCODING 333
SWIDTH 663 0
DWIDTH 12 0
BBX 11 13 1 0
BITMAP
0F00
0F00
0000
07C0
1FE0
38E0
70E0
70E0
E1C0
E1C0
E380
FF00
7C00
ENDCHAR
STARTCHAR Obreve
ENCODING 334
SWIDTH 855 0
DWIDTH 16 0
BBX 14 17 2 0
BITMAP
0440
07C0
0380
0000
07E0
1FF8
3C38
701C
701C
E01C
E01C
E01C
E038
E038
70F0
7FE0
1F80
ENDCHAR
STARTCHAR obreve
ENCODING 335
SWIDTH 663 0
DWIDTH 12 0
BBX 11 14 1 0
BITMAP
0880
0F80
0700
0000
07C0
1FE0
38E0
70E0
70E0
E1C0
E1C0
E380
FF00
7C00
ENDCHAR
STARTCHAR Ohungarumlaut
ENCODING 336
SWIDTH 855 0
DWIDTH 16 0
BBX 14 17 2 0
BITMAP
0240
06C0
0480
0000
07E0
1FF8
3C38
701C
701C
E01C
E01C
E01C
E038
E038
70F0
7FE0
1F80
ENDCHAR
STARTCHAR ohungarumlaut
ENCODING 337
SWIDTH 663 0
DWIDTH 12 0
BBX 11 14 1 0
BITMAP
0480
0D80
0900
0000
07C0
1FE0
38E0
70E0
70E0
E1C0
E1C0
E380
FF00
7C00
ENDCHAR
STARTCHAR OE
ENCODING 338
SWIDTH 1103 0
DWIDTH 20 0
BBX 18 13 2 0
BITMAP
07FFC0
1FFFC0
3C3800
703800
707000
E07F00
E07F00
E07000
E0E000
E0E000
70E000
7FFF00
1FFF00
ENDCHAR
STARTCHAR oe
ENCODING 339
SWIDTH 1004 0
DWIDTH 18 0
BBX 17 10 1 0
BITMAP
079F00
1FFF80
38E380
70E380
70FF00
E1FC00
E1C000
E3C300
FFFF00
7CFE00
ENDCHAR
STARTCHAR Racute
ENCODING 340
SWIDTH 708 0
DWIDTH 13 0
BBX 11 16 2 0
BITMAP
0780
0E00
0000
3FC0
3FE0
38E0
38E0
71C0
7F80
7E00
7700
E700
E380
E380
E1C0
E1C0
ENDCHAR
STARTCHAR racute
ENCODING 341
SWIDTH 542 0
DWIDTH 10 0
BBX 9 13 1 0
BITMAP
0F00
1C00
0000
3980
3B80
3F80
7C00
7800
7000
7000
E000
E000
E000
ENDCHAR
STARTCHAR Rcommaaccent
ENCODING 342
SWIDTH 708 0
DWIDTH 13 0
BBX 11 18 2 -5
BITMAP
3FC0
3FE0
38E0
38E0
71C0
7F80
7E00
7700
E700
E380
E380
E1C0
E1C0
0000
0E00
0E00
0C00
1800
ENDCHAR
STARTCHAR rcommaaccent
ENCODING 343
SWIDTH 542 0
DWIDTH 10 0
BBX 9 15 1 -5
BITMAP
3980
3B80
3F80
7C00
7800
7000
7000
E000
E000
E000
0000
7000
7000
6000
C000
ENDCHAR
STARTCHAR Rcaron
ENCODING 344
SWIDTH 708 0
DWIDTH 13 0
BBX 11 16 2 0
BITMAP
0D80
0700
0000
3FC0
3FE0
38E0
38E0
71C0
7F80
7E00
7700
E700
E380
E380
E1C0
E1C0
ENDCHAR
STARTCHAR rcaron
ENCODING 345
SWIDTH 542 0
DWIDTH 10 0
BBX 9 13 1 0
BITMAP
1B00
0E00
0000
3980
3B80
3F80
7C00
7800
7000
7000
E000
E000
E000
ENDCHAR
STARTCHAR Sacute
ENCODING 346
SWIDTH 639 0
DWIDTH 12 0
BBX 11 16 1 0
BITMAP
0780
0E00
0000
07C0
1FE0
3C60
3800
3C00
1E00
0F00
0780
0380
0380
C780
FF00
7C00
ENDCHAR
STARTCHAR sacute
ENCODING 347
SWIDTH 527 0
DWIDTH 11 0
BBX 10 13 1 0
BITMAP
0780
0E00
0000
1F80
3FC0
70C0
7800
3E00
1F00
0780
C380
FF00
7E00
ENDCHAR
STARTCHAR Scircumflex
ENCODING 348
SWIDTH 639 0
DWIDTH 12 0
BBX 11 16 1 0
BITMAP
0700
0D80
0000
07C0
1FE0
3C60
3800
3C00
1E00
0F00
0780
0380
0380
C780
FF00
7C00
ENDCHAR
STARTCHAR scircumflex
ENCODING 349
SWIDTH 527 0
DWIDTH 11 0
BBX 10 13 1 0
BITMAP
0E00
1B00
0000
1F80
3FC0
70C0
7800
3E00
1F00
0780
C380
FF00
7E00
ENDCHAR
STARTCHAR Scedilla
ENCODING 350
SWIDTH 639 0
DWIDTH 12 0
BBX 11 16 1 -3
BITMAP
07C0
1FE0
3C60
3800
3C00
1E00
0F00
0780
0380
0380
C780
FF00
7C00
1C00
0E00
3C00
ENDCHAR
STARTCHAR scedilla
ENCODING 351
SWIDTH 527 0
DWIDTH 11 0
BBX 10 13 1 -3
BITMAP
1F80
3FC0
70C0
7800
3E00
1F00
0780
C380
FF00
7E00
1C00
0E00
3C00
ENDCHAR
STARTCHAR Scaron
ENCODING 352
SWIDTH 639 0
DWIDTH 12 0
BBX 11 16 1 0
BITMAP
06C0
0380
0000
07C0
1FE0
3C60
3800
3C00
1E00
0F00
0780
0380
0380
C780
FF00
7C00
ENDCHAR
STARTCHAR scaron
ENCODING 353
SWIDTH 527 0
DWIDTH 11 0
BBX 10 13 1 0
BITMAP
1B00
0E00
0000
1F80
3FC0
70C0
7800
3E00
1F00
0780
C380
FF00
7E00
ENDCHAR
STARTCHAR Tcommaaccent
ENCODING 354
SWIDTH 747 0
DWIDTH 14 0
BBX 13 16 2 -3
BITMAP
FFF8
FFF8
0700
0700
0E00
0E00
0E00
0E00
1C00
1C00
1C00
1C00
1C00
0E00
0700
1E00
ENDCHAR
STARTCHAR tcommaaccent
ENCODING 355
SWIDTH 437 0
DWIDTH 8 0
BBX 7 15 2 -3
BITMAP
18
38
FE
FE
70
70
70
E0
E0
E0
F8
78
70
38
F0
ENDCHAR
STARTCHAR Tcaron
ENCODING 356
SWIDTH 747 0
DWIDTH 14 0
BBX 13 16 2 0
BITMAP
0D80
0700
0000
FFF8
FFF8
0700
0700
0E00
0E00
0E00
0E00
1C00
1C00
1C00
1C00
1C00
ENDCHAR
STARTCHAR tcaron
ENCODING 357
SWIDTH 680 0
DWIDTH 13 0
BBX 12 14 2 0
BITMAP
0070
0070
1860
38C0
FE00
FE00
7000
7000
7000
E000
E000
E000
F800
7800
ENDCHAR
STARTCHAR Tbar
ENCODING 358
SWIDTH 747 0
DWIDTH 14 0
BBX 13 13 2 0
BITMAP
FFF8
FFF8
0700
0700
0E00
0F80
0F80
0E00
1C00
1C00
1C00
1C00
1C00
ENDCHAR
STARTCHAR tbar
ENCODING 359
SWIDTH 437 0
DWIDTH 8 0
BBX 7 12 2 0
BITMAP
18
38
FE
FE
70
70
7C
FC
E0
E0
F8
78
ENDCHAR
STARTCHAR Utilde
ENCODING 360
SWIDTH 759 0
DWIDTH 14 0
BBX 13 16 2 0
BITMAP
0740
0B80
0000
3818
3818
3818
3818
7030
7030
7030
7060
E060
E0E0
F1C0
7F80
3E00
ENDCHAR
STARTCHAR utilde
ENCODING 361
SWIDTH 675 0
DWIDTH 13 0
BBX 12 13 1 0
BITMAP
0740
0B80
0000
3870
3870
3870
70E0
70E0
71E0
E3C0
E7C0
FDC0
79C0
ENDCHAR
STARTCHAR Umacron
ENCODING 362
SWIDTH 759 0
DWIDTH 14 0
BBX 13 16 2 0
BITMAP
0780
0780
0000
3818
3818
3818
3818
7030
7030
7030
7060
E060
E0E0
F1C0
7F80
3E00
ENDCHAR
STARTCHAR umacron
ENCODING 363
SWIDTH 675 0
DWIDTH 13 0
BBX 12 13 1 0
BITMAP
0780
0780
0000
3870
3870
3870
70E0
70E0
71E0
E3C0
E7C0
FDC0
79C0
ENDCHAR
STARTCHAR Ubreve
ENCODING 364
SWIDTH 759 0
DWIDTH 14 0
BBX 13 17 2 0
BITMAP
0880
0F80
0700
0000
3818
3818
3818
3818
7030
7030
7030
7060
E060
E0E0
F1C0
7F80
3E00
ENDCHAR
STARTCHAR ubreve
ENCODING 365
SWIDTH 675 0
DWIDTH 13 0
BBX 12 14 1 0
BITMAP
0880
0F80
0700
0000
3870
3870
3870
70E0
70E0
71E0
E3C0
E7C0
FDC0
79C0
ENDCHAR
STARTCHAR Uring
ENCODING 366
SWIDTH 759 0
DWIDTH 14 0
BBX 13 17 2 0
BITMAP
0700
0D80
0700
0000
3818
3818
3818
3818
7030
7030
7030
7060
E060
E0E0
F1C0
7F80
3E00
ENDCHAR
STARTCHAR uring
ENCODING 367
SWIDTH 675 0
DWIDTH 13 0
BBX 12 14 1 0
BITMAP
0700
0D80
0700
0000
3870
3870
3870
70E0
70E0
71E0
E3C0
E7C0
FDC0
79C0
ENDCHAR
STARTCHAR Uhungarumlaut
ENCODING 368
SWIDTH 759 0
DWIDTH 14 0
BBX 13 17 2 0
BITMAP
0240
06C0
0480
0000
3818
3818
3818
3818
7030
7030
7030
7060
E060
E0E0
F1C0
7F80
3E00
ENDCHAR
STARTCHAR uhungarumlaut
ENCODING 369
SWIDTH 675 0
DWIDTH 13 0
BBX 12 14 1 0
BITMAP
0240
06C0
0480
0000
3870
3870
3870
70E0
70E0
71E0
E3C0
E7C0
FDC0
79C0
ENDCHAR
STARTCHAR Uogonek
ENCODING 370
SWIDTH 759 0
DWIDTH 14 0
BBX 13 16 2 -3
BITMAP
3818
3818
3818
3818
7030
7030
7030
7060
E060
E0E0
F1C0
7F80
3E00
0E00
1C00
0F00
ENDCHAR
STARTCHAR uogonek
ENCODING 371
SWIDTH 675 0
DWIDTH 13 0
BBX 12 13 1 -3
BITMAP
3870
3870
3870
70E0
70E0
71E0
E3C0
E7C0
FDC0
79C0
0E00
1C00
0F00
ENDCHAR
STARTCHAR Wcircumflex
ENCODING 372
SWIDTH 991 0
DWIDTH 18 0
BBX 16 16 3 0
BITMAP
0380
06C0
0000
E1C7
E1C7
E3C7
E3C6
E7CE
E7CC
EDD8
E9D8
F9F0
F1E0
F1E0
E1C0
E1C0
ENDCHAR
STARTCHAR wcircumflex
ENCODING 373
SWIDTH 878 0
DWIDTH 16 0
BBX 15 13 2 0
BITMAP
0380
06C0
0000
E00E
E38E
E38E
E79C
E798
EFB0
FBE0
F3C0
E380
C300
ENDCHAR
STARTCHAR Ycircumflex
ENCODING 374
SWIDTH 681 0
DWIDTH 12 0
BBX 11 16 3 0
BITMAP
0E00
1B00
0000
E0E0
E0E0
E1C0
F380
7300
7600
3C00
3800
3800
7000
7000
7000
7000
ENDCHAR
STARTCHAR ycircumflex
ENCODING 375
SWIDTH 633 0
DWIDTH 12 0
BBX 13 16 0 -3
BITMAP
0380
06C0
0000
1C38
1C38
1C70
1C60
1CE0
1CC0
1D80
1F00
1E00
1C00
3800
F000
E000
ENDCHAR
STARTCHAR Ydieresis
ENCODING 376
SWIDTH 681 0
DWIDTH 12 0
BBX 11 16 3 0
BITMAP
1980
1980
0000
E0E0
E0E0
E1C0
F380
7300
7600
3C00
3800
3800
7000
7000
7000
7000
ENDCHAR
STARTCHAR Zacute
ENCODING 377
SWIDTH 687 0
DWIDTH 13 0
BBX 12 16 1 0
BITMAP
03C0
0700
0000
3FF0
3FF0
00F0
01E0
03C0
0780
0F00
1E00
3C00
7800
F000
FFC0
FFC0
ENDCHAR
STARTCHAR zacute
ENCODING 378
SWIDTH 630 0
DWIDTH 12 0
BBX 11 13 1 0
BITMAP
0780
0E00
0000
7FE0
7FE0
03C0
0780
0F00
1E00
3C00
7800
FFC0
FFC0
ENDCHAR
STARTCHAR Zdotaccent
ENCODING 379
SWIDTH 687 0
DWIDTH 13 0
BBX 12 16 1 0
BITMAP
0380
0380
0000
3FF0
3FF0
00F0
01E0
03C0
0780
0F00
1E00
3C00
7800
F000
FFC0
FFC0
ENDCHAR
STARTCHAR zdotaccent
ENCODING 380
SWIDTH 630 0
DWIDTH 12 0
BBX 11 13 1 0
BITMAP
0700
0700
0000
7FE0
7FE0
03C0
0780
0F00
1E00
3C00
7800
FFC0
FFC0
ENDCHAR
STARTCHAR Zcaron
ENCODING 381
SWIDTH 687 0
DWIDTH 13 0
BBX 12 16 1 0
BITMAP
06C0
0380
0000
3FF0
3FF0
00F0
01E0
03C0
0780
0F00
1E00
3C00
7800
F000
FFC0
FFC0
ENDCHAR
STARTCHAR zcaron
ENCODING 382
SWIDTH 630 0
DWIDTH 12 0
BBX 11 13 1 0
BITMAP
0D80
0700
0000
7FE0
7FE0
03C0
0780
0F00
1E00
3C00
7800
FFC0
FFC0
ENDCHAR
STARTCHAR uni0186
ENCODING 390
SWIDTH 737 0
DWIDTH 14 0
BBX 13 13 2 0
BITMAP
0FC0
3FF0
3070
0038
0038
0038
0038
0038
0070
0070
E1E0
FFC0
3F00
ENDCHAR
STARTCHAR uni0189
ENCODING 393
SWIDTH 822 0
DWIDTH 15 0
BBX 14 13 1 0
BITMAP
1FE0
1FF8
1C38
1C1C
381C
FF9C
FF9C
381C
7038
7038
70F0
7FE0
7F80
ENDCHAR
STARTCHAR uni018E
ENCODING 398
SWIDTH 642 0
DWIDTH 12 0
BBX 10 13 2 0
BITMAP
3FC0
3FC0
01C0
01C0
01C0
0380
3F80
3F80
0380
0700
0700
FF00
FF00
ENDCHAR
STARTCHAR florin
ENCODING 402
SWIDTH 687 0
DWIDTH 13 0
BBX 12 15 2 -2
BITMAP
01E0
07F0
0E30
0E00
1C00
FFC0
FFC0
3800
3800
7000
7000
7000
E000
E000
E000
ENDCHAR
STARTCHAR uni0197
ENCODING 407
SWIDTH 361 0
DWIDTH 7 0
BBX 5 13 2 0
BITMAP
38
38
38
38
70
F8
F8
70
E0
E0
E0
E0
E0
ENDCHAR
STARTCHAR uni019A
ENCODING 410
SWIDTH 343 0
DWIDTH 6 0
BBX 6 14 1 0
BITMAP
1C
1C
1C
1C
38
38
7C
7C
70
70
70
E0
E0
E0
ENDCHAR
STARTCHAR uni019D
ENCODING 413
SWIDTH 789 0
DWIDTH 15 0
BBX 18 16 -3 -3
BITMAP
01C0C0
01E0C0
01E0C0
01F0C0
01F0C0
033980
033980
031D80
031F80
070F00
0E0F00
0E0700
0E0700
DC0000
FC0000
700000
ENDCHAR
STARTCHAR uni019F
ENCODING 415
SWIDTH 855 0
DWIDTH 16 0
BBX 14 13 2 0
BITMAP
07E0
1FF8
3C38
701C
701C
FFFC
FFFC
E01C
E038
E038
70F0
7FE0
1F80
ENDCHAR
STARTCHAR Ohorn
ENCODING 416
SWIDTH 855 0
DWIDTH 16 0
BBX 17 13 2 0
BITMAP
07E380
1FFB80
3C3B00
701E00
701C00
E01C00
E01C00
E01C00
E03800
E03800
70F000
7FE000
1F8000
ENDCHAR
STARTCHAR ohorn
ENCODING 417
SWIDTH 663 0
DWIDTH 12 0
BBX 14 10 1 0
BITMAP
07DC
1FFC
38F8
70F0
70E0
E1C0
E1C0
E380
FF00
7C00
ENDCHAR
STARTCHAR Uhorn
ENCODING 431
SWIDTH 759 0
DWIDTH 14 0
BBX 16 13 2 0
BITMAP
381F
381F
381E
381C
7030
7030
7030
7060
E060
E0E0
F1C0
7F80
3E00
ENDCHAR
STARTCHAR uhorn
ENCODING 432
SWIDTH 675 0
DWIDTH 13 0
BBX 15 10 1 0
BITMAP
387E
387E
387C
70F8
70E0
71E0
E3C0
E7C0
FDC0
79C0
ENDCHAR
STARTCHAR uni01B5
ENCODING 437
SWIDTH 687 0
DWIDTH 13 0
BBX 12 13 1 0
BITMAP
3FF0
3FF0
00F0
01E0
03C0
0F80
0F80
1E00
3C00
7800
F000
FFC0
FFC0
ENDCHAR
STARTCHAR uni01B6
ENCODING 438
SWIDTH 630 0
DWIDTH 12 0
BBX 11 10 1 0
BITMAP
7FE0
7FE0
03C0
0780
1F00
1F00
3C00
7800
FFC0
FFC0
ENDCHAR
STARTCHAR uni01BB
ENCODING 443
SWIDTH 687 0
DWIDTH 13 0
BBX 10 13 2 0
BITMAP
1F80
3FC0
31C0
01C0
03C0
FFC0
FFC0
1E00
3800
7000
FF80
FF80
FF80
ENDCHAR
STARTCHAR uni01BC
ENCODING 444
SWIDTH 687 0
DWIDTH 13 0
BBX 11 13 2 0
BITMAP
1FE0
1FE0
1FE0
3000
3000
3E00
3F00
0780
0380
0380
C780
FF00
7C00
ENDCHAR
STARTCHAR uni01C0
ENCODING 448
SWIDTH 259 0
DWIDTH 7 0
BBX 5 16 2 -2
BITMAP
38
38
38
38
30
70
70
70
70
70
70
60
E0
E0
E0
E0
ENDCHAR
STARTCHAR uni01C2
ENCODING 450
SWIDTH 687 0
DWIDTH 13 0
BBX 12 16 1 -2
BITMAP
0380
0380
0380
0380
0300
7FF0
7FF0
0700
0700
FFE0
FFE0
0600
0E00
0E00
0E00
0E00
ENDCHAR
STARTCHAR uni01C3
ENCODING 451
SWIDTH 343 0
DWIDTH 5 0
BBX 5 13 1 0
BITMAP
38
38
38
38
70
70
70
60
60
00
00
E0
E0
ENDCHAR
STARTCHAR uni01CD
ENCODING 461
SWIDTH 771 0
DWIDTH 14 0
BBX 12 16 1 0
BITMAP
06C0
0380
0000
01C0
03C0
03C0
06E0
0CE0
0CE0
18E0
18E0
3FF0
7FF0
6070
E070
E070
ENDCHAR
STARTCHAR uni01CE
ENCODING 462
SWIDTH 681 0
DWIDTH 13 0
BBX 12 13 1 0
BITMAP
06C0
0380
0000
07F0
1FF0
3870
70E0
70E0
E1E0
E3C0
E7C0
FDC0
79C0
ENDCHAR
STARTCHAR uni01CF
ENCODING 463
SWIDTH 361 0
DWIDTH 7 0
BBX 6 16 2 0
BITMAP
6C
38
00
38
38
38
38
70
70
70
70
E0
E0
E0
E0
E0
ENDCHAR
STARTCHAR uni01D0
ENCODING 464
SWIDTH 343 0
DWIDTH 6 0
BBX 6 13 1 0
BITMAP
6C
38
00
38
38
38
70
70
70
70
E0
E0
E0
ENDCHAR
STARTCHAR uni01D1
ENCODING 465
SWIDTH 855 0
DWIDTH 16 0
BBX 14 16 2 0
BITMAP
06C0
0380
0000
07E0
1FF8
3C38
701C
701C
E01C
E01C
E01C
E038
E038
70F0
7FE0
1F80
ENDCHAR
STARTCHAR uni01D2
ENCODING 466
SWIDTH 663 0
DWIDTH 12 0
BBX 11 13 1 0
BITMAP
0D80
0700
0000
07C0
1FE0
38E0
70E0
70E0
E1C0
E1C0
E380
FF00
7C00
ENDCHAR
STARTCHAR uni01D3
ENCODING 467
SWIDTH 759 0
DWIDTH 14 0
BBX 13 16 2 0
BITMAP
0D80
0700
0000
3818
3818
3818
3818
7030
7030
7030
7060
E060
E0E0
F1C0
7F80
3E00
ENDCHAR
STARTCHAR uni01D4
ENCODING 468
SWIDTH 675 0
DWIDTH 13 0
BBX 12 13 1 0
BITMAP
0D80
0700
0000
3870
3870
3870
70E0
70E0
71E0
E3C0
E7C0
FDC0
79C0
ENDCHAR
STARTCHAR uni01D5
ENCODING 469
SWIDTH 759 0
DWIDTH 14 0
BBX 13 19 2 0
BITMAP
0780
0780
0000
0660
0660
0000
3818
3818
3818
3818
7030
7030
7030
7060
E060
E0E0
F1C0
7F80
3E00
ENDCHAR
STARTCHAR uni01D6
ENCODING 470
SWIDTH 675 0
DWIDTH 13 0
BBX 12 16 1 0
BITMAP
0780
0780
0000
0CC0
0CC0
0000
3870
3870
3870
70E0
70E0
71E0
E3C0
E7C0
FDC0
79C0
ENDCHAR
STARTCHAR uni01D7
ENCODING 471
SWIDTH 759 0
DWIDTH 14 0
BBX 13 19 2 0
BITMAP
03C0
0700
0000
0660
0660
0000
3818
3818
3818
3818
7030
7030
7030
7060
E060
E0E0
F1C0
7F80
3E00
ENDCHAR
STARTCHAR uni01D8
ENCODING 472
SWIDTH 675 0
DWIDTH 13 0
BBX 12 16 1 0
BITMAP
03C0
0700
0000
0CC0
0CC0
0000
3870
3870
3870
70E0
70E0
71E0
E3C0
E7C0
FDC0
79C0
ENDCHAR
STARTCHAR uni01D9
ENCODING 473
SWIDTH 759 0
DWIDTH 14 0
BBX 13 19 2 0
BITMAP
06C0
0380
0000
0660
0660
0000
3818
3818
3818
3818
7030
7030
7030
7060
E060
E0E0
F1C0
7F80
3E00
ENDCHAR
STARTCHAR uni01DA
ENCODING 474
SWIDTH 675 0
DWIDTH 13 0
BBX 12 16 1 0
BITMAP
0D80
0700
0000
0CC0
0CC0
0000
3870
3870
3870
70E0
70E0
71E0
E3C0
E7C0
FDC0
79C0
ENDCHAR
STARTCHAR uni01DB
ENCODING 475
SWIDTH 759 0
DWIDTH 14 0
BBX 13 19 2 0
BITMAP
0F00
0380
0000
0660
0660
0000
3818
3818
3818
3818
7030
7030
7030
7060
E060
E0E0
F1C0
7F80
3E00
ENDCHAR
STARTCHAR uni01DC
ENCODING 476
SWIDTH 675 0
DWIDTH 13 0
BBX 12 16 1 0
BITMAP
0F00
0380
0000
0CC0
0CC0
0000
3870
3870
3870
70E0
70E0
71E0
E3C0
E7C0
FDC0
79C0
ENDCHAR
STARTCHAR uni01DD
ENCODING 477
SWIDTH 612 0
DWIDTH 11 0
BBX 10 10 1 0
BITMAP
1F80
7FC0
61C0
01C0
1FC0
7F80
E380
E700
FE00
7800
ENDCHAR
STARTCHAR uni01DE
ENCODING 478
SWIDTH 771 0
DWIDTH 14 0
BBX 12 19 1 0
BITMAP
0780
0780
0000
0660
0660
0000
01C0
03C0
03C0
06E0
0CE0
0CE0
18E0
18E0
3FF0
7FF0
6070
E070
E070
ENDCHAR
STARTCHAR uni01DF
ENCODING 479
SWIDTH 681 0
DWIDTH 13 0
BBX 12 16 1 0
BITMAP
0780
0780
0000
0660
0660
0000
07F0
1FF0
3870
70E0
70E0
E1E0
E3C0
E7C0
FDC0
79C0
ENDCHAR
STARTCHAR uni01E0
ENCODING 480
SWIDTH 771 0
DWIDTH 14 0
BBX 12 19 1 0
BITMAP
0780
0780
0000
0380
0380
0000
01C0
03C0
03C0
06E0
0CE0
0CE0
18E0
18E0
3FF0
7FF0
6070
E070
E070
ENDCHAR
STARTCHAR uni01E1
ENCODING 481
SWIDTH 681 0
DWIDTH 13 0
BBX 12 16 1 0
BITMAP
0780
0780
0000
0380
0380
0000
07F0
1FF0
3870
70E0
70E0
E1E0
E3C0
E7C0
FDC0
79C0
ENDCHAR
STARTCHAR uni01E2
ENCODING 482
SWIDTH 1004 0
DWIDTH 18 0
BBX 17 16 1 0
BITMAP
00F000
00F000
000000
00FF80
01FF80
037000
067000
0CE000
1CFE00
18FE00
30E000
7FC000
7FC000
E1C000
E1FE00
E1FE00
ENDCHAR
STARTCHAR uni01E3
ENCODING 483
SWIDTH 987 0
DWIDTH 18 0
BBX 17 13 1 0
BITMAP
00F000
00F000
000000
07DF00
1FFF80
386380
70E380
71FF00
E3FC00
E7C000
EDC300
F9FF00
70FE00
ENDCHAR
STARTCHAR uni01E4
ENCODING 484
SWIDTH 755 0
DWIDTH 14 0
BBX 14 13 2 0
BITMAP
07E0
1FF8
3C38
7000
7000
E000
E000
E070
E07C
E07C
70E0
7FE0
1FE0
ENDCHAR
STARTCHAR uni01E5
ENCODING 485
SWIDTH 674 0
DWIDTH 13 0
BBX 13 13 0 -3
BITMAP
03F8
0FF8
1C38
3870
3870
70F0
71F0
7F60
FFF8
FFF8
E1C0
FFC0
3F00
ENDCHAR
STARTCHAR Gcaron
ENCODING 486
SWIDTH 755 0
DWIDTH 14 0
BBX 13 16 2 0
BITMAP
0D80
0700
0000
07E0
1FF8
3C38
7000
7000
E000
E000
E070
E070
E070
70E0
7FE0
1FE0
ENDCHAR
STARTCHAR gcaron
ENCODING 487
SWIDTH 674 0
DWIDTH 13 0
BBX 13 16 0 -3
BITMAP
06C0
0380
0000
03F8
0FF8
1C38
3870
3870
70F0
71F0
7F60
3CE0
00E0
E1C0
FFC0
3F00
ENDCHAR
STARTCHAR uni01E8
ENCODING 488
SWIDTH 753 0
DWIDTH 14 0
BBX 12 16 2 0
BITMAP
0D80
0700
0000
3870
38E0
39C0
3980
7300
7600
7C00
7E00
EF00
E780
E3C0
E1E0
E0E0
ENDCHAR
STARTCHAR uni01E9
ENCODING 489
SWIDTH 666 0
DWIDTH 12 0
BBX 11 17 1 0
BITMAP
3600
1C00
0000
1C00
1C00
1C00
1C00
38E0
38E0
39C0
7300
7E00
7E00
7700
E780
E3C0
E1C0
ENDCHAR
STARTCHAR uni01EA
ENCODING 490
SWIDTH 855 0
DWIDTH 16 0
BBX 14 16 2 -3
BITMAP
07E0
1FF8
3C38
701C
701C
E01C
E01C
E01C
E038
E038
70F0
7FE0
1F80
0700
0E00
0780
ENDCHAR
STARTCHAR uni01EB
ENCODING 491
SWIDTH 663 0
DWIDTH 12 0
BBX 11 13 1 -3
BITMAP
07C0
1FE0
38E0
70E0
70E0
E1C0
E1C0
E380
FF00
7C00
1C00
3800
1E00
ENDCHAR
STARTCHAR uni01EC
ENCODING 492
SWIDTH 855 0
DWIDTH 16 0
BBX 14 19 2 -3
BITMAP
0780
0780
0000
07E0
1FF8
3C38
701C
701C
E01C
E01C
E01C
E038
E038
70F0
7FE0
1F80
0700
0E00
0780
ENDCHAR
STARTCHAR uni01ED
ENCODING 493
SWIDTH 663 0
DWIDTH 12 0
BBX 11 16 1 -3
BITMAP
0F00
0F00
0000
07C0
1FE0
38E0
70E0
70E0
E1C0
E1C0
E380
FF00
7C00
1C00
3800
1E00
ENDCHAR
STARTCHAR uni01F0
ENCODING 496
SWIDTH 407 0
DWIDTH 7 0
BBX 11 16 -2 -3
BITMAP
0D80
0700
0000
0380
0380
0380
0700
0700
0700
0700
0E00
0E00
0E00
DC00
FC00
7000
ENDCHAR
STARTCHAR uni01F4
ENCODING 500
SWIDTH 755 0
DWIDTH 14 0
BBX 13 16 2 0
BITMAP
03C0
0700
0000
07E0
1FF8
3C38
7000
7000
E000
E000
E070
E070
E070
70E0
7FE0
1FE0
ENDCHAR
STARTCHAR uni01F5
ENCODING 501
SWIDTH 674 0
DWIDTH 13 0
BBX 13 16 0 -3
BITMAP
01E0
0380
0000
03F8
0FF8
1C38
3870
3870
70F0
71F0
7F60
3CE0
00E0
E1C0
FFC0
3F00
ENDCHAR
STARTCHAR uni01F8
ENCODING 504
SWIDTH 789 0
DWIDTH 15 0
BBX 13 16 2 0
BITMAP
1E00
0700
0000
3818
3C18
3C18
3E18
3E18
6730
6730
63B0
63F0
C1E0
C1E0
C0E0
C0E0
ENDCHAR
STARTCHAR uni01F9
ENCODING 505
SWIDTH 675 0
DWIDTH 13 0
BBX 12 13 1 0
BITMAP
1E00
0700
0000
39E0
3BF0
3E70
3C70
78E0
70E0
70E0
E1C0
E1C0
E1C0
ENDCHAR
STARTCHAR Aringacute
ENCODING 506
SWIDTH 771 0
DWIDTH 14 0
BBX 12 19 1 0
BITMAP
01E0
0380
0000
01C0
0360
01C0
01C0
03C0
03C0
06E0
0CE0
0CE0
18E0
18E0
3FF0
7FF0
6070
E070
E070
ENDCHAR
STARTCHAR aringacute
ENCODING 507
SWIDTH 681 0
DWIDTH 13 0
BBX 12 17 1 0
BITMAP
01E0
0380
0000
01C0
0360
01C0
0000
07F0
1FF0
3870
70E0
70E0
E1E0
E3C0
E7C0
FDC0
79C0
ENDCHAR
STARTCHAR AEacute
ENCODING 508
SWIDTH 1004 0
DWIDTH 18 0
BBX 17 16 1 0
BITMAP
007800
00E000
000000
00FF80
01FF80
037000
067000
0CE000
1CFE00
18FE00
30E000
7FC000
7FC000
E1C000
E1FE00
E1FE00
ENDCHAR
STARTCHAR aeacute
ENCODING 509
SWIDTH 987 0
DWIDTH 18 0
BBX 17 13 1 0
BITMAP
007800
00E000
000000
07DF00
1FFF80
386380
70E380
71FF00
E3FC00
E7C000
EDC300
F9FF00
70FE00
ENDCHAR
STARTCHAR Oslashacute
ENCODING 510
SWIDTH 855 0
DWIDTH 16 0
BBX 14 16 2 0
BITMAP
01E0
0380
0000
07EC
1FFC
3C38
707C
70DC
E19C
E31C
E61C
EC38
F838
70F0
FFE0
DF80
ENDCHAR
STARTCHAR oslashacute
ENCODING 511
SWIDTH 663 0
DWIDTH 12 0
BBX 13 15 0 -1
BITMAP
01E0
0380
0000
0018
03F8
0FF0
1C70
38F0
3B70
76E0
78E0
71C0
7F80
FE00
C000
ENDCHAR
STARTCHAR Scommaaccent
ENCODING 536
SWIDTH 639 0
DWIDTH 12 0
BBX 11 18 1 -5
BITMAP
07C0
1FE0
3C60
3800
3C00
1E00
0F00
0780
0380
0380
C780
FF00
7C00
0000
0E00
0E00
0C00
1800
ENDCHAR
STARTCHAR scommaaccent
ENCODING 537
SWIDTH 527 0
DWIDTH 11 0
BBX 10 15 1 -5
BITMAP
1F80
3FC0
70C0
7800
3E00
1F00
0780
C380
FF00
7E00
0000
1C00
1C00
1800
3000
ENDCHAR
STARTCHAR Tcommaaccent
ENCODING 538
SWIDTH 747 0
DWIDTH 14 0
BBX 13 18 2 -5
BITMAP
FFF8
FFF8
0700
0700
0E00
0E00
0E00
0E00
1C00
1C00
1C00
1C00
1C00
0000
0E00
0E00
0C00
1800
ENDCHAR
STARTCHAR tcommaaccent
ENCODING 539
SWIDTH 437 0
DWIDTH 8 0
BBX 7 17 2 -5
BITMAP
18
38
FE
FE
70
70
70
E0
E0
E0
F8
78
00
70
70
60
C0
ENDCHAR
STARTCHAR uni021E
ENCODING 542
SWIDTH 813 0
DWIDTH 15 0
BBX 13 16 2 0
BITMAP
06C0
0380
0000
3838
3838
3838
3838
7070
7FF0
7FF0
7070
E0E0
E0E0
E0E0
E0E0
E0E0
ENDCHAR
STARTCHAR uni021F
ENCODING 543
SWIDTH 675 0
DWIDTH 13 0
BBX 12 17 1 0
BITMAP
1B00
0E00
0000
1C00
1C00
1C00
1C00
39E0
3BF0
3E70
7C70
78E0
70E0
70E0
E1C0
E1C0
E1C0
ENDCHAR
STARTCHAR uni0226
ENCODING 550
SWIDTH 771 0
DWIDTH 14 0
BBX 12 16 1 0
BITMAP
0380
0380
0000
01C0
03C0
03C0
06E0
0CE0
0CE0
18E0
18E0
3FF0
7FF0
6070
E070
E070
ENDCHAR
STARTCHAR uni0227
ENCODING 551
SWIDTH 681 0
DWIDTH 13 0
BBX 12 13 1 0
BITMAP
0380
0380
0000
07F0
1FF0
3870
70E0
70E0
E1E0
E3C0
E7C0
FDC0
79C0
ENDCHAR
STARTCHAR uni0228
ENCODING 552
SWIDTH 642 0
DWIDTH 12 0
BBX 10 16 2 -3
BITMAP
3FC0
3FC0
3800
3800
7000
7F00
7F00
7000
E000
E000
E000
FF00
FF00
3800
1C00
7800
ENDCHAR
STARTCHAR uni0229
ENCODING 553
SWIDTH 612 0
DWIDTH 11 0
BBX 10 13 1 -3
BITMAP
0780
1FC0
39C0
71C0
7F80
FE00
E000
E180
FF80
7E00
1C00
0E00
3C00
ENDCHAR
STARTCHAR uni022A
ENCODING 554
SWIDTH 855 0
DWIDTH 16 0
BBX 14 19 2 0
BITMAP
03C0
03C0
0000
0660
0660
0000
07E0
1FF8
3C38
701C
701C
E01C
E01C
E01C
E038
E038
70F0
7FE0
1F80
ENDCHAR
STARTCHAR uni022B
ENCODING 555
SWIDTH 663 0
DWIDTH 12 0
BBX 11 16 1 0
BITMAP
0780
0780
0000
0CC0
0CC0
0000
07C0
1FE0
38E0
70E0
70E0
E1C0
E1C0
E380
FF00
7C00
ENDCHAR
STARTCHAR uni022C
ENCODING 556
SWIDTH 855 0
DWIDTH 16 0
BBX 14 19 2 0
BITMAP
03C0
03C0
0000
03A0
05C0
0000
07E0
1FF8
3C38
701C
701C
E01C
E01C
E01C
E038
E038
70F0
7FE0
1F80
ENDCHAR
STARTCHAR uni022D
ENCODING 557
SWIDTH 663 0
DWIDTH 12 0
BBX 11 16 1 0
BITMAP
0780
0780
0000
0740
0B80
0000
07C0
1FE0
38E0
70E0
70E0
E1C0
E1C0
E380
FF00
7C00
ENDCHAR
STARTCHAR uni022E
ENCODING 558
SWIDTH 855 0
DWIDTH 16 0
BBX 14 16 2 0
BITMAP
0380
0380
0000
07E0
1FF8
3C38
701C
701C
E01C
E01C
E01C
E038
E038
70F0
7FE0
1F80
ENDCHAR
STARTCHAR uni022F
ENCODING 559
SWIDTH 663 0
DWIDTH 12 0
BBX 11 13 1 0
BITMAP
0700
0700
0000
07C0
1FE0
38E0
70E0
70E0
E1C0
E1C0
E380
FF00
7C00
ENDCHAR
STARTCHAR uni0230
ENCODING 560
SWIDTH 855 0
DWIDTH 16 0
BBX 14 19 2 0
BITMAP
03C0
03C0
0000
0380
0380
0000
07E0
1FF8
3C38
701C
701C
E01C
E01C
E01C
E038
E038
70F0
7FE0
1F80
ENDCHAR
STARTCHAR uni0231
ENCODING 561
SWIDTH 663 0
DWIDTH 12 0
BBX 11 16 1 0
BITMAP
0F00
0F00
0000
0700
0700
0000
07C0
1FE0
38E0
70E0
70E0
E1C0
E1C0
E380
FF00
7C00
ENDCHAR
STARTCHAR uni0232
ENCODING 562
SWIDTH 681 0
DWIDTH 12 0
BBX 11 16 3 0
BITMAP
1E00
1E00
0000
E0E0
E0E0
E1C0
F380
7300
7600
3C00
3800
3800
7000
7000
7000
7000
ENDCHAR
STARTCHAR uni0233
ENCODING 563
SWIDTH 633 0
DWIDTH 12 0
BBX 13 16 0 -3
BITMAP
0780
0780
0000
1C38
1C38
1C70
1C60
1CE0
1CC0
1D80
1F00
1E00
1C00
3800
F000
E000
ENDCHAR
STARTCHAR uni0250
ENCODING 592
SWIDTH 681 0
DWIDTH 13 0
BBX 12 10 1 0
BITMAP
39E0
3BF0
3E70
3C70
7870
70E0
70E0
E1C0
FF80
FE00
ENDCHAR
STARTCHAR uni0259
ENCODING 601
SWIDTH 612 0
DWIDTH 11 0
BBX 10 10 1 0
BITMAP
1F80
7FC0
61C0
01C0
1FC0
7F80
E380
E700
FE00
7800
ENDCHAR
STARTCHAR uni025F
ENCODING 607
SWIDTH 464 0
DWIDTH 10 0
BBX 12 17 1 -7
BITMAP
0070
0070
0070
00E0
00E0
00E0
01C0
01C0
01C0
0380
0380
3FC0
3FC0
0700
C700
FE00
7C00
ENDCHAR
STARTCHAR uni0265
ENCODING 613
SWIDTH 675 0
DWIDTH 13 0
BBX 12 14 1 -4
BITMAP
3870
3870
3870
70E0
70E0
71E0
E3E0
E7C0
FDC0
79C0
0380
0380
0380
0380
ENDCHAR
STARTCHAR uni0275
ENCODING 629
SWIDTH 663 0
DWIDTH 12 0
BBX 11 10 1 0
BITMAP
07C0
1FE0
38E0
70E0
FFE0
FFE0
E1C0
E380
FF00
7C00
ENDCHAR
STARTCHAR uni0279
ENCODING 633
SWIDTH 542 0
DWIDTH 10 0
BBX 9 10 1 0
BITMAP
0380
0380
0380
0700
0700
0F00
1F00
FE00
EE00
CE00
ENDCHAR
STARTCHAR uni0287
ENCODING 647
SWIDTH 437 0
DWIDTH 8 0
BBX 7 12 2 0
BITMAP
3C
3E
0E
0E
0E
1C
1C
1C
FE
FE
38
30
ENDCHAR
STARTCHAR uni0289
ENCODING 649
SWIDTH 675 0
DWIDTH 13 0
BBX 12 10 1 0
BITMAP
3870
3870
3870
70E0
FFF0
FFF0
E3C0
E7C0
FDC0
79C0
ENDCHAR
STARTCHAR uni028C
ENCODING 652
SWIDTH 630 0
DWIDTH 12 0
BBX 10 10 3 0
BITMAP
01C0
03C0
07C0
0DC0
19C0
39C0
31C0
71C0
E1C0
E1C0
ENDCHAR
STARTCHAR uni028D
ENCODING 653
SWIDTH 878 0
DWIDTH 16 0
BBX 15 10 2 0
BITMAP
0186
038E
079E
0FBE
1BEE
33CE
73CE
E38E
E38E
E00E
ENDCHAR
STARTCHAR uni028E
ENCODING 654
SWIDTH 633 0
DWIDTH 12 0
BBX 13 13 0 0
BITMAP
0038
0078
00E0
01C0
03C0
07C0
0DC0
19C0
39C0
31C0
71C0
E1C0
E1C0
ENDCHAR
STARTCHAR uni029E
ENCODING 670
SWIDTH 666 0
DWIDTH 12 0
BBX 11 14 1 -4
BITMAP
70E0
78E0
3CE0
1DC0
0FC0
0FC0
19C0
7380
E380
E380
0700
0700
0700
0700
ENDCHAR
STARTCHAR uni02BB
ENCODING 699
SWIDTH 265 0
DWIDTH 5 0
BBX 4 4 3 10
BITMAP
30
60
E0
E0
ENDCHAR
STARTCHAR afii57929
ENCODING 700
SWIDTH 265 0
DWIDTH 5 0
BBX 4 4 2 10
BITMAP
70
70
60
C0
ENDCHAR
STARTCHAR afii64937
ENCODING 701
SWIDTH 265 0
DWIDTH 5 0
BBX 4 4 2 10
BITMAP
E0
E0
60
30
ENDCHAR
STARTCHAR circumflex
ENCODING 710
SWIDTH 663 0
DWIDTH 12 0
BBX 5 2 5 11
BITMAP
70
D8
ENDCHAR
STARTCHAR caron
ENCODING 711
SWIDTH 663 0
DWIDTH 12 0
BBX 5 2 5 11
BITMAP
D8
70
ENDCHAR
STARTCHAR uni02C8
ENCODING 712
SWIDTH 265 0
DWIDTH 5 0
BBX 2 4 3 10
BITMAP
C0
C0
C0
80
ENDCHAR
STARTCHAR macron
ENCODING 713
SWIDTH 663 0
DWIDTH 12 0
BBX 4 2 6 11
BITMAP
F0
F0
ENDCHAR
STARTCHAR uni02CA
ENCODING 714
SWIDTH 663 0
DWIDTH 12 0
BBX 5 2 6 11
BITMAP
78
E0
ENDCHAR
STARTCHAR uni02CB
ENCODING 715
SWIDTH 663 0
DWIDTH 12 0
BBX 5 2 5 11
BITMAP
F0
38
ENDCHAR
STARTCHAR uni02CD
ENCODING 717
SWIDTH 663 0
DWIDTH 12 0
BBX 4 2 6 -3
BITMAP
F0
F0
ENDCHAR
STARTCHAR uni02CE
ENCODING 718
SWIDTH 663 0
DWIDTH 12 0
BBX 5 2 5 -3
BITMAP
F0
38
ENDCHAR
STARTCHAR uni02CF
ENCODING 719
SWIDTH 663 0
DWIDTH 12 0
BBX 5 2 6 -3
BITMAP
78
E0
ENDCHAR
STARTCHAR breve
ENCODING 728
SWIDTH 663 0
DWIDTH 12 0
BBX 5 3 5 11
BITMAP
88
F8
70
ENDCHAR
STARTCHAR dotaccent
ENCODING 729
SWIDTH 663 0
DWIDTH 12 0
BBX 3 2 7 11
BITMAP
E0
E0
ENDCHAR
STARTCHAR ring
ENCODING 730
SWIDTH 663 0
DWIDTH 12 0
BBX 5 3 6 11
BITMAP
70
D8
70
ENDCHAR
STARTCHAR ogonek
ENCODING 731
SWIDTH 663 0
DWIDTH 12 0
BBX 5 3 2 -3
BITMAP
70
E0
78
ENDCHAR
STARTCHAR tilde
ENCODING 732
SWIDTH 663 0
DWIDTH 12 0
BBX 6 2 5 11
BITMAP
74
B8
ENDCHAR
STARTCHAR hungarumlaut
ENCODING 733
SWIDTH 663 0
DWIDTH 12 0
BBX 5 3 6 11
BITMAP
48
D8
90
ENDCHAR
STARTCHAR uni02EE
ENCODING 750
SWIDTH 530 0
DWIDTH 10 0
BBX 8 4 2 10
BITMAP
77
77
66
CC
ENDCHAR
STARTCHAR uni037E
ENCODING 894
SWIDTH 343 0
DWIDTH 5 0
BBX 6 12 0 -2
BITMAP
1C
1C
00
00
00
00
00
00
70
70
60
C0
ENDCHAR
STARTCHAR tonos
ENCODING 900
SWIDTH 663 0
DWIDTH 12 0
BBX 5 2 6 11
BITMAP
78
E0
ENDCHAR
STARTCHAR dieresistonos
ENCODING 901
SWIDTH 663 0
DWIDTH 12 0
BBX 6 5 4 11
BITMAP
3C
70
00
CC
CC
ENDCHAR
STARTCHAR anoteleia
ENCODING 903
SWIDTH 343 0
DWIDTH 13 0
BBX 3 3 6 4
BITMAP
E0
E0
E0
ENDCHAR
STARTCHAR mu
ENCODING 956
SWIDTH 681 0
DWIDTH 13 0
BBX 13 13 0 -3
BITMAP
1C38
1C38
1C38
3870
3870
38F0
71E0
73E0
7EE0
7CE0
E000
E000
E000
ENDCHAR
STARTCHAR uni1E00
ENCODING 7680
SWIDTH 771 0
DWIDTH 14 0
BBX 12 17 1 -4
BITMAP
01C0
03C0
03C0
06E0
0CE0
0CE0
18E0
18E0
3FF0
7FF0
6070
E070
E070
0000
0700
0D80
0700
ENDCHAR
STARTCHAR uni1E01
ENCODING 7681
SWIDTH 681 0
DWIDTH 13 0
BBX 12 14 1 -4
BITMAP
07F0
1FF0
3870
70E0
70E0
E1E0
E3C0
E7C0
FDC0
79C0
0000
0E00
1B00
0E00
ENDCHAR
STARTCHAR uni1E02
ENCODING 7682
SWIDTH 660 0
DWIDTH 13 0
BBX 11 16 2 0
BITMAP
0700
0700
0000
3FC0
3FE0
38E0
38E0
71C0
7F80
7F00
7380
E1C0
E1C0
E3C0
FF80
FE00
ENDCHAR
STARTCHAR uni1E03
ENCODING 7683
SWIDTH 681 0
DWIDTH 13 0
BBX 12 17 1 0
BITMAP
0E00
0E00
0000
1C00
1C00
1C00
1C00
39E0
3BF0
3E70
7C70
7870
70E0
70E0
E1C0
FF80
FE00
ENDCHAR
STARTCHAR uni1E04
ENCODING 7684
SWIDTH 660 0
DWIDTH 13 0
BBX 11 16 2 -3
BITMAP
3FC0
3FE0
38E0
38E0
71C0
7F80
7F00
7380
E1C0
E1C0
E3C0
FF80
FE00
0000
1C00
1C00
ENDCHAR
STARTCHAR uni1E05
ENCODING 7685
SWIDTH 681 0
DWIDTH 13 0
BBX 12 17 1 -3
BITMAP
1C00
1C00
1C00
1C00
39E0
3BF0
3E70
7C70
7870
70E0
70E0
E1C0
FF80
FE00
0000
0E00
0E00
ENDCHAR
STARTCHAR uni1E06
ENCODING 7686
SWIDTH 660 0
DWIDTH 13 0
BBX 11 16 2 -3
BITMAP
3FC0
3FE0
38E0
38E0
71C0
7F80
7F00
7380
E1C0
E1C0
E3C0
FF80
FE00
0000
1E00
1E00
ENDCHAR
STARTCHAR uni1E07
ENCODING 7687
SWIDTH 681 0
DWIDTH 13 0
BBX 12 17 1 -3
BITMAP
1C00
1C00
1C00
1C00
39E0
3BF0
3E70
7C70
7870
70E0
70E0
E1C0
FF80
FE00
0000
1E00
1E00
ENDCHAR
STARTCHAR uni1E08
ENCODING 7688
SWIDTH 737 0
DWIDTH 14 0
BBX 13 19 2 -3
BITMAP
03C0
0700
0000
07E0
1FF8
3C38
7000
7000
E000
E000
E000
E000
E000
7060
7FE0
1F80
1C00
0E00
3C00
ENDCHAR
STARTCHAR uni1E09
ENCODING 7689
SWIDTH 548 0
DWIDTH 11 0
BBX 10 16 1 -3
BITMAP
0780
0E00
0000
0780
1FC0
38C0
7000
7000
E000
E000
E180
FF80
7E00
3800
1C00
7800
ENDCHAR
STARTCHAR uni1E0A
ENCODING 7690
SWIDTH 822 0
DWIDTH 15 0
BBX 13 16 2 0
BITMAP
0700
0700
0000
3FC0
3FF0
3870
3838
7038
7038
7038
7038
E070
E070
E1E0
FFC0
FF00
ENDCHAR
STARTCHAR uni1E0B
ENCODING 7691
SWIDTH 681 0
DWIDTH 13 0
BBX 13 17 1 0
BITMAP
00E0
00E0
0000
0038
0038
0038
0038
07F0
1FF0
3870
70E0
70E0
E1E0
E3C0
E7C0
FDC0
79C0
ENDCHAR
STARTCHAR uni1E0C
ENCODING 7692
SWIDTH 822 0
DWIDTH 15 0
BBX 13 16 2 -3
BITMAP
3FC0
3FF0
3870
3838
7038
7038
7038
7038
E070
E070
E1E0
FFC0
FF00
0000
0E00
0E00
ENDCHAR
STARTCHAR uni1E0D
ENCODING 7693
SWIDTH 681 0
DWIDTH 13 0
BBX 13 17 1 -3
BITMAP
0038
0038
0038
0038
07F0
1FF0
3870
70E0
70E0
E1E0
E3C0
E7C0
FDC0
79C0
0000
0E00
0E00
ENDCHAR
STARTCHAR uni1E0E
ENCODING 7694
SWIDTH 822 0
DWIDTH 15 0
BBX 13 16 2 -3
BITMAP
3FC0
3FF0
3870
3838
7038
7038
7038
7038
E070
E070
E1E0
FFC0
FF00
0000
0F00
0F00
ENDCHAR
STARTCHAR uni1E0F
ENCODING 7695
SWIDTH 681 0
DWIDTH 13 0
BBX 13 17 1 -3
BITMAP
0038
0038
0038
0038
07F0
1FF0
3870
70E0
70E0
E1E0
E3C0
E7C0
FDC0
79C0
0000
0F00
0F00
ENDCHAR
STARTCHAR uni1E10
ENCODING 7696
SWIDTH 822 0
DWIDTH 15 0
BBX 13 16 2 -3
BITMAP
3FC0
3FF0
3870
3838
7038
7038
7038
7038
E070
E070
E1E0
FFC0
FF00
0E00
0700
1E00
ENDCHAR
STARTCHAR uni1E11
ENCODING 7697
SWIDTH 681 0
DWIDTH 13 0
BBX 13 17 1 -3
BITMAP
0038
0038
0038
0038
07F0
1FF0
3870
70E0
70E0
E1E0
E3C0
E7C0
FDC0
79C0
0E00
0700
1E00
ENDCHAR
STARTCHAR uni1E12
ENCODING 7698
SWIDTH 822 0
DWIDTH 15 0
BBX 13 16 2 -3
BITMAP
3FC0
3FF0
3870
3838
7038
7038
7038
7038
E070
E070
E1E0
FFC0
FF00
0000
0E00
1B00
ENDCHAR
STARTCHAR uni1E13
ENCODING 7699
SWIDTH 681 0
DWIDTH 13 0
BBX 13 17 1 -3
BITMAP
0038
0038
0038
0038
07F0
1FF0
3870
70E0
70E0
E1E0
E3C0
E7C0
FDC0
79C0
0000
0E00
1B00
ENDCHAR
STARTCHAR uni1E14
ENCODING 7700
SWIDTH 642 0
DWIDTH 12 0
BBX 10 19 2 0
BITMAP
3C00
0E00
0000
1E00
1E00
0000
3FC0
3FC0
3800
3800
7000
7F00
7F00
7000
E000
E000
E000
FF00
FF00
ENDCHAR
STARTCHAR uni1E15
ENCODING 7701
SWIDTH 612 0
DWIDTH 11 0
BBX 10 16 1 0
BITMAP
1E00
0700
0000
0F00
0F00
0000
0780
1FC0
39C0
71C0
7F80
FE00
E000
E180
FF80
7E00
ENDCHAR
STARTCHAR uni1E16
ENCODING 7702
SWIDTH 642 0
DWIDTH 12 0
BBX 10 19 2 0
BITMAP
0780
0E00
0000
1E00
1E00
0000
3FC0
3FC0
3800
3800
7000
7F00
7F00
7000
E000
E000
E000
FF00
FF00
ENDCHAR
STARTCHAR uni1E17
ENCODING 7703
SWIDTH 612 0
DWIDTH 11 0
BBX 10 16 1 0
BITMAP
0780
0E00
0000
0F00
0F00
0000
0780
1FC0
39C0
71C0
7F80
FE00
E000
E180
FF80
7E00
ENDCHAR
STARTCHAR uni1E18
ENCODING 7704
SWIDTH 642 0
DWIDTH 12 0
BBX 10 16 2 -3
BITMAP
3FC0
3FC0
3800
3800
7000
7F00
7F00
7000
E000
E000
E000
FF00
FF00
0000
3800
6C00
ENDCHAR
STARTCHAR uni1E19
ENCODING 7705
SWIDTH 612 0
DWIDTH 11 0
BBX 10 13 1 -3
BITMAP
0780
1FC0
39C0
71C0
7F80
FE00
E000
E180
FF80
7E00
0000
1C00
3600
ENDCHAR
STARTCHAR uni1E1A
ENCODING 7706
SWIDTH 642 0
DWIDTH 12 0
BBX 10 16 2 -3
BITMAP
3FC0
3FC0
3800
3800
7000
7F00
7F00
7000
E000
E000
E000
FF00
FF00
0000
3A00
5C00
ENDCHAR
STARTCHAR uni1E1B
ENCODING 7707
SWIDTH 612 0
DWIDTH 11 0
BBX 10 13 1 -3
BITMAP
0780
1FC0
39C0
71C0
7F80
FE00
E000
E180
FF80
7E00
0000
3A00
5C00
ENDCHAR
STARTCHAR uni1E1C
ENCODING 7708
SWIDTH 642 0
DWIDTH 12 0
BBX 10 20 2 -3
BITMAP
2200
3E00
1C00
0000
3FC0
3FC0
3800
3800
7000
7F00
7F00
7000
E000
E000
E000
FF00
FF00
3800
1C00
7800
ENDCHAR
STARTCHAR uni1E1D
ENCODING 7709
SWIDTH 612 0
DWIDTH 11 0
BBX 10 17 1 -3
BITMAP
1100
1F00
0E00
0000
0780
1FC0
39C0
71C0
7F80
FE00
E000
E180
FF80
7E00
1C00
0E00
3C00
ENDCHAR
STARTCHAR uni1E1E
ENCODING 7710
SWIDTH 614 0
DWIDTH 12 0
BBX 11 16 2 0
BITMAP
0E00
0E00
0000
3FE0
3FE0
3800
3800
7000
7F80
7F80
7000
7000
E000
E000
E000
E000
ENDCHAR
STARTCHAR uni1E1F
ENCODING 7711
SWIDTH 464 0
DWIDTH 10 0
BBX 12 20 1 -3
BITMAP
0700
0700
0000
03E0
07F0
0E30
0E00
3FC0
3FC0
1C00
1C00
3800
3800
3800
7000
7000
7000
E000
E000
E000
ENDCHAR
STARTCHAR uni1E20
ENCODING 7712
SWIDTH 755 0
DWIDTH 14 0
BBX 13 16 2 0
BITMAP
0780
0780
0000
07E0
1FF8
3C38
7000
7000
E000
E000
E070
E070
E070
70E0
7FE0
1FE0
ENDCHAR
STARTCHAR uni1E21
ENCODING 7713
SWIDTH 674 0
DWIDTH 13 0
BBX 13 16 0 -3
BITMAP
03C0
03C0
0000
03F8
0FF8
1C38
3870
3870
70F0
71F0
7F60
3CE0
00E0
E1C0
FFC0
3F00
ENDCHAR
STARTCHAR uni1E22
ENCODING 7714
SWIDTH 813 0
DWIDTH 15 0
BBX 13 16 2 0
BITMAP
0380
0380
0000
3838
3838
3838
3838
7070
7FF0
7FF0
7070
E0E0
E0E0
E0E0
E0E0
E0E0
ENDCHAR
STARTCHAR uni1E23
ENCODING 7715
SWIDTH 675 0
DWIDTH 13 0
BBX 12 17 1 0
BITMAP
0E00
0E00
0000
1C00
1C00
1C00
1C00
39E0
3BF0
3E70
7C70
78E0
70E0
70E0
E1C0
E1C0
E1C0
ENDCHAR
STARTCHAR uni1E24
ENCODING 7716
SWIDTH 813 0
DWIDTH 15 0
BBX 13 16 2 -3
BITMAP
3838
3838
3838
3838
7070
7FF0
7FF0
7070
E0E0
E0E0
E0E0
E0E0
E0E0
0000
0E00
0E00
ENDCHAR
STARTCHAR uni1E25
ENCODING 7717
SWIDTH 675 0
DWIDTH 13 0
BBX 12 17 1 -3
BITMAP
1C00
1C00
1C00
1C00
39E0
3BF0
3E70
7C70
78E0
70E0
70E0
E1C0
E1C0
E1C0
0000
0E00
0E00
ENDCHAR
STARTCHAR uni1E26
ENCODING 7718
SWIDTH 813 0
DWIDTH 15 0
BBX 13 16 2 0
BITMAP
0CC0
0CC0
0000
3838
3838
3838
3838
7070
7FF0
7FF0
7070
E0E0
E0E0
E0E0
E0E0
E0E0
ENDCHAR
STARTCHAR uni1E27
ENCODING 7719
SWIDTH 675 0
DWIDTH 13 0
BBX 12 17 1 0
BITMAP
3300
3300
0000
1C00
1C00
1C00
1C00
39E0
3BF0
3E70
7C70
78E0
70E0
70E0
E1C0
E1C0
E1C0
ENDCHAR
STARTCHAR uni1E28
ENCODING 7720
SWIDTH 813 0
DWIDTH 15 0
BBX 13 16 2 -3
BITMAP
3838
3838
3838
3838
7070
7FF0
7FF0
7070
E0E0
E0E0
E0E0
E0E0
E0E0
0E00
0700
1E00
ENDCHAR
STARTCHAR uni1E29
ENCODING 7721
SWIDTH 675 0
DWIDTH 13 0
BBX 12 17 1 -3
BITMAP
1C00
1C00
1C00
1C00
39E0
3BF0
3E70
7C70
78E0
70E0
70E0
E1C0
E1C0
E1C0
0E00
0700
1E00
ENDCHAR
STARTCHAR uni1E2A
ENCODING 7722
SWIDTH 813 0
DWIDTH 15 0
BBX 13 17 2 -4
BITMAP
3838
3838
3838
3838
7070
7FF0
7FF0
7070
E0E0
E0E0
E0E0
E0E0
E0E0
0000
1100
1F00
0E00
ENDCHAR
STARTCHAR uni1E2B
ENCODING 7723
SWIDTH 675 0
DWIDTH 13 0
BBX 12 18 1 -4
BITMAP
1C00
1C00
1C00
1C00
39E0
3BF0
3E70
7C70
78E0
70E0
70E0
E1C0
E1C0
E1C0
0000
1100
1F00
0E00
ENDCHAR
STARTCHAR uni1E2C
ENCODING 7724
SWIDTH 361 0
DWIDTH 7 0
BBX 6 16 1 -3
BITMAP
1C
1C
1C
1C
38
38
38
38
70
70
70
70
70
00
74
B8
ENDCHAR
STARTCHAR uni1E2D
ENCODING 7725
SWIDTH 343 0
DWIDTH 6 0
BBX 8 17 0 -3
BITMAP
07
0E
00
00
1C
1C
1C
38
38
38
38
70
70
70
00
74
B8
ENDCHAR
STARTCHAR uni1E2E
ENCODING 7726
SWIDTH 361 0
DWIDTH 7 0
BBX 6 19 2 0
BITMAP
3C
70
00
CC
CC
00
38
38
38
38
70
70
70
70
E0
E0
E0
E0
E0
ENDCHAR
STARTCHAR uni1E2F
ENCODING 7727
SWIDTH 343 0
DWIDTH 6 0
BBX 6 16 1 0
BITMAP
3C
70
00
CC
CC
00
38
38
38
70
70
70
70
E0
E0
E0
ENDCHAR
STARTCHAR uni1E30
ENCODING 7728
SWIDTH 753 0
DWIDTH 14 0
BBX 12 16 2 0
BITMAP
0780
0E00
0000
3870
38E0
39C0
3980
7300
7600
7C00
7E00
EF00
E780
E3C0
E1E0
E0E0
ENDCHAR
STARTCHAR uni1E31
ENCODING 7729
SWIDTH 666 0
DWIDTH 12 0
BBX 11 17 1 0
BITMAP
0F00
1C00
0000
1C00
1C00
1C00
1C00
38E0
38E0
39C0
7300
7E00
7E00
7700
E780
E3C0
E1C0
ENDCHAR
STARTCHAR uni1E32
ENCODING 7730
SWIDTH 753 0
DWIDTH 14 0
BBX 12 16 2 -3
BITMAP
3870
38E0
39C0
3980
7300
7600
7C00
7E00
EF00
E780
E3C0
E1E0
E0E0
0000
0E00
0E00
ENDCHAR
STARTCHAR uni1E33
ENCODING 7731
SWIDTH 666 0
DWIDTH 12 0
BBX 11 17 1 -3
BITMAP
1C00
1C00
1C00
1C00
38E0
38E0
39C0
7300
7E00
7E00
7700
E780
E3C0
E1C0
0000
0E00
0E00
ENDCHAR
STARTCHAR uni1E34
ENCODING 7732
SWIDTH 753 0
DWIDTH 14 0
BBX 12 16 2 -3
BITMAP
3870
38E0
39C0
3980
7300
7600
7C00
7E00
EF00
E780
E3C0
E1E0
E0E0
0000
0F00
0F00
ENDCHAR
STARTCHAR uni1E35
ENCODING 7733
SWIDTH 666 0
DWIDTH 12 0
BBX 11 17 1 -3
BITMAP
1C00
1C00
1C00
1C00
38E0
38E0
39C0
7300
7E00
7E00
7700
E780
E3C0
E1C0
0000
1E00
1E00
ENDCHAR
STARTCHAR uni1E36
ENCODING 7734
SWIDTH 623 0
DWIDTH 11 0
BBX 9 16 2 -3
BITMAP
3800
3800
3800
3800
7000
7000
7000
7000
E000
E000
E000
FF80
FF80
0000
1C00
1C00
ENDCHAR
STARTCHAR uni1E37
ENCODING 7735
SWIDTH 343 0
DWIDTH 6 0
BBX 6 17 1 -3
BITMAP
1C
1C
1C
1C
38
38
38
70
70
70
70
E0
E0
E0
00
70
70
ENDCHAR
STARTCHAR uni1E38
ENCODING 7736
SWIDTH 623 0
DWIDTH 11 0
BBX 9 19 2 -3
BITMAP
3C00
3C00
0000
3800
3800
3800
3800
7000
7000
7000
7000
E000
E000
E000
FF80
FF80
0000
1C00
1C00
ENDCHAR
STARTCHAR uni1E39
ENCODING 7737
SWIDTH 343 0
DWIDTH 6 0
BBX 6 20 1 -3
BITMAP
3C
3C
00
1C
1C
1C
1C
38
38
38
70
70
70
70
E0
E0
E0
00
70
70
ENDCHAR
STARTCHAR uni1E3A
ENCODING 7738
SWIDTH 623 0
DWIDTH 11 0
BBX 9 16 2 -3
BITMAP
3800
3800
3800
3800
7000
7000
7000
7000
E000
E000
E000
FF80
FF80
0000
3C00
3C00
ENDCHAR
STARTCHAR uni1E3B
ENCODING 7739
SWIDTH 343 0
DWIDTH 6 0
BBX 6 17 1 -3
BITMAP
1C
1C
1C
1C
38
38
38
70
70
70
70
E0
E0
E0
00
F0
F0
ENDCHAR
STARTCHAR uni1E3C
ENCODING 7740
SWIDTH 623 0
DWIDTH 11 0
BBX 9 16 2 -3
BITMAP
3800
3800
3800
3800
7000
7000
7000
7000
E000
E000
E000
FF80
FF80
0000
1C00
3600
ENDCHAR
STARTCHAR uni1E3D
ENCODING 7741
SWIDTH 343 0
DWIDTH 6 0
BBX 6 17 1 -3
BITMAP
1C
1C
1C
1C
38
38
38
70
70
70
70
E0
E0
E0
00
70
D8
ENDCHAR
STARTCHAR uni1E3E
ENCODING 7742
SWIDTH 940 0
DWIDTH 18 0
BBX 16 16 2 0
BITMAP
00F0
01C0
0000
3E0F
3E1F
3E1F
3737
3766
676E
67CE
678E
678E
C71C
C71C
C01C
C01C
ENDCHAR
STARTCHAR uni1E3F
ENCODING 7743
SWIDTH 991 0
DWIDTH 18 0
BBX 17 13 1 0
BITMAP
00F000
01C000
000000
39C700
3BEF80
3EFB80
7CF380
79E700
71C700
71C700
E38E00
E38E00
E38E00
ENDCHAR
STARTCHAR uni1E40
ENCODING 7744
SWIDTH 940 0
DWIDTH 18 0
BBX 16 16 2 0
BITMAP
01C0
01C0
0000
3E0F
3E1F
3E1F
3737
3766
676E
67CE
678E
678E
C71C
C71C
C01C
C01C
ENDCHAR
STARTCHAR uni1E41
ENCODING 7745
SWIDTH 991 0
DWIDTH 18 0
BBX 17 13 1 0
BITMAP
00E000
00E000
000000
39C700
3BEF80
3EFB80
7CF380
79E700
71C700
71C700
E38E00
E38E00
E38E00
ENDCHAR
STARTCHAR uni1E42
ENCODING 7746
SWIDTH 940 0
DWIDTH 18 0
BBX 16 16 2 -3
BITMAP
3E0F
3E1F
3E1F
3737
3766
676E
67CE
678E
678E
C71C
C71C
C01C
C01C
0000
0380
0380
ENDCHAR
STARTCHAR uni1E43
ENCODING 7747
SWIDTH 991 0
DWIDTH 18 0
BBX 17 13 1 -3
BITMAP
39C700
3BEF80
3EFB80
7CF380
79E700
71C700
71C700
E38E00
E38E00
E38E00
000000
038000
038000
ENDCHAR
STARTCHAR uni1E44
ENCODING 7748
SWIDTH 789 0
DWIDTH 15 0
BBX 13 16 2 0
BITMAP
0700
0700
0000
3818
3C18
3C18
3E18
3E18
6730
6730
63B0
63F0
C1E0
C1E0
C0E0
C0E0
ENDCHAR
STARTCHAR uni1E45
ENCODING 7749
SWIDTH 675 0
DWIDTH 13 0
BBX 12 13 1 0
BITMAP
0700
0700
0000
39E0
3BF0
3E70
3C70
78E0
70E0
70E0
E1C0
E1C0
E1C0
ENDCHAR
STARTCHAR uni1E46
ENCODING 7750
SWIDTH 789 0
DWIDTH 15 0
BBX 13 16 2 -3
BITMAP
3818
3C18
3C18
3E18
3E18
6730
6730
63B0
63F0
C1E0
C1E0
C0E0
C0E0
0000
0700
0700
ENDCHAR
STARTCHAR uni1E47
ENCODING 7751
SWIDTH 675 0
DWIDTH 13 0
BBX 12 13 1 -3
BITMAP
39E0
3BF0
3E70
3C70
78E0
70E0
70E0
E1C0
E1C0
E1C0
0000
0E00
0E00
ENDCHAR
STARTCHAR uni1E48
ENCODING 7752
SWIDTH 789 0
DWIDTH 15 0
BBX 13 16 2 -3
BITMAP
3818
3C18
3C18
3E18
3E18
6730
6730
63B0
63F0
C1E0
C1E0
C0E0
C0E0
0000
0F00
0F00
ENDCHAR
STARTCHAR uni1E49
ENCODING 7753
SWIDTH 675 0
DWIDTH 13 0
BBX 12 13 1 -3
BITMAP
39E0
3BF0
3E70
3C70
78E0
70E0
70E0
E1C0
E1C0
E1C0
0000
1E00
1E00
ENDCHAR
STARTCHAR uni1E4A
ENCODING 7754
SWIDTH 789 0
DWIDTH 15 0
BBX 13 16 2 -3
BITMAP
3818
3C18
3C18
3E18
3E18
6730
6730
63B0
63F0
C1E0
C1E0
C0E0
C0E0
0000
0700
0D80
ENDCHAR
STARTCHAR uni1E4B
ENCODING 7755
SWIDTH 675 0
DWIDTH 13 0
BBX 12 13 1 -3
BITMAP
39E0
3BF0
3E70
3C70
78E0
70E0
70E0
E1C0
E1C0
E1C0
0000
0E00
1B00
ENDCHAR
STARTCHAR uni1E4C
ENCODING 7756
SWIDTH 855 0
DWIDTH 16 0
BBX 14 19 2 0
BITMAP
01E0
0380
0000
03A0
05C0
0000
07E0
1FF8
3C38
701C
701C
E01C
E01C
E01C
E038
E038
70F0
7FE0
1F80
ENDCHAR
STARTCHAR uni1E4D
ENCODING 7757
SWIDTH 663 0
DWIDTH 12 0
BBX 11 16 1 0
BITMAP
03C0
0700
0000
0740
0B80
0000
07C0
1FE0
38E0
70E0
70E0
E1C0
E1C0
E380
FF00
7C00
ENDCHAR
STARTCHAR uni1E4E
ENCODING 7758
SWIDTH 855 0
DWIDTH 16 0
BBX 14 19 2 0
BITMAP
0660
0660
0000
03A0
05C0
0000
07E0
1FF8
3C38
701C
701C
E01C
E01C
E01C
E038
E038
70F0
7FE0
1F80
ENDCHAR
STARTCHAR uni1E4F
ENCODING 7759
SWIDTH 663 0
DWIDTH 12 0
BBX 11 16 1 0
BITMAP
0CC0
0CC0
0000
0740
0B80
0000
07C0
1FE0
38E0
70E0
70E0
E1C0
E1C0
E380
FF00
7C00
ENDCHAR
STARTCHAR uni1E50
ENCODING 7760
SWIDTH 855 0
DWIDTH 16 0
BBX 14 19 2 0
BITMAP
0F00
0380
0000
0780
0780
0000
07E0
1FF8
3C38
701C
701C
E01C
E01C
E01C
E038
E038
70F0
7FE0
1F80
ENDCHAR
STARTCHAR uni1E51
ENCODING 7761
SWIDTH 663 0
DWIDTH 12 0
BBX 11 16 1 0
BITMAP
1E00
0700
0000
0F00
0F00
0000
07C0
1FE0
38E0
70E0
70E0
E1C0
E1C0
E380
FF00
7C00
ENDCHAR
STARTCHAR uni1E52
ENCODING 7762
SWIDTH 855 0
DWIDTH 16 0
BBX 14 19 2 0
BITMAP
01E0
0380
0000
0780
0780
0000
07E0
1FF8
3C38
701C
701C
E01C
E01C
E01C
E038
E038
70F0
7FE0
1F80
ENDCHAR
STARTCHAR uni1E53
ENCODING 7763
SWIDTH 663 0
DWIDTH 12 0
BBX 11 16 1 0
BITMAP
0780
0E00
0000
0F00
0F00
0000
07C0
1FE0
38E0
70E0
70E0
E1C0
E1C0
E380
FF00
7C00
ENDCHAR
STARTCHAR uni1E54
ENCODING 7764
SWIDTH 645 0
DWIDTH 13 0
BBX 11 16 2 0
BITMAP
0780
0E00
0000
3FC0
3FE0
38E0
38E0
70E0
71C0
7F80
7E00
E000
E000
E000
E000
E000
ENDCHAR
STARTCHAR uni1E55
ENCODING 7765
SWIDTH 681 0
DWIDTH 13 0
BBX 13 16 0 -3
BITMAP
01E0
0380
0000
1CF0
1DF8
1F38
1E38
3C38
3870
3870
70E0
7FC0
7F00
E000
E000
E000
ENDCHAR
STARTCHAR uni1E56
ENCODING 7766
SWIDTH 645 0
DWIDTH 13 0
BBX 11 16 2 0
BITMAP
0700
0700
0000
3FC0
3FE0
38E0
38E0
70E0
71C0
7F80
7E00
E000
E000
E000
E000
E000
ENDCHAR
STARTCHAR uni1E57
ENCODING 7767
SWIDTH 681 0
DWIDTH 13 0
BBX 13 16 0 -3
BITMAP
0380
0380
0000
1CF0
1DF8
1F38
1E38
3C38
3870
3870
70E0
7FC0
7F00
E000
E000
E000
ENDCHAR
STARTCHAR uni1E58
ENCODING 7768
SWIDTH 708 0
DWIDTH 13 0
BBX 11 16 2 0
BITMAP
0700
0700
0000
3FC0
3FE0
38E0
38E0
71C0
7F80
7E00
7700
E700
E380
E380
E1C0
E1C0
ENDCHAR
STARTCHAR uni1E59
ENCODING 7769
SWIDTH 542 0
DWIDTH 10 0
BBX 9 13 1 0
BITMAP
0E00
0E00
0000
3980
3B80
3F80
7C00
7800
7000
7000
E000
E000
E000
ENDCHAR
STARTCHAR uni1E5A
ENCODING 7770
SWIDTH 708 0
DWIDTH 13 0
BBX 11 16 2 -3
BITMAP
3FC0
3FE0
38E0
38E0
71C0
7F80
7E00
7700
E700
E380
E380
E1C0
E1C0
0000
0E00
0E00
ENDCHAR
STARTCHAR uni1E5B
ENCODING 7771
SWIDTH 542 0
DWIDTH 10 0
BBX 9 13 1 -3
BITMAP
3980
3B80
3F80
7C00
7800
7000
7000
E000
E000
E000
0000
7000
7000
ENDCHAR
STARTCHAR uni1E5C
ENCODING 7772
SWIDTH 708 0
DWIDTH 13 0
BBX 11 19 2 -3
BITMAP
0F00
0F00
0000
3FC0
3FE0
38E0
38E0
71C0
7F80
7E00
7700
E700
E380
E380
E1C0
E1C0
0000
0E00
0E00
ENDCHAR
STARTCHAR uni1E5D
ENCODING 7773
SWIDTH 542 0
DWIDTH 10 0
BBX 9 16 1 -3
BITMAP
1E00
1E00
0000
3980
3B80
3F80
7C00
7800
7000
7000
E000
E000
E000
0000
7000
7000
ENDCHAR
STARTCHAR uni1E5E
ENCODING 7774
SWIDTH 708 0
DWIDTH 13 0
BBX 11 16 2 -3
BITMAP
3FC0
3FE0
38E0
38E0
71C0
7F80
7E00
7700
E700
E380
E380
E1C0
E1C0
0000
1E00
1E00
ENDCHAR
STARTCHAR uni1E5F
ENCODING 7775
SWIDTH 542 0
DWIDTH 10 0
BBX 9 13 1 -3
BITMAP
3980
3B80
3F80
7C00
7800
7000
7000
E000
E000
E000
0000
7800
7800
ENDCHAR
STARTCHAR uni1E60
ENCODING 7776
SWIDTH 639 0
DWIDTH 12 0
BBX 11 16 1 0
BITMAP
0700
0700
0000
07C0
1FE0
3C60
3800
3C00
1E00
0F00
0780
0380
0380
C780
FF00
7C00
ENDCHAR
STARTCHAR uni1E61
ENCODING 7777
SWIDTH 527 0
DWIDTH 11 0
BBX 10 13 1 0
BITMAP
0E00
0E00
0000
1F80
3FC0
70C0
7800
3E00
1F00
0780
C380
FF00
7E00
ENDCHAR
STARTCHAR uni1E62
ENCODING 7778
SWIDTH 639 0
DWIDTH 12 0
BBX 11 16 1 -3
BITMAP
07C0
1FE0
3C60
3800
3C00
1E00
0F00
0780
0380
0380
C780
FF00
7C00
0000
1C00
1C00
ENDCHAR
STARTCHAR uni1E63
ENCODING 7779
SWIDTH 527 0
DWIDTH 11 0
BBX 10 13 1 -3
BITMAP
1F80
3FC0
70C0
7800
3E00
1F00
0780
C380
FF00
7E00
0000
1C00
1C00
ENDCHAR
STARTCHAR uni1E64
ENCODING 7780
SWIDTH 639 0
DWIDTH 12 0
BBX 11 19 1 0
BITMAP
0700
0700
0000
0780
0E00
0000
07C0
1FE0
3C60
3800
3C00
1E00
0F00
0780
0380
0380
C780
FF00
7C00
ENDCHAR
STARTCHAR uni1E65
ENCODING 7781
SWIDTH 527 0
DWIDTH 11 0
BBX 10 16 1 0
BITMAP
0E00
0E00
0000
0780
0E00
0000
1F80
3FC0
70C0
7800
3E00
1F00
0780
C380
FF00
7E00
ENDCHAR
STARTCHAR uni1E66
ENCODING 7782
SWIDTH 639 0
DWIDTH 12 0
BBX 11 19 1 0
BITMAP
0700
0700
0000
06C0
0380
0000
07C0
1FE0
3C60
3800
3C00
1E00
0F00
0780
0380
0380
C780
FF00
7C00
ENDCHAR
STARTCHAR uni1E67
ENCODING 7783
SWIDTH 527 0
DWIDTH 11 0
BBX 10 16 1 0
BITMAP
0E00
0E00
0000
1B00
0E00
0000
1F80
3FC0
70C0
7800
3E00
1F00
0780
C380
FF00
7E00
ENDCHAR
STARTCHAR uni1E68
ENCODING 7784
SWIDTH 639 0
DWIDTH 12 0
BBX 11 19 1 -3
BITMAP
0E00
0E00
0000
07C0
1FE0
3C60
3800
3C00
1E00
0F00
0780
0380
0380
C780
FF00
7C00
0000
1C00
1C00
ENDCHAR
STARTCHAR uni1E69
ENCODING 7785
SWIDTH 527 0
DWIDTH 11 0
BBX 10 16 1 -3
BITMAP
0E00
0E00
0000
1F80
3FC0
70C0
7800
3E00
1F00
0780
C380
FF00
7E00
0000
1C00
1C00
ENDCHAR
STARTCHAR uni1E6A
ENCODING 7786
SWIDTH 747 0
DWIDTH 14 0
BBX 13 16 2 0
BITMAP
0700
0700
0000
FFF8
FFF8
0700
0700
0E00
0E00
0E00
0E00
1C00
1C00
1C00
1C00
1C00
ENDCHAR
STARTCHAR uni1E6B
ENCODING 7787
SWIDTH 437 0
DWIDTH 8 0
BBX 7 15 2 0
BITMAP
38
38
00
18
38
FE
FE
70
70
70
E0
E0
E0
F8
78
ENDCHAR
STARTCHAR uni1E6C
ENCODING 7788
SWIDTH 747 0
DWIDTH 14 0
BBX 13 16 2 -3
BITMAP
FFF8
FFF8
0700
0700
0E00
0E00
0E00
0E00
1C00
1C00
1C00
1C00
1C00
0000
0E00
0E00
ENDCHAR
STARTCHAR uni1E6D
ENCODING 7789
SWIDTH 437 0
DWIDTH 8 0
BBX 7 15 2 -3
BITMAP
18
38
FE
FE
70
70
70
E0
E0
E0
F8
78
00
70
70
ENDCHAR
STARTCHAR uni1E6E
ENCODING 7790
SWIDTH 747 0
DWIDTH 14 0
BBX 13 16 2 -3
BITMAP
FFF8
FFF8
0700
0700
0E00
0E00
0E00
0E00
1C00
1C00
1C00
1C00
1C00
0000
1E00
1E00
ENDCHAR
STARTCHAR uni1E6F
ENCODING 7791
SWIDTH 437 0
DWIDTH 8 0
BBX 7 15 2 -3
BITMAP
18
38
FE
FE
70
70
70
E0
E0
E0
F8
78
00
78
78
ENDCHAR
STARTCHAR uni1E70
ENCODING 7792
SWIDTH 747 0
DWIDTH 14 0
BBX 13 16 2 -3
BITMAP
FFF8
FFF8
0700
0700
0E00
0E00
0E00
0E00
1C00
1C00
1C00
1C00
1C00
0000
0E00
1B00
ENDCHAR
STARTCHAR uni1E71
ENCODING 7793
SWIDTH 437 0
DWIDTH 8 0
BBX 7 15 2 -3
BITMAP
18
38
FE
FE
70
70
70
E0
E0
E0
F8
78
00
70
D8
ENDCHAR
STARTCHAR uni1E72
ENCODING 7794
SWIDTH 759 0
DWIDTH 14 0
BBX 13 16 2 -3
BITMAP
3818
3818
3818
3818
7030
7030
7030
7060
E060
E0E0
F1C0
7F80
3E00
0000
3300
3300
ENDCHAR
STARTCHAR uni1E73
ENCODING 7795
SWIDTH 675 0
DWIDTH 13 0
BBX 12 13 1 -3
BITMAP
3870
3870
3870
70E0
70E0
71E0
E3C0
E7C0
FDC0
79C0
0000
3300
3300
ENDCHAR
STARTCHAR uni1E74
ENCODING 7796
SWIDTH 759 0
DWIDTH 14 0
BBX 13 16 2 -3
BITMAP
3818
3818
3818
3818
7030
7030
7030
7060
E060
E0E0
F1C0
7F80
3E00
0000
1D00
2E00
ENDCHAR
STARTCHAR uni1E75
ENCODING 7797
SWIDTH 675 0
DWIDTH 13 0
BBX 12 13 1 -3
BITMAP
3870
3870
3870
70E0
70E0
71E0
E3C0
E7C0
FDC0
79C0
0000
1D00
2E00
ENDCHAR
STARTCHAR uni1E76
ENCODING 7798
SWIDTH 759 0
DWIDTH 14 0
BBX 13 16 2 -3
BITMAP
3818
3818
3818
3818
7030
7030
7030
7060
E060
E0E0
F1C0
7F80
3E00
0000
0E00
1B00
ENDCHAR
STARTCHAR uni1E77
ENCODING 7799
SWIDTH 675 0
DWIDTH 13 0
BBX 12 13 1 -3
BITMAP
3870
3870
3870
70E0
70E0
71E0
E3C0
E7C0
FDC0
79C0
0000
0E00
1B00
ENDCHAR
STARTCHAR uni1E78
ENCODING 7800
SWIDTH 759 0
DWIDTH 14 0
BBX 13 19 2 0
BITMAP
03C0
0700
0000
0740
0B80
0000
3818
3818
3818
3818
7030
7030
7030
7060
E060
E0E0
F1C0
7F80
3E00
ENDCHAR
STARTCHAR uni1E79
ENCODING 7801
SWIDTH 675 0
DWIDTH 13 0
BBX 12 16 1 0
BITMAP
03C0
0700
0000
0740
0B80
0000
3870
3870
3870
70E0
70E0
71E0
E3C0
E7C0
FDC0
79C0
ENDCHAR
STARTCHAR uni1E7A
ENCODING 7802
SWIDTH 759 0
DWIDTH 14 0
BBX 13 19 2 0
BITMAP
0CC0
0CC0
0000
0780
0780
0000
3818
3818
3818
3818
7030
7030
7030
7060
E060
E0E0
F1C0
7F80
3E00
ENDCHAR
STARTCHAR uni1E7B
ENCODING 7803
SWIDTH 675 0
DWIDTH 13 0
BBX 12 16 1 0
BITMAP
0CC0
0CC0
0000
0780
0780
0000
3870
3870
3870
70E0
70E0
71E0
E3C0
E7C0
FDC0
79C0
ENDCHAR
STARTCHAR uni1E7C
ENCODING 7804
SWIDTH 765 0
DWIDTH 14 0
BBX 11 16 4 0
BITMAP
1D00
2E00
0000
E0E0
E0E0
E0C0
E1C0
E180
E380
7300
7700
7600
7600
7C00
3800
3800
ENDCHAR
STARTCHAR uni1E7D
ENCODING 7805
SWIDTH 630 0
DWIDTH 12 0
BBX 10 13 3 0
BITMAP
1D00
2E00
0000
E1C0
E1C0
E380
E300
E700
E600
EC00
F800
F000
E000
ENDCHAR
STARTCHAR uni1E7E
ENCODING 7806
SWIDTH 765 0
DWIDTH 14 0
BBX 11 16 4 -3
BITMAP
E0E0
E0E0
E0C0
E1C0
E180
E380
7300
7700
7600
7600
7C00
3800
3800
0000
1C00
1C00
ENDCHAR
STARTCHAR uni1E7F
ENCODING 7807
SWIDTH 630 0
DWIDTH 12 0
BBX 10 13 3 -3
BITMAP
E1C0
E1C0
E380
E300
E700
E600
EC00
F800
F000
E000
0000
3800
3800
ENDCHAR
STARTCHAR Wgrave
ENCODING 7808
SWIDTH 991 0
DWIDTH 18 0
BBX 16 16 3 0
BITMAP
0780
01C0
0000
E1C7
E1C7
E3C7
E3C6
E7CE
E7CC
EDD8
E9D8
F9F0
F1E0
F1E0
E1C0
E1C0
ENDCHAR
STARTCHAR wgrave
ENCODING 7809
SWIDTH 878 0
DWIDTH 16 0
BBX 15 13 2 0
BITMAP
0F00
0380
0000
E00E
E38E
E38E
E79C
E798
EFB0
FBE0
F3C0
E380
C300
ENDCHAR
STARTCHAR Wacute
ENCODING 7810
SWIDTH 991 0
DWIDTH 18 0
BBX 16 16 3 0
BITMAP
01E0
0380
0000
E1C7
E1C7
E3C7
E3C6
E7CE
E7CC
EDD8
E9D8
F9F0
F1E0
F1E0
E1C0
E1C0
ENDCHAR
STARTCHAR wacute
ENCODING 7811
SWIDTH 878 0
DWIDTH 16 0
BBX 15 13 2 0
BITMAP
01E0
0380
0000
E00E
E38E
E38E
E79C
E798
EFB0
FBE0
F3C0
E380
C300
ENDCHAR
STARTCHAR Wdieresis
ENCODING 7812
SWIDTH 991 0
DWIDTH 18 0
BBX 16 16 3 0
BITMAP
0660
0660
0000
E1C7
E1C7
E3C7
E3C6
E7CE
E7CC
EDD8
E9D8
F9F0
F1E0
F1E0
E1C0
E1C0
ENDCHAR
STARTCHAR wdieresis
ENCODING 7813
SWIDTH 878 0
DWIDTH 16 0
BBX 15 13 2 0
BITMAP
0660
0660
0000
E00E
E38E
E38E
E79C
E798
EFB0
FBE0
F3C0
E380
C300
ENDCHAR
STARTCHAR uni1E86
ENCODING 7814
SWIDTH 991 0
DWIDTH 18 0
BBX 16 16 3 0
BITMAP
0380
0380
0000
E1C7
E1C7
E3C7
E3C6
E7CE
E7CC
EDD8
E9D8
F9F0
F1E0
F1E0
E1C0
E1C0
ENDCHAR
STARTCHAR uni1E87
ENCODING 7815
SWIDTH 878 0
DWIDTH 16 0
BBX 15 13 2 0
BITMAP
0380
0380
0000
E00E
E38E
E38E
E79C
E798
EFB0
FBE0
F3C0
E380
C300
ENDCHAR
STARTCHAR uni1E88
ENCODING 7816
SWIDTH 991 0
DWIDTH 18 0
BBX 16 16 3 -3
BITMAP
E1C7
E1C7
E3C7
E3C6
E7CE
E7CC
EDD8
E9D8
F9F0
F1E0
F1E0
E1C0
E1C0
0000
0700
0700
ENDCHAR
STARTCHAR uni1E89
ENCODING 7817
SWIDTH 878 0
DWIDTH 16 0
BBX 15 13 2 -3
BITMAP
E00E
E38E
E38E
E79C
E798
EFB0
FBE0
F3C0
E380
C300
0000
0E00
0E00
ENDCHAR
STARTCHAR uni1E8A
ENCODING 7818
SWIDTH 696 0
DWIDTH 13 0
BBX 13 16 1 0
BITMAP
0380
0380
0000
1C38
1C38
1C70
0E60
0EC0
0F80
0700
0F00
1B80
3380
71C0
E1C0
E1C0
ENDCHAR
STARTCHAR uni1E8B
ENCODING 7819
SWIDTH 563 0
DWIDTH 11 0
BBX 11 13 0 0
BITMAP
0700
0700
0000
1CE0
1CE0
1CC0
0F80
0F00
1F00
3700
6380
E380
E380
ENDCHAR
STARTCHAR uni1E8C
ENCODING 7820
SWIDTH 696 0
DWIDTH 13 0
BBX 13 16 1 0
BITMAP
0CC0
0CC0
0000
1C38
1C38
1C70
0E60
0EC0
0F80
0700
0F00
1B80
3380
71C0
E1C0
E1C0
ENDCHAR
STARTCHAR uni1E8D
ENCODING 7821
SWIDTH 563 0
DWIDTH 11 0
BBX 11 13 0 0
BITMAP
1980
1980
0000
1CE0
1CE0
1CC0
0F80
0F00
1F00
3700
6380
E380
E380
ENDCHAR
STARTCHAR uni1E8E
ENCODING 7822
SWIDTH 681 0
DWIDTH 12 0
BBX 11 16 3 0
BITMAP
0E00
0E00
0000
E0E0
E0E0
E1C0
F380
7300
7600
3C00
3800
3800
7000
7000
7000
7000
ENDCHAR
STARTCHAR uni1E8F
ENCODING 7823
SWIDTH 633 0
DWIDTH 12 0
BBX 13 16 0 -3
BITMAP
0380
0380
0000
1C38
1C38
1C70
1C60
1CE0
1CC0
1D80
1F00
1E00
1C00
3800
F000
E000
ENDCHAR
STARTCHAR uni1E90
ENCODING 7824
SWIDTH 687 0
DWIDTH 13 0
BBX 12 16 1 0
BITMAP
0380
06C0
0000
3FF0
3FF0
00F0
01E0
03C0
0780
0F00
1E00
3C00
7800
F000
FFC0
FFC0
ENDCHAR
STARTCHAR uni1E91
ENCODING 7825
SWIDTH 630 0
DWIDTH 12 0
BBX 11 13 1 0
BITMAP
0700
0D80
0000
7FE0
7FE0
03C0
0780
0F00
1E00
3C00
7800
FFC0
FFC0
ENDCHAR
STARTCHAR uni1E92
ENCODING 7826
SWIDTH 687 0
DWIDTH 13 0
BBX 12 16 1 -3
BITMAP
3FF0
3FF0
00F0
01E0
03C0
0780
0F00
1E00
3C00
7800
F000
FFC0
FFC0
0000
1C00
1C00
ENDCHAR
STARTCHAR uni1E93
ENCODING 7827
SWIDTH 630 0
DWIDTH 12 0
BBX 11 13 1 -3
BITMAP
7FE0
7FE0
03C0
0780
0F00
1E00
3C00
7800
FFC0
FFC0
0000
1C00
1C00
ENDCHAR
STARTCHAR uni1E94
ENCODING 7828
SWIDTH 687 0
DWIDTH 13 0
BBX 12 16 1 -3
BITMAP
3FF0
3FF0
00F0
01E0
03C0
0780
0F00
1E00
3C00
7800
F000
FFC0
FFC0
0000
1E00
1E00
ENDCHAR
STARTCHAR uni1E95
ENCODING 7829
SWIDTH 630 0
DWIDTH 12 0
BBX 11 13 1 -3
BITMAP
7FE0
7FE0
03C0
0780
0F00
1E00
3C00
7800
FFC0
FFC0
0000
1E00
1E00
ENDCHAR
STARTCHAR uni1E96
ENCODING 7830
SWIDTH 675 0
DWIDTH 13 0
BBX 12 17 1 -3
BITMAP
1C00
1C00
1C00
1C00
39E0
3BF0
3E70
7C70
78E0
70E0
70E0
E1C0
E1C0
E1C0
0000
0F00
0F00
ENDCHAR
STARTCHAR uni1E97
ENCODING 7831
SWIDTH 437 0
DWIDTH 8 0
BBX 7 15 2 0
BITMAP
66
66
00
18
38
FE
FE
70
70
70
E0
E0
E0
F8
78
ENDCHAR
STARTCHAR uni1E98
ENCODING 7832
SWIDTH 878 0
DWIDTH 16 0
BBX 15 14 2 0
BITMAP
0380
06C0
0380
0000
E00E
E38E
E38E
E79C
E798
EFB0
FBE0
F3C0
E380
C300
ENDCHAR
STARTCHAR uni1E99
ENCODING 7833
SWIDTH 633 0
DWIDTH 12 0
BBX 13 17 0 -3
BITMAP
0380
06C0
0380
0000
1C38
1C38
1C70
1C60
1CE0
1CC0
1D80
1F00
1E00
1C00
3800
F000
E000
ENDCHAR
STARTCHAR uni1EA0
ENCODING 7840
SWIDTH 771 0
DWIDTH 14 0
BBX 12 16 1 -3
BITMAP
01C0
03C0
03C0
06E0
0CE0
0CE0
18E0
18E0
3FF0
7FF0
6070
E070
E070
0000
0700
0700
ENDCHAR
STARTCHAR uni1EA1
ENCODING 7841
SWIDTH 681 0
DWIDTH 13 0
BBX 12 13 1 -3
BITMAP
07F0
1FF0
3870
70E0
70E0
E1E0
E3C0
E7C0
FDC0
79C0
0000
0E00
0E00
ENDCHAR
STARTCHAR uni1EA4
ENCODING 7844
SWIDTH 771 0
DWIDTH 14 0
BBX 12 19 1 0
BITMAP
01E0
0380
0000
01C0
0360
0000
01C0
03C0
03C0
06E0
0CE0
0CE0
18E0
18E0
3FF0
7FF0
6070
E070
E070
ENDCHAR
STARTCHAR uni1EA5
ENCODING 7845
SWIDTH 681 0
DWIDTH 13 0
BBX 12 16 1 0
BITMAP
01E0
0380
0000
0380
06C0
0000
07F0
1FF0
3870
70E0
70E0
E1E0
E3C0
E7C0
FDC0
79C0
ENDCHAR
STARTCHAR uni1EA6
ENCODING 7846
SWIDTH 771 0
DWIDTH 14 0
BBX 12 19 1 0
BITMAP
0F00
0380
0000
01C0
0360
0000
01C0
03C0
03C0
06E0
0CE0
0CE0
18E0
18E0
3FF0
7FF0
6070
E070
E070
ENDCHAR
STARTCHAR uni1EA7
ENCODING 7847
SWIDTH 681 0
DWIDTH 13 0
BBX 12 16 1 0
BITMAP
0F00
0380
0000
0380
06C0
0000
07F0
1FF0
3870
70E0
70E0
E1E0
E3C0
E7C0
FDC0
79C0
ENDCHAR
STARTCHAR uni1EAA
ENCODING 7850
SWIDTH 771 0
DWIDTH 14 0
BBX 12 19 1 0
BITMAP
03A0
05C0
0000
01C0
0360
0000
01C0
03C0
03C0
06E0
0CE0
0CE0
18E0
18E0
3FF0
7FF0
6070
E070
E070
ENDCHAR
STARTCHAR uni1EAB
ENCODING 7851
SWIDTH 681 0
DWIDTH 13 0
BBX 12 16 1 0
BITMAP
03A0
05C0
0000
0380
06C0
0000
07F0
1FF0
3870
70E0
70E0
E1E0
E3C0
E7C0
FDC0
79C0
ENDCHAR
STARTCHAR uni1EAC
ENCODING 7852
SWIDTH 771 0
DWIDTH 14 0
BBX 12 19 1 -3
BITMAP
0380
06C0
0000
01C0
03C0
03C0
06E0
0CE0
0CE0
18E0
18E0
3FF0
7FF0
6070
E070
E070
0000
0700
0700
ENDCHAR
STARTCHAR uni1EAD
ENCODING 7853
SWIDTH 681 0
DWIDTH 13 0
BBX 12 16 1 -3
BITMAP
0700
0D80
0000
07F0
1FF0
3870
70E0
70E0
E1E0
E3C0
E7C0
FDC0
79C0
0000
0E00
0E00
ENDCHAR
STARTCHAR uni1EAE
ENCODING 7854
SWIDTH 771 0
DWIDTH 14 0
BBX 12 20 1 0
BITMAP
03C0
0700
0000
0440
07C0
0380
0000
01C0
03C0
03C0
06E0
0CE0
0CE0
18E0
18E0
3FF0
7FF0
6070
E070
E070
ENDCHAR
STARTCHAR uni1EAF
ENCODING 7855
SWIDTH 681 0
DWIDTH 13 0
BBX 12 17 1 0
BITMAP
03C0
0700
0000
0440
07C0
0380
0000
07F0
1FF0
3870
70E0
70E0
E1E0
E3C0
E7C0
FDC0
79C0
ENDCHAR
STARTCHAR uni1EB0
ENCODING 7856
SWIDTH 771 0
DWIDTH 14 0
BBX 12 20 1 0
BITMAP
0F00
0380
0000
0440
07C0
0380
0000
01C0
03C0
03C0
06E0
0CE0
0CE0
18E0
18E0
3FF0
7FF0
6070
E070
E070
ENDCHAR
STARTCHAR uni1EB1
ENCODING 7857
SWIDTH 681 0
DWIDTH 13 0
BBX 12 17 1 0
BITMAP
0F00
0380
0000
0440
07C0
0380
0000
07F0
1FF0
3870
70E0
70E0
E1E0
E3C0
E7C0
FDC0
79C0
ENDCHAR
STARTCHAR uni1EB4
ENCODING 7860
SWIDTH 771 0
DWIDTH 14 0
BBX 12 20 1 0
BITMAP
0740
0B80
0000
0440
07C0
0380
0000
01C0
03C0
03C0
06E0
0CE0
0CE0
18E0
18E0
3FF0
7FF0
6070
E070
E070
ENDCHAR
STARTCHAR uni1EB5
ENCODING 7861
SWIDTH 681 0
DWIDTH 13 0
BBX 12 17 1 0
BITMAP
0740
0B80
0000
0440
07C0
0380
0000
07F0
1FF0
3870
70E0
70E0
E1E0
E3C0
E7C0
FDC0
79C0
ENDCHAR
STARTCHAR uni1EB6
ENCODING 7862
SWIDTH 771 0
DWIDTH 14 0
BBX 12 20 1 -3
BITMAP
0440
07C0
0380
0000
01C0
03C0
03C0
06E0
0CE0
0CE0
18E0
18E0
3FF0
7FF0
6070
E070
E070
0000
0700
0700
ENDCHAR
STARTCHAR uni1EB7
ENCODING 7863
SWIDTH 681 0
DWIDTH 13 0
BBX 12 17 1 -3
BITMAP
0880
0F80
0700
0000
07F0
1FF0
3870
70E0
70E0
E1E0
E3C0
E7C0
FDC0
79C0
0000
0E00
0E00
ENDCHAR
STARTCHAR uni1EB8
ENCODING 7864
SWIDTH 642 0
DWIDTH 12 0
BBX 10 16 2 -3
BITMAP
3FC0
3FC0
3800
3800
7000
7F00
7F00
7000
E000
E000
E000
FF00
FF00
0000
3800
3800
ENDCHAR
STARTCHAR uni1EB9
ENCODING 7865
SWIDTH 612 0
DWIDTH 11 0
BBX 10 13 1 -3
BITMAP
0780
1FC0
39C0
71C0
7F80
FE00
E000
E180
FF80
7E00
0000
1C00
1C00
ENDCHAR
STARTCHAR uni1EBC
ENCODING 7868
SWIDTH 642 0
DWIDTH 12 0
BBX 10 16 2 0
BITMAP
1D00
2E00
0000
3FC0
3FC0
3800
3800
7000
7F00
7F00
7000
E000
E000
E000
FF00
FF00
ENDCHAR
STARTCHAR uni1EBD
ENCODING 7869
SWIDTH 612 0
DWIDTH 11 0
BBX 10 13 1 0
BITMAP
0E80
1700
0000
0780
1FC0
39C0
71C0
7F80
FE00
E000
E180
FF80
7E00
ENDCHAR
STARTCHAR uni1EBE
ENCODING 7870
SWIDTH 642 0
DWIDTH 12 0
BBX 10 19 2 0
BITMAP
0780
0E00
0000
0700
0D80
0000
3FC0
3FC0
3800
3800
7000
7F00
7F00
7000
E000
E000
E000
FF00
FF00
ENDCHAR
STARTCHAR uni1EBF
ENCODING 7871
SWIDTH 612 0
DWIDTH 11 0
BBX 10 16 1 0
BITMAP
0780
0E00
0000
0700
0D80
0000
0780
1FC0
39C0
71C0
7F80
FE00
E000
E180
FF80
7E00
ENDCHAR
STARTCHAR uni1EC0
ENCODING 7872
SWIDTH 642 0
DWIDTH 12 0
BBX 10 19 2 0
BITMAP
1E00
0700
0000
0700
0D80
0000
3FC0
3FC0
3800
3800
7000
7F00
7F00
7000
E000
E000
E000
FF00
FF00
ENDCHAR
STARTCHAR uni1EC1
ENCODING 7873
SWIDTH 612 0
DWIDTH 11 0
BBX 10 16 1 0
BITMAP
1E00
0700
0000
0700
0D80
0000
0780
1FC0
39C0
71C0
7F80
FE00
E000
E180
FF80
7E00
ENDCHAR
STARTCHAR uni1EC4
ENCODING 7876
SWIDTH 642 0
DWIDTH 12 0
BBX 10 19 2 0
BITMAP
0E80
1700
0000
0700
0D80
0000
3FC0
3FC0
3800
3800
7000
7F00
7F00
7000
E000
E000
E000
FF00
FF00
ENDCHAR
STARTCHAR uni1EC5
ENCODING 7877
SWIDTH 612 0
DWIDTH 11 0
BBX 10 16 1 0
BITMAP
0E80
1700
0000
0700
0D80
0000
0780
1FC0
39C0
71C0
7F80
FE00
E000
E180
FF80
7E00
ENDCHAR
STARTCHAR uni1EC6
ENCODING 7878
SWIDTH 642 0
DWIDTH 12 0
BBX 10 19 2 -3
BITMAP
1C00
3600
0000
3FC0
3FC0
3800
3800
7000
7F00
7F00
7000
E000
E000
E000
FF00
FF00
0000
3800
3800
ENDCHAR
STARTCHAR uni1EC7
ENCODING 7879
SWIDTH 612 0
DWIDTH 11 0
BBX 10 16 1 -3
BITMAP
0E00
1B00
0000
0780
1FC0
39C0
71C0
7F80
FE00
E000
E180
FF80
7E00
0000
1C00
1C00
ENDCHAR
STARTCHAR uni1ECA
ENCODING 7882
SWIDTH 361 0
DWIDTH 7 0
BBX 5 16 2 -3
BITMAP
38
38
38
38
70
70
70
70
E0
E0
E0
E0
E0
00
E0
E0
ENDCHAR
STARTCHAR uni1ECB
ENCODING 7883
SWIDTH 343 0
DWIDTH 6 0
BBX 7 17 1 -3
BITMAP
0E
1C
00
00
38
38
38
70
70
70
70
E0
E0
E0
00
70
70
ENDCHAR
STARTCHAR uni1ECC
ENCODING 7884
SWIDTH 855 0
DWIDTH 16 0
BBX 14 16 2 -3
BITMAP
07E0
1FF8
3C38
701C
701C
E01C
E01C
E01C
E038
E038
70F0
7FE0
1F80
0000
0700
0700
ENDCHAR
STARTCHAR uni1ECD
ENCODING 7885
SWIDTH 663 0
DWIDTH 12 0
BBX 11 13 1 -3
BITMAP
07C0
1FE0
38E0
70E0
70E0
E1C0
E1C0
E380
FF00
7C00
0000
1C00
1C00
ENDCHAR
STARTCHAR uni1ED0
ENCODING 7888
SWIDTH 855 0
DWIDTH 16 0
BBX 14 19 2 0
BITMAP
01E0
0380
0000
01C0
0360
0000
07E0
1FF8
3C38
701C
701C
E01C
E01C
E01C
E038
E038
70F0
7FE0
1F80
ENDCHAR
STARTCHAR uni1ED1
ENCODING 7889
SWIDTH 663 0
DWIDTH 12 0
BBX 11 16 1 0
BITMAP
03C0
0700
0000
0380
06C0
0000
07C0
1FE0
38E0
70E0
70E0
E1C0
E1C0
E380
FF00
7C00
ENDCHAR
STARTCHAR uni1ED2
ENCODING 7890
SWIDTH 855 0
DWIDTH 16 0
BBX 14 19 2 0
BITMAP
0780
01C0
0000
01C0
0360
0000
07E0
1FF8
3C38
701C
701C
E01C
E01C
E01C
E038
E038
70F0
7FE0
1F80
ENDCHAR
STARTCHAR uni1ED3
ENCODING 7891
SWIDTH 663 0
DWIDTH 12 0
BBX 11 16 1 0
BITMAP
0F00
0380
0000
0380
06C0
0000
07C0
1FE0
38E0
70E0
70E0
E1C0
E1C0
E380
FF00
7C00
ENDCHAR
STARTCHAR uni1ED6
ENCODING 7894
SWIDTH 855 0
DWIDTH 16 0
BBX 14 19 2 0
BITMAP
03A0
05C0
0000
01C0
0360
0000
07E0
1FF8
3C38
701C
701C
E01C
E01C
E01C
E038
E038
70F0
7FE0
1F80
ENDCHAR
STARTCHAR uni1ED7
ENCODING 7895
SWIDTH 663 0
DWIDTH 12 0
BBX 11 16 1 0
BITMAP
0740
0B80
0000
0380
06C0
0000
07C0
1FE0
38E0
70E0
70E0
E1C0
E1C0
E380
FF00
7C00
ENDCHAR
STARTCHAR uni1ED8
ENCODING 7896
SWIDTH 855 0
DWIDTH 16 0
BBX 14 19 2 -3
BITMAP
0380
06C0
0000
07E0
1FF8
3C38
701C
701C
E01C
E01C
E01C
E038
E038
70F0
7FE0
1F80
0000
0700
0700
ENDCHAR
STARTCHAR uni1ED9
ENCODING 7897
SWIDTH 663 0
DWIDTH 12 0
BBX 11 16 1 -3
BITMAP
0700
0D80
0000
07C0
1FE0
38E0
70E0
70E0
E1C0
E1C0
E380
FF00
7C00
0000
1C00
1C00
ENDCHAR
STARTCHAR uni1EDA
ENCODING 7898
SWIDTH 855 0
DWIDTH 16 0
BBX 17 16 2 0
BITMAP
00F000
01C000
000000
07E380
1FFB80
3C3B00
701E00
701C00
E01C00
E01C00
E01C00
E03800
E03800
70F000
7FE000
1F8000
ENDCHAR
STARTCHAR uni1EDB
ENCODING 7899
SWIDTH 663 0
DWIDTH 12 0
BBX 14 13 1 0
BITMAP
01E0
0380
0000
07DC
1FFC
38F8
70F0
70E0
E1C0
E1C0
E380
FF00
7C00
ENDCHAR
STARTCHAR uni1EDC
ENCODING 7900
SWIDTH 855 0
DWIDTH 16 0
BBX 17 16 2 0
BITMAP
03C000
00E000
000000
07E380
1FFB80
3C3B00
701E00
701C00
E01C00
E01C00
E01C00
E03800
E03800
70F000
7FE000
1F8000
ENDCHAR
STARTCHAR uni1EDD
ENCODING 7901
SWIDTH 663 0
DWIDTH 12 0
BBX 14 13 1 0
BITMAP
0780
01C0
0000
07DC
1FFC
38F8
70F0
70E0
E1C0
E1C0
E380
FF00
7C00
ENDCHAR
STARTCHAR uni1EE0
ENCODING 7904
SWIDTH 855 0
DWIDTH 16 0
BBX 17 16 2 0
BITMAP
01D000
02E000
000000
07E380
1FFB80
3C3B00
701E00
701C00
E01C00
E01C00
E01C00
E03800
E03800
70F000
7FE000
1F8000
ENDCHAR
STARTCHAR uni1EE1
ENCODING 7905
SWIDTH 663 0
DWIDTH 12 0
BBX 14 13 1 0
BITMAP
03A0
05C0
0000
07DC
1FFC
38F8
70F0
70E0
E1C0
E1C0
E380
FF00
7C00
ENDCHAR
STARTCHAR uni1EE2
ENCODING 7906
SWIDTH 855 0
DWIDTH 16 0
BBX 17 16 2 -3
BITMAP
07E380
1FFB80
3C3B00
701E00
701C00
E01C00
E01C00
E01C00
E03800
E03800
70F000
7FE000
1F8000
000000
038000
038000
ENDCHAR
STARTCHAR uni1EE3
ENCODING 7907
SWIDTH 663 0
DWIDTH 12 0
BBX 14 13 1 -3
BITMAP
07DC
1FFC
38F8
70F0
70E0
E1C0
E1C0
E380
FF00
7C00
0000
0E00
0E00
ENDCHAR
STARTCHAR uni1EE4
ENCODING 7908
SWIDTH 759 0
DWIDTH 14 0
BBX 13 16 2 -3
BITMAP
3818
3818
3818
3818
7030
7030
7030
7060
E060
E0E0
F1C0
7F80
3E00
0000
0E00
0E00
ENDCHAR
STARTCHAR uni1EE5
ENCODING 7909
SWIDTH 675 0
DWIDTH 13 0
BBX 12 13 1 -3
BITMAP
3870
3870
3870
70E0
70E0
71E0
E3C0
E7C0
FDC0
79C0
0000
0E00
0E00
ENDCHAR
STARTCHAR uni1EE8
ENCODING 7912
SWIDTH 759 0
DWIDTH 14 0
BBX 16 16 2 0
BITMAP
00F0
01C0
0000
381F
381F
381E
381C
7030
7030
7030
7060
E060
E0E0
F1C0
7F80
3E00
ENDCHAR
STARTCHAR uni1EE9
ENCODING 7913
SWIDTH 675 0
DWIDTH 13 0
BBX 15 13 1 0
BITMAP
00F0
01C0
0000
387E
387E
387C
70F8
70E0
71E0
E3C0
E7C0
FDC0
79C0
ENDCHAR
STARTCHAR uni1EEA
ENCODING 7914
SWIDTH 759 0
DWIDTH 14 0
BBX 16 16 2 0
BITMAP
03C0
00E0
0000
381F
381F
381E
381C
7030
7030
7030
7060
E060
E0E0
F1C0
7F80
3E00
ENDCHAR
STARTCHAR uni1EEB
ENCODING 7915
SWIDTH 675 0
DWIDTH 13 0
BBX 15 13 1 0
BITMAP
0780
01C0
0000
387E
387E
387C
70F8
70E0
71E0
E3C0
E7C0
FDC0
79C0
ENDCHAR
STARTCHAR uni1EEE
ENCODING 7918
SWIDTH 759 0
DWIDTH 14 0
BBX 16 16 2 0
BITMAP
01D0
02E0
0000
381F
381F
381E
381C
7030
7030
7030
7060
E060
E0E0
F1C0
7F80
3E00
ENDCHAR
STARTCHAR uni1EEF
ENCODING 7919
SWIDTH 675 0
DWIDTH 13 0
BBX 15 13 1 0
BITMAP
01D0
02E0
0000
387E
387E
387C
70F8
70E0
71E0
E3C0
E7C0
FDC0
79C0
ENDCHAR
STARTCHAR uni1EF0
ENCODING 7920
SWIDTH 759 0
DWIDTH 14 0
BBX 16 16 2 -3
BITMAP
381F
381F
381E
381C
7030
7030
7030
7060
E060
E0E0
F1C0
7F80
3E00
0000
0E00
0E00
ENDCHAR
STARTCHAR uni1EF1
ENCODING 7921
SWIDTH 675 0
DWIDTH 13 0
BBX 15 13 1 -3
BITMAP
387E
387E
387C
70F8
70E0
71E0
E3C0
E7C0
FDC0
79C0
0000
0E00
0E00
ENDCHAR
STARTCHAR Ygrave
ENCODING 7922
SWIDTH 681 0
DWIDTH 12 0
BBX 11 16 3 0
BITMAP
3C00
0E00
0000
E0E0
E0E0
E1C0
F380
7300
7600
3C00
3800
3800
7000
7000
7000
7000
ENDCHAR
STARTCHAR ygrave
ENCODING 7923
SWIDTH 633 0
DWIDTH 12 0
BBX 13 16 0 -3
BITMAP
0F00
0380
0000
1C38
1C38
1C70
1C60
1CE0
1CC0
1D80
1F00
1E00
1C00
3800
F000
E000
ENDCHAR
STARTCHAR uni1EF4
ENCODING 7924
SWIDTH 681 0
DWIDTH 12 0
BBX 11 16 3 -3
BITMAP
E0E0
E0E0
E1C0
F380
7300
7600
3C00
3800
3800
7000
7000
7000
7000
0000
3800
3800
ENDCHAR
STARTCHAR uni1EF5
ENCODING 7925
SWIDTH 633 0
DWIDTH 12 0
BBX 13 16 0 -6
BITMAP
1C38
1C38
1C70
1C60
1CE0
1CC0
1D80
1F00
1E00
1C00
3800
F000
E000
0000
1C00
1C00
ENDCHAR
STARTCHAR uni1EF8
ENCODING 7928
SWIDTH 681 0
DWIDTH 12 0
BBX 11 16 3 0
BITMAP
1D00
2E00
0000
E0E0
E0E0
E1C0
F380
7300
7600
3C00
3800
3800
7000
7000
7000
7000
ENDCHAR
STARTCHAR uni1EF9
ENCODING 7929
SWIDTH 633 0
DWIDTH 12 0
BBX 13 16 0 -3
BITMAP
0740
0B80
0000
1C38
1C38
1C70
1C60
1CE0
1CC0
1D80
1F00
1E00
1C00
3800
F000
E000
ENDCHAR
STARTCHAR uni2000
ENCODING 8192
SWIDTH 500 0
DWIDTH 9 0
BBX 1 1 0 0
BITMAP
00
ENDCHAR
STARTCHAR uni2001
ENCODING 8193
SWIDTH 1000 0
DWIDTH 19 0
BBX 1 1 0 0
BITMAP
00
ENDCHAR
STARTCHAR uni2002
ENCODING 8194
SWIDTH 500 0
DWIDTH 9 0
BBX 1 1 0 0
BITMAP
00
ENDCHAR
STARTCHAR uni2003
ENCODING 8195
SWIDTH 1000 0
DWIDTH 19 0
BBX 1 1 0 0
BITMAP
00
ENDCHAR
STARTCHAR uni2004
ENCODING 8196
SWIDTH 333 0
DWIDTH 6 0
BBX 1 1 0 0
BITMAP
00
ENDCHAR
STARTCHAR uni2005
ENCODING 8197
SWIDTH 250 0
DWIDTH 5 0
BBX 1 1 0 0
BITMAP
00
ENDCHAR
STARTCHAR uni2006
ENCODING 8198
SWIDTH 167 0
DWIDTH 3 0
BBX 1 1 0 0
BITMAP
00
ENDCHAR
STARTCHAR uni2007
ENCODING 8199
SWIDTH 687 0
DWIDTH 13 0
BBX 1 1 0 0
BITMAP
00
ENDCHAR
STARTCHAR uni2008
ENCODING 8200
SWIDTH 343 0
DWIDTH 5 0
BBX 1 1 0 0
BITMAP
00
ENDCHAR
STARTCHAR uni2009
ENCODING 8201
SWIDTH 200 0
DWIDTH 4 0
BBX 1 1 0 0
BITMAP
00
ENDCHAR
STARTCHAR uni200A
ENCODING 8202
SWIDTH 100 0
DWIDTH 2 0
BBX 1 1 0 0
BITMAP
00
ENDCHAR
STARTCHAR uni200B
ENCODING 8203
SWIDTH 0 0
DWIDTH 0 0
BBX 1 1 0 0
BITMAP
00
ENDCHAR
STARTCHAR uni2010
ENCODING 8208
SWIDTH 289 0
DWIDTH 6 0
BBX 5 2 1 4
BITMAP
F8
F8
ENDCHAR
STARTCHAR uni2011
ENCODING 8209
SWIDTH 289 0
DWIDTH 6 0
BBX 5 2 1 4
BITMAP
F8
F8
ENDCHAR
STARTCHAR figuredash
ENCODING 8210
SWIDTH 500 0
DWIDTH 10 0
BBX 9 2 1 4
BITMAP
FF80
FF80
ENDCHAR
STARTCHAR endash
ENCODING 8211
SWIDTH 500 0
DWIDTH 10 0
BBX 9 2 1 4
BITMAP
FF80
FF80
ENDCHAR
STARTCHAR emdash
ENCODING 8212
SWIDTH 1000 0
DWIDTH 19 0
BBX 18 2 1 4
BITMAP
FFFFC0
FFFFC0
ENDCHAR
STARTCHAR afii00208
ENCODING 8213
SWIDTH 1000 0
DWIDTH 19 0
BBX 18 2 1 4
BITMAP
FFFFC0
FFFFC0
ENDCHAR
STARTCHAR quoteleft
ENCODING 8216
SWIDTH 265 0
DWIDTH 5 0
BBX 4 4 3 10
BITMAP
30
60
E0
E0
ENDCHAR
STARTCHAR quoteright
ENCODING 8217
SWIDTH 265 0
DWIDTH 5 0
BBX 4 4 2 10
BITMAP
70
70
60
C0
ENDCHAR
STARTCHAR quotesinglbase
ENCODING 8218
SWIDTH 265 0
DWIDTH 5 0
BBX 4 4 0 -2
BITMAP
70
70
60
C0
ENDCHAR
STARTCHAR quotereversed
ENCODING 8219
SWIDTH 265 0
DWIDTH 5 0
BBX 4 4 2 10
BITMAP
E0
E0
60
30
ENDCHAR
STARTCHAR quotedblleft
ENCODING 8220
SWIDTH 530 0
DWIDTH 10 0
BBX 8 4 3 10
BITMAP
33
66
EE
EE
ENDCHAR
STARTCHAR quotedblright
ENCODING 8221
SWIDTH 530 0
DWIDTH 10 0
BBX 8 4 2 10
BITMAP
77
77
66
CC
ENDCHAR
STARTCHAR quotedblbase
ENCODING 8222
SWIDTH 530 0
DWIDTH 10 0
BBX 8 4 1 -2
BITMAP
77
77
66
CC
ENDCHAR
STARTCHAR uni201F
ENCODING 8223
SWIDTH 530 0
DWIDTH 10 0
BBX 8 4 2 10
BITMAP
EE
EE
66
33
ENDCHAR
STARTCHAR dagger
ENCODING 8224
SWIDTH 687 0
DWIDTH 13 0
BBX 10 15 2 -2
BITMAP
0E00
0E00
0E00
0E00
FFC0
FFC0
1C00
1C00
3800
3800
3800
7800
7000
7000
7000
ENDCHAR
STARTCHAR daggerdbl
ENCODING 8225
SWIDTH 687 0
DWIDTH 13 0
BBX 11 15 2 -2
BITMAP
0700
0700
0700
0E00
7FE0
7FE0
0E00
1C00
1C00
FFC0
FFC0
1C00
3800
3800
3800
ENDCHAR
STARTCHAR bullet
ENCODING 8226
SWIDTH 687 0
DWIDTH 13 0
BBX 6 6 4 2
BITMAP
FC
FC
FC
FC
FC
FC
ENDCHAR
STARTCHAR ellipsis
ENCODING 8230
SWIDTH 1000 0
DWIDTH 12 0
BBX 8 2 3 0
BITMAP
C3
C3
ENDCHAR
STARTCHAR perthousand
ENCODING 8240
SWIDTH 1332 0
DWIDTH 25 0
BBX 24 13 1 0
BITMAP
3C0600
7E0C00
EE1800
C63000
EE6000
FCC000
799E1E
033F3F
067777
0C6363
187777
307F7E
603C3C
ENDCHAR
STARTCHAR guilsinglleft
ENCODING 8249
SWIDTH 386 0
DWIDTH 7 0
BBX 6 8 1 2
BITMAP
08
1C
38
70
E0
70
38
10
ENDCHAR
STARTCHAR guilsinglright
ENCODING 8250
SWIDTH 386 0
DWIDTH 7 0
BBX 6 8 1 2
BITMAP
20
70
38
1C
38
70
E0
40
ENDCHAR
STARTCHAR fraction
ENCODING 8260
SWIDTH 130 0
DWIDTH 6 0
BBX 10 13 -1 0
BITMAP
00C0
01C0
0180
0380
0700
0600
0C00
1C00
3800
3000
7000
E000
C000
ENDCHAR
STARTCHAR oneinferior
ENCODING 8321
SWIDTH 539 0
DWIDTH 10 0
BBX 5 8 3 -3
BITMAP
38
F8
F8
38
38
70
70
70
ENDCHAR
STARTCHAR twoinferior
ENCODING 8322
SWIDTH 539 0
DWIDTH 10 0
BBX 8 8 2 -3
BITMAP
7E
7F
07
1F
7E
F0
FE
FE
ENDCHAR
STARTCHAR threeinferior
ENCODING 8323
SWIDTH 539 0
DWIDTH 10 0
BBX 8 8 2 -3
BITMAP
7E
7F
07
3C
3E
0E
FE
F8
ENDCHAR
STARTCHAR uni20A5
ENCODING 8357
SWIDTH 991 0
DWIDTH 18 0
BBX 17 16 1 -3
BITMAP
000C00
001C00
003800
39F700
3BFF80
3EFB80
7CF380
79E700
71C700
73C700
E78E00
E78E00
EF8E00
0C0000
1C0000
180000
ENDCHAR
STARTCHAR uni20A6
ENCODING 8358
SWIDTH 789 0
DWIDTH 15 0
BBX 13 13 2 0
BITMAP
3818
3C18
3C18
3FF8
3FF8
6730
6730
7FF0
7FF0
C1E0
C1E0
C0E0
C0E0
ENDCHAR
STARTCHAR uni20A9
ENCODING 8361
SWIDTH 991 0
DWIDTH 18 0
BBX 16 13 3 0
BITMAP
E1C7
E1C7
E3C7
FFFE
FFFE
E7CC
EDD8
FFF8
FFF8
F1E0
F1E0
E1C0
E1C0
ENDCHAR
STARTCHAR Euro
ENCODING 8364
SWIDTH 737 0
DWIDTH 14 0
BBX 16 13 -1 0
BITMAP
00FC
03FF
0787
7FF0
7FF0
1C00
1C00
FFE0
FFE0
1C00
0E0C
0FFC
03F0
ENDCHAR
STARTCHAR uni20AD
ENCODING 8365
SWIDTH 753 0
DWIDTH 14 0
BBX 12 13 2 0
BITMAP
3870
38E0
39C0
3980
7300
FFF0
FFF0
7E00
EF00
E780
E3C0
E1E0
E0E0
ENDCHAR
STARTCHAR uni2103
ENCODING 8451
SWIDTH 966 0
DWIDTH 19 0
BBX 19 13 1 0
BITMAP
701F80
D87FE0
70F0E0
01C000
01C000
038000
038000
038000
038000
038000
01C180
01FF80
007E00
ENDCHAR
STARTCHAR uni2109
ENCODING 8457
SWIDTH 843 0
DWIDTH 17 0
BBX 17 13 1 0
BITMAP
70FF80
D8FF80
70E000
00E000
01C000
01FE00
01FE00
01C000
01C000
038000
038000
038000
038000
ENDCHAR
STARTCHAR trademark
ENCODING 8482
SWIDTH 901 0
DWIDTH 17 0
BBX 15 6 2 7
BITMAP
FDC6
FDCE
31FE
6376
636C
630C
ENDCHAR
STARTCHAR uni212A
ENCODING 8490
SWIDTH 753 0
DWIDTH 14 0
BBX 12 13 2 0
BITMAP
3870
38E0
39C0
3980
7300
7600
7C00
7E00
EF00
E780
E3C0
E1E0
E0E0
ENDCHAR
STARTCHAR uni212B
ENCODING 8491
SWIDTH 771 0
DWIDTH 14 0
BBX 12 16 1 0
BITMAP
01C0
0360
01C0
01C0
03C0
03C0
06E0
0CE0
0CE0
18E0
18E0
3FF0
7FF0
6070
E070
E070
ENDCHAR
STARTCHAR uni2132
ENCODING 8498
SWIDTH 614 0
DWIDTH 12 0
BBX 11 13 2 0
BITMAP
00E0
00E0
00E0
00E0
01C0
01C0
3FC0
3FC0
01C0
0380
0380
FF80
FF80
ENDCHAR
STARTCHAR minus
ENCODING 8722
SWIDTH 687 0
DWIDTH 13 0
BBX 11 2 2 5
BITMAP
FFE0
FFE0
ENDCHAR
STARTCHAR fraction
ENCODING 8725
SWIDTH 130 0
DWIDTH 6 0
BBX 10 13 -1 0
BITMAP
00C0
01C0
0180
0380
0700
0600
0C00
1C00
3800
3000
7000
E000
C000
ENDCHAR
STARTCHAR periodcentered
ENCODING 8729
SWIDTH 343 0
DWIDTH 13 0
BBX 3 3 6 4
BITMAP
E0
E0
E0
ENDCHAR
STARTCHAR uni2236
ENCODING 8758
SWIDTH 343 0
DWIDTH 5 0
BBX 5 10 1 0
BITMAP
38
38
00
00
00
00
00
00
E0
E0
ENDCHAR
STARTCHAR uni2259
ENCODING 8793
SWIDTH 687 0
DWIDTH 13 0
BBX 12 9 1 3
BITMAP
0700
0D80
0000
7FF0
7FF0
0000
0000
FFE0
FFE0
ENDCHAR
STARTCHAR uni225A
ENCODING 8794
SWIDTH 687 0
DWIDTH 13 0
BBX 12 9 1 3
BITMAP
0D80
0700
0000
7FF0
7FF0
0000
0000
FFE0
FFE0
ENDCHAR
STARTCHAR notequal
ENCODING 8800
SWIDTH 687 0
DWIDTH 13 0
BBX 12 16 1 -2
BITMAP
0030
0070
00E0
00C0
01C0
7FF0
7FF0
0700
0600
FFE0
FFE0
1800
3800
3000
7000
6000
ENDCHAR
STARTCHAR equivalence
ENCODING 8801
SWIDTH 687 0
DWIDTH 13 0
BBX 12 8 0 2
BITMAP
FFF0
FFF0
0000
FFF0
FFF0
0000
FFF0
FFF0
ENDCHAR
STARTCHAR uni2262
ENCODING 8802
SWIDTH 687 0
DWIDTH 13 0
BBX 12 16 0 -2
BITMAP
0030
0070
00E0
00C0
FFF0
FFF0
0300
FFF0
FFF0
0E00
FFF0
FFF0
3800
3000
7000
6000
ENDCHAR
STARTCHAR lessequal
ENCODING 8804
SWIDTH 687 0
DWIDTH 13 0
BBX 11 12 2 -1
BITMAP
00E0
03C0
0F00
3C00
F000
F000
3C00
0F00
0380
0000
FFE0
FFE0
ENDCHAR
STARTCHAR greaterequal
ENCODING 8805
SWIDTH 687 0
DWIDTH 13 0
BBX 11 12 1 -1
BITMAP
3800
1E00
0780
01E0
01E0
0780
1E00
7800
E000
0000
FFE0
FFE0
ENDCHAR
STARTCHAR uni226E
ENCODING 8814
SWIDTH 687 0
DWIDTH 13 0
BBX 11 16 2 -1
BITMAP
0060
00E0
01C0
0180
03E0
07C0
0F00
3E00
FC00
FC00
3C00
3F00
7380
6000
E000
C000
ENDCHAR
STARTCHAR uni226F
ENCODING 8815
SWIDTH 687 0
DWIDTH 13 0
BBX 11 16 1 -1
BITMAP
0060
00E0
01C0
0180
3B80
1F00
0780
0FE0
0DE0
1F80
3E00
7800
F000
6000
E000
C000
ENDCHAR
STARTCHAR uni2270
ENCODING 8816
SWIDTH 687 0
DWIDTH 13 0
BBX 11 16 2 -3
BITMAP
0060
00E0
01E0
03C0
0F80
3F00
F600
FE00
3C00
1F00
3B80
3000
FFE0
FFE0
E000
C000
ENDCHAR
STARTCHAR uni2271
ENCODING 8817
SWIDTH 687 0
DWIDTH 13 0
BBX 11 16 1 -3
BITMAP
0060
00E0
39C0
1F80
0780
07E0
07E0
0F80
1E00
7C00
F800
3000
FFE0
FFE0
E000
C000
ENDCHAR
STARTCHAR fi
ENCODING -1
SWIDTH 695 0
DWIDTH 13 0
BBX 13 17 0 -3
BITMAP
03E0
07F8
0E38
0E00
3FF8
3FF8
1C38
1C70
3870
3870
3870
70E0
70E0
70E0
E000
E000
E000
ENDCHAR
STARTCHAR fl
ENCODING -1
SWIDTH 695 0
DWIDTH 13 0
BBX 14 17 0 -3
BITMAP
03FC
07FC
0E1C
0E1C
3FB8
3FB8
1C38
1C70
3870
3870
3870
70E0
70E0
70E0
E000
E000
E000
ENDCHAR
ENDFONT
